<?xml version="1.0" encoding="utf-8"?>
<!-- Generator: Adobe Illustrator 16.0.2, SVG Export Plug-In . SVG Version: 6.00 Build 0)  -->
<!DOCTYPE svg PUBLIC "-//W3C//DTD SVG 1.1//EN" "http://www.w3.org/Graphics/SVG/1.1/DTD/svg11.dtd">
<svg version="1.1" id="Layer_1" xmlns="http://www.w3.org/2000/svg" xmlns:xlink="http://www.w3.org/1999/xlink" x="0px" y="0px"
	 width="256.003px" height="256px" viewBox="-831.499 668.5 256.003 256" enable-background="new -831.499 668.5 256.003 256"
	 xml:space="preserve">
<path fill="#fff" fill-rule="evenodd" clip-rule="evenodd" d="M-708.384,924.5c-1.921-1.033-2.803-2.623-2.989-4.82
	c-1.129-13.296-1.807-26.607-0.491-39.915c0.622-6.282,1.801-12.509,2.728-18.761c0.106-0.719,0.215-1.438,0.299-1.997
	c-5.433,0-10.76,0.409-16.005-0.073c-18.411-1.695-32.135-10.2-38.926-28.068c-1.978-5.202-3.585-10.545-5.34-15.831
	c-0.961-2.892-1.877-5.798-3.014-9.317c8.054,5.682,16.867,6.63,25.625,7.688c16.881,2.04,28.896,10.644,35.756,26.277
	c1.328,3.024,2.567,6.089,4.026,9.56c3.853-15.593,4.335-30.998,3.375-46.92c-5.248,4.156-10.852,5.584-16.942,3.132
	c-6.112-2.46-9.255-7.305-9.974-13.96c-6.937,4.15-13.604,4.315-19.66-0.829c-6.08-5.164-6.819-11.819-4.03-19.207
	c-8.301-0.091-14.263-3.573-16.795-11.613c-2.024-6.427,0.279-12.3,6.576-17.668c-7.309-4.193-10.868-10.313-8.704-18.702
	c1.847-7.161,7.039-10.783,14.433-11.712c-4.189-7.11-4.327-14.072,1.407-20.249c5.099-5.494,11.473-6.243,18.609-3.418
	c0.244-8.633,3.897-14.839,12.499-17.011c6.467-1.633,11.611,0.623,16.948,6.882c2.281-5.146,6.513-7.842,11.592-9.467
	c1.833,0,3.667,0,5.5,0c3.532,1.09,7.117,2.33,9.24,5.508c1.845,2.762,3.087,5.926,4.704,9.127
	c6.05-3.586,12.808-3.939,18.921,1.274c6.047,5.157,6.957,11.78,4.008,19.279c8.664,0.052,14.806,3.747,16.978,12.194
	c1.78,6.924-0.89,12.563-6.714,17.001c6.751,3.964,10.516,9.574,9.013,17.513c-1.484,7.834-6.787,11.854-14.715,13.026
	c4.087,6.895,4.269,13.646-0.989,19.721c-5.21,6.021-11.887,6.714-19.12,3.893c0.565,13.159-12.303,21.692-24.652,15.063
	c0,0.674-0.031,1.205,0.005,1.73c1.29,18.866-0.902,37.383-5.412,55.694c-1.098,4.456-1.712,9.032-2.549,13.554
	c0.206,0.07,0.412,0.143,0.618,0.213c0.338-0.429,0.667-0.865,1.016-1.285c10.526-12.698,23.781-19.428,40.53-18.741
	c4.815,0.197,9.657,0.172,14.467-0.099c4.912-0.276,9.308-2.281,13.837-5.451c-0.543,1.181-0.777,1.848-1.134,2.439
	c-4.978,8.26-9.431,16.902-15.072,24.683c-12.95,17.863-32.93,23.497-53.591,15.868c-0.538-0.197-1.076-0.391-1.649-0.6
	c0,6.258-0.087,12.375,0.034,18.488c0.068,3.408,0.37,6.822,0.78,10.207c0.304,2.512-0.375,4.393-2.554,5.699
	C-706.717,924.5-707.551,924.5-708.384,924.5z M-704.475,761.529c13.274,0.018,23.973-10.637,24.045-23.946
	c0.072-13.038-10.791-24.047-23.738-24.058c-13.488-0.011-24.209,10.598-24.256,24C-728.47,750.793-717.776,761.511-704.475,761.529
	z"/>
</svg>
