<?xml version="1.0" encoding="utf-8"?>
<!-- Generator: Adobe Illustrator 16.0.3, SVG Export Plug-In . SVG Version: 6.00 Build 0)  -->
<!DOCTYPE svg PUBLIC "-//W3C//DTD SVG 1.1//EN" "http://www.w3.org/Graphics/SVG/1.1/DTD/svg11.dtd">
<svg version="1.1" id="Layer_1" xmlns="http://www.w3.org/2000/svg" xmlns:xlink="http://www.w3.org/1999/xlink" x="0px" y="0px"
	 width="225.86px" height="256px" viewBox="0 0 225.86 256" enable-background="new 0 0 225.86 256" xml:space="preserve">
<g id="layer1_2_" transform="translate(0,-952.362)">
	<g>
		<path id="rect13131-6_9_" d="M90.335,952.363c-15.048,0.004-28.387,15.162-30.106,30.126l-5.176,45.166l-24.939,0.003
			c-7.535-0.004-15.074,7.53-15.059,15.06L0,1193.299c0.005,7.536,7.523,15.064,15.058,15.063l195.755-0.009
			c7.523,0,15.052-7.528,15.047-15.057l-15.06-150.586c0.006-7.524-7.524-15.053-15.048-15.059l-24.941-0.001l-5.175-45.168
			c-1.708-14.959-15.068-30.121-30.127-30.121L90.335,952.363z M90.335,967.426l45.175-0.006c7.545,0.005,14.21,7.581,15.058,15.063
			l5.176,45.168l-85.631,0.005l5.187-45.166C76.137,975,82.811,967.426,90.335,967.426z"/>
	</g>
</g>
</svg>
