<?xml version="1.0" encoding="utf-8"?>
<!-- Generator: Adobe Illustrator 16.0.3, SVG Export Plug-In . SVG Version: 6.00 Build 0)  -->
<!DOCTYPE svg PUBLIC "-//W3C//DTD SVG 1.1//EN" "http://www.w3.org/Graphics/SVG/1.1/DTD/svg11.dtd">
<svg version="1.1" id="Layer_1" xmlns="http://www.w3.org/2000/svg" xmlns:xlink="http://www.w3.org/1999/xlink" x="0px" y="0px"
	 width="256.003px" height="256px" viewBox="0 0 256.003 256" enable-background="new 0 0 256.003 256" xml:space="preserve">
<g>
	<path d="M128,0C57.417,0,0,57.417,0,128c0,70.583,57.417,128,128,128c70.575,0,128-57.417,128-128C256,57.417,198.575,0,128,0z
		 M128,245.333C63.3,245.333,10.675,192.7,10.675,128S63.3,10.683,128,10.683c64.691,0,117.325,52.617,117.325,117.317
		S192.691,245.333,128,245.333z"/>
	<polygon points="182.309,61.625 128,115.934 73.691,61.625 61.625,73.692 115.934,128 61.625,182.309 73.691,194.375 128,140.066 
		182.309,194.375 194.375,182.309 140.066,128 194.375,73.692 	"/>
</g>
</svg>
