<?xml version="1.0" encoding="utf-8"?>
<!-- Generator: Adobe Illustrator 16.0.3, SVG Export Plug-In . SVG Version: 6.00 Build 0)  -->
<!DOCTYPE svg PUBLIC "-//W3C//DTD SVG 1.1//EN" "http://www.w3.org/Graphics/SVG/1.1/DTD/svg11.dtd">
<svg version="1.1" id="Layer_1" xmlns="http://www.w3.org/2000/svg" xmlns:xlink="http://www.w3.org/1999/xlink" x="0px" y="0px"
	 width="256px" height="224.246px" viewBox="0 0 256 224.246" enable-background="new 0 0 256 224.246" xml:space="preserve">
<path d="M0,157.958c0,12.044,9.745,21.789,21.79,21.789h32.673v33.615c0,6.044,4.905,10.884,10.884,10.884
	c3.066,0,5.825-1.248,7.796-3.263l41.236-41.236H234.21c12.045,0,21.79-9.745,21.79-21.789V21.79C256,9.745,246.255,0,234.21,0
	H21.79C9.745,0,0,9.745,0,21.79V157.958L0,157.958z M65.347,95.327c0-7.533,6.11-13.621,13.621-13.621
	c7.512,0,13.622,6.088,13.622,13.621c0,7.511-6.11,13.599-13.622,13.599C71.457,108.926,65.347,102.838,65.347,95.327z
	 M114.379,95.327c0-7.533,6.11-13.621,13.621-13.621c7.512,0,13.621,6.088,13.621,13.621c0,7.511-6.109,13.599-13.621,13.599
	C120.489,108.926,114.379,102.838,114.379,95.327z M163.389,95.327c0-7.533,6.11-13.621,13.621-13.621
	c7.533,0,13.621,6.088,13.621,13.621c0,7.511-6.088,13.599-13.621,13.599C169.499,108.926,163.389,102.838,163.389,95.327z"/>
</svg>
