<?xml version="1.0" encoding="utf-8"?>
<!-- Generator: Adobe Illustrator 16.0.3, SVG Export Plug-In . SVG Version: 6.00 Build 0)  -->
<!DOCTYPE svg PUBLIC "-//W3C//DTD SVG 1.1//EN" "http://www.w3.org/Graphics/SVG/1.1/DTD/svg11.dtd">
<svg version="1.1" id="Layer_1" xmlns="http://www.w3.org/2000/svg" xmlns:xlink="http://www.w3.org/1999/xlink" x="0px" y="0px"
	 width="118.018px" height="256px" viewBox="0 0 118.018 256" enable-background="new 0 0 118.018 256" xml:space="preserve">
<path d="M102.459,87.927c0-3.866,11.45-13.651,11.45-33.908c0-20.277-13.896-25.788-20.6-25.788c-9.733,0-11.583,3.475-16.979,3.475
	c-3.425,0-4.076-3.981-4.088-6.458c-0.021-4.894,17.3-9.688,17.3-16.733c0-4.992-2.35-8.515-7.046-8.515c-5.871,0-23.488,0-23.488,0
	S41.396,0,35.525,0c-4.7,0-7.05,3.523-7.05,8.515c0,7.046,17.325,11.84,17.3,16.733c-0.012,2.478-0.663,6.458-4.088,6.458
	c-5.396,0-7.242-3.475-16.979-3.475c-6.704,0-20.6,5.51-20.6,25.788c0,20.257,11.45,30.042,11.45,33.908
	C15.559,94.042,0,98.743,0,137.542c0,44.676,27.008,102.016,27.008,102.016s3.913,0,5.213,0c0.842,0,0.954,0.075,0.954,1.25
	c0,2.142,0,6.475,0,8.149c0,5.284,0.683,7.042,4.108,7.042c3.133,0,21.725,0,21.725,0s18.596,0,21.726,0
	c3.424,0,4.112-1.758,4.112-7.042c0-1.675,0-6.008,0-8.149c0-1.175,0.108-1.25,0.951-1.25c1.304,0,5.212,0,5.212,0
	s27.008-57.34,27.008-102.016C118.018,98.743,102.459,94.042,102.459,87.927z M10.567,145.618c-3.888,0-7.042-3.158-7.042-7.05
	s3.154-7.042,7.042-7.042c3.892,0,7.05,3.15,7.05,7.042S14.458,145.618,10.567,145.618z M29.358,147.963
	c-3.892,0-7.046-3.154-7.046-7.046s3.154-7.046,7.046-7.046c3.892,0,7.046,3.154,7.046,7.046S33.25,147.963,29.358,147.963z
	 M22.313,81.713c-1.958-17.027-8.121-23.005-8.121-30.826c0-4.202,0.979-9.983,15.313-9.983c7,0,15.021-0.588,15.021,12.723
	C44.525,71.536,27.5,88.171,22.313,81.713z M48.146,150.313c-3.887,0-7.046-3.153-7.046-7.045s3.159-7.046,7.046-7.046
	c3.892,0,7.046,3.154,7.046,7.046S52.038,150.313,48.146,150.313z M69.871,150.313c-3.887,0-7.045-3.153-7.045-7.045
	s3.158-7.046,7.045-7.046c3.892,0,7.046,3.154,7.046,7.046S73.763,150.313,69.871,150.313z M88.659,147.963
	c-3.888,0-7.042-3.154-7.042-7.046s3.154-7.046,7.042-7.046c3.892,0,7.05,3.154,7.05,7.046S92.551,147.963,88.659,147.963z
	 M73.492,53.627c0-13.311,8.025-12.723,15.021-12.723c14.337,0,15.317,5.781,15.317,9.983c0,7.821-6.167,13.798-8.121,30.826
	C90.518,88.171,73.492,71.536,73.492,53.627z M107.451,145.618c-3.892,0-7.046-3.158-7.046-7.05s3.154-7.042,7.046-7.042
	s7.046,3.15,7.046,7.042S111.342,145.618,107.451,145.618z"/>
</svg>
