<?xml version="1.0" encoding="utf-8"?>
<!-- Generator: Adobe Illustrator 16.0.3, SVG Export Plug-In . SVG Version: 6.00 Build 0)  -->
<!DOCTYPE svg PUBLIC "-//W3C//DTD SVG 1.1//EN" "http://www.w3.org/Graphics/SVG/1.1/DTD/svg11.dtd">
<svg version="1.1" id="Layer_1" xmlns="http://www.w3.org/2000/svg" xmlns:xlink="http://www.w3.org/1999/xlink" x="0px" y="0px"
	 width="115.727px" height="256px" viewBox="0 0 115.727 256" enable-background="new 0 0 115.727 256" xml:space="preserve">
<path d="M75.714,55.953C75.714,18.396,80.86,0,80.86,0H57.864H34.868c0,0,5.146,18.396,5.146,55.953
	C40.014,137.201-60.941,256,57.864,256S75.714,137.201,75.714,55.953z M71.151,10.731c0,0-1.792,9.696-1.792,17.373
	c-1.987-4.934-4.854-17.373-4.854-17.373H71.151z M86.793,236.583c-21.263,0-21.938-31.919-16.663-57.228
	c5.108-24.529,7.15-32.705,11.75-43.434c6.642,31.171,22.159,60.296,22.159,75.112C104.039,220.744,102.647,236.583,86.793,236.583z
	"/>
</svg>
