<?xml version="1.0" encoding="utf-8"?>
<!-- Generator: Adobe Illustrator 16.0.3, SVG Export Plug-In . SVG Version: 6.00 Build 0)  -->
<!DOCTYPE svg PUBLIC "-//W3C//DTD SVG 1.1//EN" "http://www.w3.org/Graphics/SVG/1.1/DTD/svg11.dtd">
<svg version="1.1" id="Layer_1" xmlns="http://www.w3.org/2000/svg" xmlns:xlink="http://www.w3.org/1999/xlink" x="0px" y="0px"
	 width="266.397px" height="256px" viewBox="0 0 266.397 256" enable-background="new 0 0 266.397 256" xml:space="preserve">
<path fill-rule="evenodd" clip-rule="evenodd" d="M176.51,73.798c8.371-8.939,16.506-17.875,24.915-26.543
	c11.254-11.601,22.48-23.25,34.216-34.351c4.632-4.381,10.32-7.896,16.028-10.832c9.091-4.677,14.599-1.315,14.722,8.876
	c0.188,15.75-3.7,30.585-11.608,44.257c-1.222,2.112-2.926,4.058-4.762,5.679c-3.429,3.028-6.958,2.926-9.743-0.689
	c-2.287-2.97-3.792-6.552-5.552-9.911c-0.597-1.14-0.91-2.427-1.479-3.997c-14.537,12.693-28.84,25.181-43.174,37.696
	c3.429,3.874,6.698,7.711,10.139,11.388c1.505,1.609,1.435,2.835,0.267,4.623c-17.493,26.737-41.801,43.531-73.477,47.967
	c-34.709,4.86-64.429-6.113-88.752-31.472c-1.158-1.207-1.438-2.162-0.545-3.662c2.987-5.017,5.858-10.103,9.137-15.793
	c5.851,3.628,11.411,6.725,16.59,10.365c9.16,6.438,16.828,14.44,23.351,23.555c0.689,0.963,1.946,1.87,3.083,2.104
	c4.752,0.975,9.559,1.682,14.57,2.049c-10.943-21.151-27.151-36.8-48.483-48.107c3.342-2.848,6.33-5.59,9.568-7.996
	c0.666-0.494,2.332,0.084,3.424,0.48c16.46,5.961,30.433,15.574,41.942,28.76c6.111,7.001,11.191,14.691,15.036,23.156
	c0.802,1.766,1.672,2.448,3.618,1.824c3.361-1.078,6.779-1.976,10.604-3.071c-12.234-27.975-32.039-47.909-60.211-60.905
	c5.385-2.092,10.029-3.96,14.735-5.658c0.701-0.252,1.724,0.207,2.543,0.491c27.613,9.586,47.533,27.708,59.981,54.11
	c0.368,0.781,0.745,1.558,1.309,2.733c3.409-2.708,6.638-5.174,9.711-7.821c0.456-0.393,0.511-1.796,0.191-2.467
	c-7.968-16.75-19.308-30.805-34.147-41.939c-4.178-3.135-8.729-5.774-13.105-8.644c-0.403-0.264-0.79-0.554-1.376-0.966
	C130.636,57.815,154.771,60.011,176.51,73.798z"/>
<path fill-rule="evenodd" clip-rule="evenodd" d="M41.285,204.691c-1.537-2.961-2.719-5.238-3.901-7.516
	c27.501,25.279,59.667,36.836,96.837,31.553c37.168-5.283,65.111-25.231,85.095-56.816c-3.471,25.419-21.618,57.785-56.714,71.934
	c-42.8,17.254-80.02,6.999-112.108-25.606c-0.742,0.692-1.689,1.609-2.671,2.488c-10.255,9.186-20.425,18.471-30.832,27.481
	c-3.12,2.701-6.847,4.731-10.413,6.873c-1.7,1.021-3.662,1.501-5.389-0.243c-1.691-1.705-1.357-3.669-0.36-5.41
	c1.67-2.917,3.261-6.002,5.508-8.444c10.704-11.628,21.608-23.072,32.478-34.547C39.534,205.677,40.554,205.198,41.285,204.691z"/>
<path fill-rule="evenodd" clip-rule="evenodd" d="M28.219,156.193c27.091,29.584,60.43,43.851,100.552,39.092
	c39.935-4.735,69.289-26.205,90.266-60.347c-0.062,1.259,0.14,2.6-0.223,3.766c-12.489,40.195-38.67,66.463-80.024,75.536
	c-44.299,9.72-88.019-11.296-109.656-51.278c-1.035-1.913-1.165-4.316-1.717-6.49C27.684,156.379,27.952,156.286,28.219,156.193z"/>
<path fill-rule="evenodd" clip-rule="evenodd" d="M209.768,110.544c2.375,2.988,2.671,5.751,0.986,9.335
	c-15.013,31.942-39.325,52.714-73.813,60.546c-40.496,9.196-82.181-7.916-105.454-42.248c-2.207-3.256-0.54-5.821-0.01-9.118
	c26.475,24.883,57.412,36.621,93.469,32.648C160.858,157.752,188.663,139.786,209.768,110.544z"/>
</svg>
