<?xml version="1.0" encoding="utf-8"?>
<!-- Generator: Adobe Illustrator 16.0.3, SVG Export Plug-In . SVG Version: 6.00 Build 0)  -->
<!DOCTYPE svg PUBLIC "-//W3C//DTD SVG 1.1//EN" "http://www.w3.org/Graphics/SVG/1.1/DTD/svg11.dtd">
<svg version="1.1" id="Layer_1" xmlns="http://www.w3.org/2000/svg" xmlns:xlink="http://www.w3.org/1999/xlink" x="0px" y="0px"
	 width="203.621px" height="256px" viewBox="0 0 203.621 256" enable-background="new 0 0 203.621 256" xml:space="preserve">
<g>
	<path d="M203.5,11.041h0.111c-0.466-6-45.858-10.564-101.795-10.564S0.487,5.041,0.022,11.041H-0.5v17h0.522
		c0,0-0.01,0.105-0.01,0.136c0,1.959,5.06,3.813,13.874,5.388c1.826,4.379,7.525,18.244,9.659,25.503
		c2.558,8.697,19.44,49.373,15.859,56.023s2.558,6.653,9.72,24.559s3.417,49.349-6.651,60.88c-2.143,2.456-9.858,2.983-11.766,5.628
		c-3.013,4.186-4.436,15.666-2.558,20.464c1.156,2.957,6.794,6.947,9.72,8.185c3.085,1.305,8.855,1.95,14.304,2.86
		c7.571-14.605,22.479-43.069,15.879-27.927c-8.697,19.951-3.069,28.137-3.069,33.252c2.046,5.628,18.601,3.219,24.556,5.203
		c7.003,2.333,14.324,11.168,28.648,7.173c14.325-3.995,10.176-7.735,12.278-11.348c0,0-10.231-4.098-8.697-37.351
		c1.381,18.387,6.886,26.455,15.041,34.578c2.385-0.444,5.131-0.961,7.822-2.338c5.976-3.069,2.205-4.087,12.437-4.087
		s23.338,2.629,27.113-3.055c2.538-3.816-2.046-9.177-7.162-16.851c-5.115-7.674-24.556-19.886-24.044-28.583
		s-15.348-45.914-4.604-61.773c9.413-13.895,24.321-74.313,27.871-89.076c16.979-1.904,27.38-4.5,27.38-7.309
		c0-0.03-0.01-0.136-0.01-0.136H203.5V11.041z M69.843,104.609c2.471-25.154-22.423-32.997-23.789-44.252
		c-0.747-6.163-3.003-15.919-6.139-23.68c5.382,0.43,11.188,0.808,17.342,1.12c2.123,4.855,4.819,11.889,2.609,22.049
		C57.309,71.612,79.138,81.501,69.843,104.609z M122.28,126.863c5.857-15.111-8.017-52.861-9.04-65.14
		c5.55,24.863,14.155,16.54,14.155,0.681C127.396,62.404,135.325,108.958,122.28,126.863z M156.213,55.584
		c2.297-4.303,2.962-12.912,2.962-18.565c2.609-0.185,5.132-0.384,7.557-0.594C165.642,42.375,162.255,48.924,156.213,55.584z
		 M173.698,17.339c-19.194,2.01-44.722,3.115-71.882,3.115c-27.16,0-52.688-1.105-71.882-3.115
		C1.367,14.351,1.035,10.857,1.035,10.826c0-0.036,0.333-3.53,28.899-6.518c19.194-2.011,44.723-3.115,71.882-3.115
		c27.16,0,52.688,1.104,71.882,3.115c28.567,2.988,28.899,6.482,28.899,6.518C202.598,10.857,202.266,14.351,173.698,17.339z"/>
	<path d="M62.527,6.821C44.34,7.695,32.41,9.164,32.41,10.826c0,1.658,11.93,3.126,30.117,4c-4.282-1.166-6.753-2.537-6.753-4
		C55.774,9.358,58.245,7.987,62.527,6.821z"/>
	<path d="M141.105,6.821c4.282,1.166,6.753,2.537,6.753,4.005c0,1.463-2.471,2.834-6.753,4c18.187-0.875,30.117-2.343,30.117-4
		C171.223,9.164,159.292,7.695,141.105,6.821z"/>
</g>
</svg>
