<?xml version="1.0" encoding="utf-8"?>
<!-- Generator: Adobe Illustrator 16.0.3, SVG Export Plug-In . SVG Version: 6.00 Build 0)  -->
<!DOCTYPE svg PUBLIC "-//W3C//DTD SVG 1.1//EN" "http://www.w3.org/Graphics/SVG/1.1/DTD/svg11.dtd">
<svg version="1.1" id="Layer_1" xmlns="http://www.w3.org/2000/svg" xmlns:xlink="http://www.w3.org/1999/xlink" x="0px" y="0px"
	 width="256px" height="188.729px" viewBox="0 0 256 188.729" enable-background="new 0 0 256 188.729" xml:space="preserve">
<g>
	<polygon points="128,165.123 196,149.84 196,134.652 128,150.227 	"/>
	<path d="M254.796,92.864l-41.243-30.999l37.662-25.811c0.923-0.632,1.399-1.735,1.225-2.844c-0.174-1.103-0.969-2.008-2.037-2.328
		l-69.265-20.604c-0.714-0.215-1.492-0.14-2.154,0.203l-43.396,22.345L95.854,0.645C95.14,0.07,94.2-0.134,93.312,0.087L2.189,23.21
		c-1.039,0.261-1.846,1.073-2.101,2.118c-0.261,1.039,0.081,2.136,0.876,2.85l37.372,33.553L0.877,98.232
		c-0.69,0.679-1.004,1.654-0.83,2.606c0.18,0.952,0.818,1.753,1.706,2.136l37.471,16.17l0.032,0.014l-0.032,42.459
		c-0.012,1.259,0.461,2.379,1.657,2.774l72.478,24.162c0.004,0.002,0.008,0.004,0.012,0.005c0.017,0.006,0.969,0.169,0.969,0.169h0
		c0.104,0,0.649-0.076,0.667-0.081c0.012,0,0.029,0,0.041-0.007l94.777-23.796c1.294-0.325,2.175-1.491,2.175-2.826v-53.473
		L253.93,98c1.085-0.272,1.834-1.143,2.057-2.24C256.205,94.663,255.689,93.537,254.796,92.864z M180.604,16.176l62.312,18.532
		l-34.767,23.832l-65.566-22.78L180.604,16.176z M8.085,99.364l35.409-34.357l65.255,21.944l-39.014,38.853L8.085,99.364z
		 M111,181.799l-66.379-22.241l0.541-37.805l23.911,10.294c0.243,0.103,0.522,0.159,0.774,0.195
		c0.027,0.005,0.068,0.006,0.095,0.009c0.052,0.008,0.112,0.013,0.165,0.017c0.013,0.001,0.028,0.003,0.041,0.004
		c0.042,0.002,0.086,0.013,0.127,0.013c0.193,0,0.386-0.021,0.575-0.059c0.55-0.106,0.848-0.373,1.264-0.788L111,92.736V181.799z
		 M43.345,58.429L8.893,27.499L93.329,6.071l35.683,28.898L43.345,58.429z M117,182.101V91.587l39.588,29.618
		c0.505,0.383,1.181,0.581,1.802,0.581c0.238,0,0.501-0.029,0.731-0.087l46.721-11.701l0.066,49.769L117,182.101z M159.088,115.737
		l-38.106-28.596l86.996-22.205l38.467,28.914L159.088,115.737z"/>
</g>
</svg>
