<?xml version="1.0" encoding="utf-8"?>
<!-- Generator: Adobe Illustrator 16.0.3, SVG Export Plug-In . SVG Version: 6.00 Build 0)  -->
<!DOCTYPE svg PUBLIC "-//W3C//DTD SVG 1.1//EN" "http://www.w3.org/Graphics/SVG/1.1/DTD/svg11.dtd">
<svg version="1.1" id="Layer_1" xmlns="http://www.w3.org/2000/svg" xmlns:xlink="http://www.w3.org/1999/xlink" x="0px" y="0px"
	 width="256px" height="176.002px" viewBox="0 0 256 176.002" enable-background="new 0 0 256 176.002" xml:space="preserve">
<g>
	<path d="M128.001,0C31.999,0,0,96.001,0,96.001S30.5,176,128.001,176C225.5,176,256,96.001,256,96.001S224.005,0,128.001,0z
		 M128.001,159.998c-80,0-96.002-63.997-96.002-63.997s16.5-64.002,96.002-64.002c79.504,0,96.004,64.002,96.004,64.002
		S208.003,159.998,128.001,159.998z"/>
	<path d="M128.001,48c-4.883,0-9.483,0.945-13.922,2.303c8.211,3.807,13.922,12.062,13.922,21.694c0,13.252-10.751,24.003-24,24.003
		c-9.631,0-17.89-5.715-21.695-13.922C80.945,86.513,80,91.115,80,96.001c0,26.516,21.502,48,48.001,48
		c26.515,0,47.999-21.484,47.999-48C176,69.498,154.516,48,128.001,48z"/>
</g>
</svg>
