<?xml version="1.0" encoding="utf-8"?>
<!-- Generator: Adobe Illustrator 16.0.3, SVG Export Plug-In . SVG Version: 6.00 Build 0)  -->
<!DOCTYPE svg PUBLIC "-//W3C//DTD SVG 1.1//EN" "http://www.w3.org/Graphics/SVG/1.1/DTD/svg11.dtd">
<svg version="1.1" id="Layer_1" xmlns="http://www.w3.org/2000/svg" xmlns:xlink="http://www.w3.org/1999/xlink" x="0px" y="0px"
	 width="256px" height="256px" viewBox="0 0 256 256" enable-background="new 0 0 256 256" xml:space="preserve">
<path d="M219.625,89.417c-4.649,5.142-9.662,10.604-15.035,16.381c-27.717,29.772-57.59,59.898-72.927,75.208l-0.765,0.765
	c-5.306,5.305-12.516,8.344-19.795,8.344c-7.231,0-14.183-2.963-19.563-8.344c-10.052-10.045-23.38-31.711-32.134-48.728
	c-5.23-10.167-9.232-19.351-11.561-26.562c-2.362-7.299-4.417-16.333,0.676-21.427c1.304-1.311,3.639-2.867,7.347-2.867
	c3.872,0,8.672,1.754,15.104,5.524c4.773,2.799,10.393,6.678,16.688,11.526c9.956,7.667,19.317,15.964,25.579,22.076
	c6.705-4.794,21.113-16.17,34.114-26.439c14.926-11.786,32.748-25.858,49.279-38.375c-25.025-9.532-53.021-23.791-77.05-40.021
	C86.282,38.969,45.381,57.665,15.295,65.265c14.312,98.15,55.254,147.845,104.289,173.814
	C164.419,215.33,202.493,171.745,219.625,89.417z"/>
<path d="M236.859,69.642c-2.643,3.1-5.291,6.377-8.706,9.839c0,2.022-0.571,4.076-0.956,6.051c-0.406,2.094-0.831,4.184-1.271,6.271
	c-0.863,4.091-1.793,8.167-2.793,12.227c-1.924,7.799-4.108,15.535-6.603,23.171c-4.695,14.376-10.493,28.408-17.706,41.709
	c-8.269,15.251-18.434,29.469-30.457,41.99c-12.043,12.542-25.962,23.226-41.104,31.763c-1.484,0.836-2.977,1.657-4.484,2.451
	l-3.195,1.693l-3.196-1.693c-15.424-8.132-29.716-18.479-42.139-30.72c-12.341-12.16-22.866-26.1-31.475-41.124
	c-7.999-13.958-14.4-28.79-19.544-44.022c-5.489-16.257-9.559-32.978-12.57-49.864c-0.779-4.367-1.486-8.747-2.125-13.137
	L7.647,60.15l5.975-1.509c30.393-7.675,70.489-26.446,102.138-47.825l3.824-2.581l3.823,2.581
	c24.323,16.429,53.637,31.321,79.7,40.82c2.195-1.645,4.4-3.28,6.616-4.896c-26.548-9.164-57.234-24.521-82.5-41.578L119.584,0
	l-7.641,5.162C80.888,26.131,41.639,44.527,11.95,52.018L0,55.036l1.782,12.196c2.419,16.605,5.764,33.094,10.32,49.249
	c4.397,15.591,9.962,30.862,17,45.462c6.95,14.418,15.339,28.143,25.342,40.65c10.041,12.556,21.648,23.815,34.583,33.37
	c7.659,5.657,15.75,10.728,24.166,15.182l6.392,3.387l6.391-3.387c14.4-7.621,27.86-17.052,39.811-28.134
	c11.835-10.976,22.191-23.527,30.918-37.099c8.709-13.542,15.832-28.078,21.63-43.087c5.832-15.099,10.3-30.707,13.772-46.508
	c0.967-4.4,1.855-8.819,2.671-13.25c0.837-4.541,1.458-9.118,2.281-13.658C236.989,69.484,236.928,69.566,236.859,69.642
	C234.217,72.742,236.928,69.566,236.859,69.642z"/>
<path d="M238.922,56.695c-2.567,3.168-5.373,6.515-8.358,9.997c-0.033,0.041-0.067,0.075-0.102,0.116
	c-2.649,3.1-5.449,6.31-8.365,9.593c-37.009,41.837-91.655,96.17-96.026,100.54c-4.063,4.063-9.458,6.344-14.968,6.344
	c-5.135,0-10.373-1.98-14.735-6.344C79.201,159.775,45.497,97.733,53.35,89.881c0.594-0.594,1.447-0.867,2.52-0.867
	c10.836,0,44.09,28.078,56.204,40.813c0.027,0.027,0.075,0.041,0.137,0.041c3.263,0,52.196-40.621,92.065-70.577
	c2.247-1.687,4.453-3.339,6.631-4.944c2.322-1.714,4.603-3.387,6.822-4.991c17.322-12.53,31.272-21.42,36.244-21.42
	c0.662,0,1.167,0.164,1.495,0.492C258.062,31.021,250.967,41.905,238.922,56.695z"/>
</svg>
