<?xml version="1.0" encoding="utf-8"?>
<!-- Generator: Adobe Illustrator 16.0.3, SVG Export Plug-In . SVG Version: 6.00 Build 0)  -->
<!DOCTYPE svg PUBLIC "-//W3C//DTD SVG 1.1//EN" "http://www.w3.org/Graphics/SVG/1.1/DTD/svg11.dtd">
<svg version="1.1" id="Layer_1" xmlns="http://www.w3.org/2000/svg" xmlns:xlink="http://www.w3.org/1999/xlink" x="0px" y="0px"
	 width="256px" height="230.4px" viewBox="0 0 256 230.4" enable-background="new 0 0 256 230.4" xml:space="preserve">
<path d="M128,0c0,0-79.175,68.35-123.425,105.375C1.975,107.725,0,111.15,0,115.2c0,7.075,5.725,12.8,12.8,12.8H38.4v89.6
	c0,7.075,5.725,12.801,12.8,12.801H89.6c7.075,0,12.801-5.738,12.801-12.801V166.4H153.6V217.6c0,7.063,5.726,12.801,12.801,12.801
	H204.8c7.075,0,12.8-5.726,12.8-12.801V128H243.2c7.075,0,12.8-5.725,12.8-12.8c0-4.05-1.975-7.476-4.9-9.825
	C207.15,68.35,128,0,128,0z"/>
</svg>
