<?xml version="1.0" encoding="utf-8"?>
<!-- Generator: Adobe Illustrator 16.0.3, SVG Export Plug-In . SVG Version: 6.00 Build 0)  -->
<!DOCTYPE svg PUBLIC "-//W3C//DTD SVG 1.1//EN" "http://www.w3.org/Graphics/SVG/1.1/DTD/svg11.dtd">
<svg version="1.1" id="Layer_1" xmlns="http://www.w3.org/2000/svg" xmlns:xlink="http://www.w3.org/1999/xlink" x="0px" y="0px"
	 width="256px" height="256.001px" viewBox="0 0 256 256.001" enable-background="new 0 0 256 256.001" xml:space="preserve">
<g>
	<g>
		<path d="M127.974,224.958c-14.724,0-26.698-11.991-26.698-26.708c0-2.293,0-7.599,7.575-24.258l-19.4-33.611l-9.781,19.161
			c5.924,13.188,5.924,17.639,5.924,19.809c0,13.604-11.067,24.666-24.674,24.666c-13.606,0-24.674-11.063-24.674-24.666
			c0-2.218,0-6.771,6.225-20.479L30.37,129.623c-1.725-4.172-1.725-8.774,0-12.944c1.733-4.176,4.988-7.426,9.158-9.15
			c2.069-0.855,4.243-1.287,6.468-1.287c6.868,0,13.004,4.101,15.631,10.449l0.867,2.1l6.457-12.663
			c-15.695-29.995-15.7-38.412-15.7-41.61c0-18.454,15.85-33.469,35.325-33.469s35.32,15.015,35.32,33.469
			c0,3.175,0,11.518-15.445,41.123l19.525,33.818l19.559-33.872c-15.414-29.57-15.414-37.902-15.414-41.067
			c0-18.454,15.842-33.468,35.324-33.468c19.476,0,35.307,15.015,35.307,33.468c0,3.196,0,11.613-15.7,41.61l6.469,12.663l0.865-2.1
			c2.624-6.349,8.766-10.449,15.633-10.449c2.225,0,4.403,0.432,6.456,1.279c8.619,3.569,12.727,13.482,9.17,22.101l-12.101,29.249
			c6.225,13.708,6.225,18.262,6.225,20.479c0,13.604-11.075,24.666-24.674,24.666c-13.611,0-24.677-11.063-24.677-24.666
			c0-2.17,0-6.621,5.927-19.809l-9.808-19.212l-19.441,33.662c7.582,16.649,7.582,21.962,7.582,24.253
			C154.676,212.967,142.699,224.958,127.974,224.958z M89.163,129.283l25.655,44.437l-0.579,1.252
			c-7.665,16.589-7.665,21.452-7.665,23.279c0,11.803,9.601,21.402,21.399,21.402c11.802,0,21.4-9.6,21.4-21.402
			c0-1.827,0-6.699-7.664-23.279l-0.577-1.252l25.692-44.491l15.392,30.193l-0.526,1.163c-5.974,13.05-5.974,17.049-5.974,18.767
			c0,10.682,8.68,19.37,19.375,19.37c10.681,0,19.376-8.688,19.376-19.37c0-1.744,0-5.841-6.228-19.307l-0.485-1.063l12.985-31.389
			c2.45-5.916-0.372-12.721-6.293-15.171c-1.415-0.585-2.906-0.881-4.431-0.881c-4.719,0-8.934,2.817-10.734,7.174l-5.262,12.721
			l-12.927-25.343l0.634-1.216c10.44-19.792,15.723-33.371,15.723-40.358c0-15.531-13.455-28.17-30.005-28.17
			c-16.561,0-30.022,12.639-30.022,28.17c0,2.583,0,10.438,15.479,39.9l0.682,1.292l-25.61,44.354l-25.572-44.305l0.679-1.292
			c15.514-29.493,15.514-37.364,15.514-39.949c0-15.531-13.47-28.17-30.02-28.17c-16.556,0-30.019,12.639-30.019,28.17
			c0,6.987,5.287,20.566,15.726,40.358l0.635,1.216l-12.932,25.343l-5.262-12.721c-1.801-4.356-6.016-7.174-10.732-7.174
			c-1.532,0-3.025,0.297-4.438,0.884c-2.868,1.184-5.1,3.415-6.288,6.285c-1.194,2.862-1.194,6.017-0.007,8.885l12.987,31.387
			l-0.48,1.061c-6.224,13.476-6.224,17.563-6.224,19.31c0,10.682,8.689,19.368,19.375,19.368c10.683,0,19.375-8.687,19.375-19.368
			c0-1.713,0-5.72-5.977-18.771l-0.53-1.161L89.163,129.283z M167.443,81.704l-2.432-5.45c-2.339-5.267-3.905-9.423-4.294-11.403
			l-0.113-0.571l0.14-0.567c0.489-2.007,3.003-4.134,6.699-4.134c3.682,0,6.2,2.127,6.681,4.127l0.146,0.569l-0.111,0.576
			c-0.391,1.98-1.96,6.137-4.312,11.403L167.443,81.704z M88.568,81.704l-2.419-5.45c-2.341-5.267-3.908-9.423-4.299-11.403
			l-0.105-0.571l0.136-0.567c0.488-2.007,2.999-4.134,6.695-4.134c3.687,0,6.2,2.127,6.688,4.134l0.144,0.567l-0.112,0.571
			c-0.395,1.982-1.959,6.139-4.3,11.403L88.568,81.704z"/>
	</g>
	<g>
		<path d="M127.967,217.158c-10.424,0-18.905-8.486-18.905-18.907c0-4.392,2.882-12.686,8.564-24.643l-28.602-49.549l-18.025,35.312
			c4.51,9.521,6.795,16.25,6.795,19.98c0,9.305-7.575,16.882-16.881,16.882c-9.306,0-16.877-7.575-16.877-16.882
			c0-3.771,2.334-10.608,6.94-20.294l-13.411-32.418c-1.92-4.643,0.295-9.988,4.938-11.913c1.118-0.461,2.287-0.691,3.486-0.691
			c3.706,0,7.011,2.209,8.432,5.635l7.331,17.714l15.982-31.322c-7.67-14.354-16.688-33.042-16.688-41.548
			c0-14.157,12.349-25.678,27.524-25.678c15.175,0,27.524,11.521,27.524,25.678c0,8.464-8.943,27.025-16.549,41.292l28.423,49.236
			l28.465-49.29C148.835,91.5,139.91,72.962,139.91,64.513c0-14.157,12.346-25.678,27.517-25.678
			c15.183,0,27.533,11.521,27.533,25.678c0,8.506-9.013,27.193-16.69,41.55l15.981,31.32l7.336-17.721
			c1.416-3.419,4.717-5.628,8.435-5.628c1.19,0,2.357,0.229,3.476,0.688c4.648,1.923,6.866,7.269,4.948,11.914l-13.418,32.415
			c4.602,9.69,6.944,16.521,6.944,20.294c0,9.307-7.573,16.882-16.884,16.882c-9.313,0-16.886-7.572-16.886-16.882
			c0-3.73,2.292-10.454,6.799-19.979l-18.05-35.361l-28.633,49.603c5.682,11.957,8.557,20.251,8.557,24.643
			C146.875,208.668,138.395,217.158,127.967,217.158z M88.919,120.147l30.818,53.37l-0.212,0.452
			c-5.7,11.937-8.589,20.113-8.589,24.281c0,9.393,7.639,17.029,17.033,17.029c9.402,0,17.039-7.637,17.039-17.029
			c0-4.168-2.889-12.343-8.587-24.281l-0.219-0.452l30.849-53.429l20.026,39.252l-0.2,0.416c-4.507,9.49-6.799,16.088-6.799,19.59
			c0,8.274,6.736,15.008,15.01,15.008c8.282,0,15.008-6.733,15.008-15.008c0-3.54-2.325-10.23-6.935-19.866l-0.186-0.375
			l13.727-33.182c1.534-3.691-0.226-7.939-3.924-9.473c-0.874-0.36-1.807-0.543-2.757-0.543c-2.95,0-5.584,1.754-6.7,4.476
			l-8.892,21.466l-18.267-35.804l0.236-0.433c10.924-20.392,16.698-34.604,16.698-41.097c0-13.127-11.519-23.805-25.669-23.805
			c-14.143,0-25.648,10.677-25.648,23.805c0,6.453,5.725,20.565,16.55,40.811l0.243,0.461l-30.606,53.008L97.4,105.838l0.251-0.455
			c10.839-20.271,16.568-34.407,16.568-40.867c0-13.127-11.505-23.805-25.65-23.805S62.914,51.389,62.914,64.516
			c0,6.492,5.775,20.705,16.698,41.097l0.233,0.428L61.57,141.849l-8.882-21.466c-1.125-2.722-3.754-4.482-6.7-4.482
			c-0.953,0-1.885,0.187-2.767,0.558c-3.693,1.525-5.458,5.773-3.925,9.465l13.731,33.182l-0.181,0.375
			c-4.607,9.641-6.938,16.326-6.938,19.866c0,8.274,6.73,15.008,15.006,15.008c8.28,0,15.012-6.733,15.012-15.008
			c0-3.502-2.29-10.093-6.804-19.59l-0.2-0.416L88.919,120.147z M127.967,200.787c-1.369,0-2.534-1.118-2.543-2.437
			c0.081-0.88,0.688-2.816,1.676-5.405l0.867-2.303l0.875,2.289c0.981,2.574,1.589,4.475,1.663,5.225
			C130.508,199.65,129.37,200.787,127.967,200.787z M88.568,91.421l-0.837-1.672c-6.269-12.512-10.323-22.412-10.323-25.233
			c0-5.131,5.009-9.307,11.16-9.307c6.151,0,11.158,4.176,11.158,9.307c0,2.816-4.052,12.725-10.325,25.233L88.568,91.421z
			 M88.568,57.079c-5.125,0-9.287,3.337-9.287,7.439c0,1.945,2.911,9.838,9.287,22.718c6.376-12.885,9.29-20.781,9.29-22.718
			C97.855,60.416,93.687,57.079,88.568,57.079z M167.427,91.421l-0.831-1.672c-6.269-12.512-10.32-22.417-10.32-25.233
			c0-5.131,5.01-9.307,11.151-9.307c6.158,0,11.168,4.176,11.168,9.307c0,2.816-4.05,12.725-10.323,25.233L167.427,91.421z
			 M167.427,57.079c-5.114,0-9.282,3.337-9.282,7.439c0,1.937,2.913,9.833,9.282,22.718c6.375-12.885,9.292-20.781,9.292-22.718
			C176.719,60.416,172.55,57.079,167.427,57.079z"/>
	</g>
	<g>
		<path d="M211.561,119.412c-0.491-0.207-1.016-0.307-1.542-0.307c-1.649,0-3.123,0.98-3.749,2.499l-11.542,27.865l-22.178-43.464
			c5.226-9.665,17.343-32.963,17.343-41.487c0-11.362-10.075-20.608-22.468-20.608c-12.377,0-22.451,9.246-22.451,20.608
			c0,8.492,12.051,31.7,17.249,41.331l-34.256,59.334l-34.224-59.286c5.216-9.637,17.279-32.874,17.279-41.379
			c0-11.362-10.073-20.608-22.457-20.608s-22.46,9.246-22.46,20.608c0,8.524,12.111,31.824,17.341,41.487l-22.179,43.464
			l-11.535-27.86c-0.629-1.523-2.1-2.504-3.747-2.504c-0.53,0-1.053,0.1-1.542,0.307c-2.069,0.857-3.05,3.229-2.201,5.293
			l14.282,34.51c-2.782,5.705-7.426,15.868-7.426,20.137c0,6.514,5.299,11.81,11.813,11.81c6.52,0,11.813-5.296,11.813-11.81
			c0-4.254-4.612-14.365-7.374-20.044l23.4-45.854l34.598,59.936c-2.787,5.733-9.218,19.544-9.218,24.861
			c0,7.632,6.212,13.847,13.837,13.847c7.633,0,13.842-6.215,13.842-13.847c0-5.317-6.434-19.131-9.216-24.861l34.634-59.986
			l23.423,45.906c-2.764,5.677-7.381,15.788-7.381,20.047c0,6.504,5.301,11.805,11.818,11.805c6.517,0,11.816-5.301,11.816-11.805
			c0-4.283-4.649-14.439-7.427-20.14l14.273-34.509C214.61,122.641,213.627,120.267,211.561,119.412z M167.427,52.016
			c7.925,0,14.361,5.608,14.361,12.502c0,4.84-7.401,20.638-14.361,33.854c-6.946-13.219-14.345-29.007-14.345-33.854
			C153.082,57.621,159.521,52.016,167.427,52.016z M195.085,183.057c-2.042,0-3.708-1.665-3.708-3.701
			c0.024-1.237,1.418-5.087,3.708-10.326c2.29,5.239,3.683,9.089,3.708,10.321C198.795,181.392,197.126,183.057,195.085,183.057z
			 M60.913,183.057c-2.044,0-3.706-1.665-3.706-3.701c0.03-1.237,1.413-5.087,3.706-10.326c2.299,5.232,3.682,9.089,3.712,10.321
			C64.625,181.392,62.958,183.057,60.913,183.057z M88.568,52.016c7.918,0,14.352,5.608,14.352,12.502
			c0,4.84-7.401,20.638-14.352,33.854c-6.95-13.211-14.35-29.007-14.35-33.854C74.219,57.621,80.656,52.016,88.568,52.016z
			 M127.967,203.982c-3.157,0-5.732-2.567-5.732-5.731c0-1.808,2.196-7.779,5.732-15.611c3.542,7.832,5.732,13.804,5.732,15.611
			C133.699,201.415,131.132,203.982,127.967,203.982z"/>
	</g>
	<g>
		<path d="M128.001,256.001C57.419,256.001,0,198.583,0,127.997C0,57.421,57.419,0,128.001,0C198.575,0,256,57.421,256,127.997
			C256,198.583,198.575,256.001,128.001,256.001z M128.001,10.67c-64.696,0-117.326,52.632-117.326,117.326
			c0,64.698,52.632,117.337,117.326,117.337c64.694,0,117.324-52.639,117.324-117.337C245.325,63.302,192.695,10.67,128.001,10.67z"
			/>
	</g>
</g>
</svg>
