<?xml version="1.0" encoding="utf-8"?>
<!-- Generator: Adobe Illustrator 16.0.3, SVG Export Plug-In . SVG Version: 6.00 Build 0)  -->
<!DOCTYPE svg PUBLIC "-//W3C//DTD SVG 1.1//EN" "http://www.w3.org/Graphics/SVG/1.1/DTD/svg11.dtd">
<svg version="1.1" id="Layer_1" xmlns="http://www.w3.org/2000/svg" xmlns:xlink="http://www.w3.org/1999/xlink" x="0px" y="0px"
	 width="398.5px" height="105.082px" viewBox="0 0 398.5 105.082" enable-background="new 0 0 398.5 105.082" xml:space="preserve">
<g>
	<g>
		<g>
			<path d="M52.53,92.339c-6.044,0-10.959-4.922-10.959-10.963c0-0.941,0-3.119,3.109-9.957l-7.963-13.797l-4.015,7.865
				c2.432,5.413,2.432,7.24,2.432,8.131c0,5.584-4.543,10.125-10.128,10.125s-10.128-4.541-10.128-10.125
				c0-0.91,0-2.779,2.555-8.406l-4.967-12.006c-0.708-1.712-0.708-3.602,0-5.313c0.711-1.714,2.047-3.048,3.759-3.756
				c0.849-0.351,1.742-0.528,2.655-0.528c2.819,0,5.338,1.683,6.416,4.289l0.356,0.862l2.65-5.198
				c-6.442-12.312-6.444-15.767-6.444-17.08c0-7.575,6.506-13.738,14.5-13.738s14.498,6.163,14.498,13.738
				c0,1.303,0,4.728-6.34,16.88l8.015,13.882l8.028-13.904c-6.327-12.138-6.327-15.558-6.327-16.857
				c0-7.575,6.503-13.738,14.5-13.738c7.994,0,14.492,6.163,14.492,13.738c0,1.312,0,4.767-6.444,17.08l2.655,5.198l0.355-0.862
				c1.077-2.606,3.598-4.289,6.417-4.289c0.913,0,1.807,0.177,2.65,0.525c3.538,1.465,5.224,5.534,3.764,9.072l-4.967,12.006
				c2.555,5.627,2.555,7.496,2.555,8.406c0,5.584-4.546,10.125-10.128,10.125c-5.587,0-10.129-4.541-10.129-10.125
				c0-0.891,0-2.718,2.433-8.131l-4.026-7.886l-7.98,13.817c3.112,6.834,3.112,9.015,3.112,9.955
				C63.49,87.417,58.574,92.339,52.53,92.339z M36.599,53.067l10.531,18.24l-0.238,0.514c-3.146,6.81-3.146,8.806-3.146,9.556
				c0,4.845,3.941,8.785,8.784,8.785c4.844,0,8.784-3.94,8.784-8.785c0-0.75,0-2.75-3.146-9.556l-0.237-0.514l10.546-18.263
				l6.318,12.394l-0.216,0.478c-2.452,5.356-2.452,6.998-2.452,7.703c0,4.385,3.563,7.951,7.953,7.951
				c4.384,0,7.953-3.566,7.953-7.951c0-0.716,0-2.397-2.556-7.925l-0.199-0.437l5.33-12.884c1.006-2.428-0.153-5.221-2.583-6.227
				c-0.581-0.24-1.193-0.362-1.819-0.362c-1.937,0-3.667,1.157-4.406,2.945l-2.16,5.222l-5.306-10.403l0.26-0.499
				c4.286-8.124,6.454-13.698,6.454-16.566c0-6.375-5.523-11.563-12.316-11.563c-6.798,0-12.324,5.188-12.324,11.563
				c0,1.06,0,4.284,6.354,16.378l0.28,0.53L52.53,61.597L42.033,43.411l0.279-0.53c6.368-12.106,6.368-15.337,6.368-16.398
				c0-6.375-5.529-11.563-12.322-11.563c-6.796,0-12.322,5.188-12.322,11.563c0,2.868,2.17,8.442,6.455,16.566l0.261,0.499
				l-5.308,10.403l-2.16-5.222c-0.739-1.788-2.469-2.945-4.405-2.945c-0.629,0-1.242,0.122-1.822,0.363
				c-1.177,0.486-2.093,1.402-2.581,2.58c-0.49,1.175-0.49,2.47-0.003,3.647l5.331,12.883l-0.197,0.436
				c-2.555,5.531-2.555,7.209-2.555,7.926c0,4.385,3.567,7.95,7.953,7.95c4.385,0,7.953-3.565,7.953-7.95
				c0-0.703,0-2.348-2.453-7.705l-0.218-0.477L36.599,53.067z M68.731,33.537L67.733,31.3c-0.96-2.162-1.603-3.868-1.763-4.681
				l-0.046-0.234l0.057-0.233c0.201-0.824,1.233-1.697,2.75-1.697c1.511,0,2.545,0.873,2.742,1.694l0.06,0.234l-0.045,0.236
				c-0.161,0.813-0.805,2.519-1.77,4.681L68.731,33.537z M36.355,33.537L35.362,31.3c-0.961-2.162-1.604-3.868-1.765-4.681
				l-0.043-0.234l0.056-0.233c0.2-0.824,1.231-1.697,2.748-1.697c1.513,0,2.545,0.873,2.745,1.697l0.059,0.233l-0.046,0.234
				c-0.162,0.814-0.804,2.52-1.765,4.681L36.355,33.537z"/>
		</g>
		<g>
			<path d="M52.527,89.137c-4.279,0-7.76-3.483-7.76-7.761c0-1.803,1.183-5.207,3.515-10.115l-11.74-20.338l-7.399,14.495
				c1.851,3.908,2.789,6.67,2.789,8.201c0,3.819-3.109,6.93-6.929,6.93c-3.82,0-6.928-3.109-6.928-6.93
				c0-1.548,0.958-4.354,2.849-8.33l-5.505-13.307c-0.788-1.906,0.121-4.1,2.027-4.89c0.459-0.189,0.939-0.284,1.431-0.284
				c1.521,0,2.878,0.907,3.461,2.313l3.009,7.271l6.56-12.857c-3.148-5.892-6.85-13.563-6.85-17.054
				c0-5.811,5.069-10.54,11.298-10.54s11.298,4.729,11.298,10.54c0,3.474-3.671,11.093-6.793,16.949l11.667,20.21l11.684-20.232
				c-3.118-5.85-6.782-13.459-6.782-16.927c0-5.811,5.068-10.54,11.295-10.54c6.232,0,11.302,4.729,11.302,10.54
				c0,3.491-3.7,11.162-6.851,17.055l6.56,12.856l3.011-7.274c0.581-1.403,1.936-2.31,3.462-2.31c0.489,0,0.968,0.094,1.427,0.283
				c1.908,0.789,2.818,2.983,2.031,4.89l-5.508,13.306c1.889,3.978,2.851,6.781,2.851,8.33c0,3.82-3.109,6.93-6.931,6.93
				c-3.822,0-6.931-3.108-6.931-6.93c0-1.531,0.941-4.291,2.791-8.201l-7.409-14.515l-11.753,20.36
				c2.332,4.908,3.512,8.313,3.512,10.115C60.288,85.653,56.807,89.137,52.527,89.137z M36.499,49.317l12.65,21.907l-0.087,0.186
				c-2.34,4.899-3.526,8.256-3.526,9.967c0,3.855,3.136,6.99,6.992,6.99c3.859,0,6.994-3.135,6.994-6.99
				c0-1.711-1.186-5.066-3.525-9.967l-0.09-0.186L68.57,49.293l8.22,16.113l-0.082,0.17c-1.85,3.896-2.791,6.604-2.791,8.041
				c0,3.396,2.765,6.16,6.161,6.16c3.4,0,6.161-2.764,6.161-6.16c0-1.453-0.955-4.199-2.847-8.154l-0.076-0.154l5.634-13.62
				c0.63-1.515-0.092-3.259-1.61-3.888c-0.359-0.148-0.742-0.223-1.132-0.223c-1.211,0-2.292,0.72-2.75,1.837l-3.65,8.811
				L72.31,43.529l0.097-0.178c4.484-8.37,6.854-14.204,6.854-16.869c0-5.388-4.728-9.771-10.536-9.771
				c-5.805,0-10.528,4.383-10.528,9.771c0,2.649,2.35,8.442,6.793,16.752l0.1,0.189L52.527,65.181L39.98,43.444l0.103-0.187
				c4.449-8.321,6.801-14.123,6.801-16.775c0-5.388-4.723-9.771-10.529-9.771s-10.531,4.383-10.531,9.771
				c0,2.665,2.371,8.499,6.854,16.869l0.096,0.176l-7.501,14.698l-3.646-8.811c-0.462-1.117-1.541-1.84-2.75-1.84
				c-0.391,0-0.774,0.077-1.136,0.229c-1.516,0.626-2.24,2.37-1.611,3.885l5.636,13.62l-0.074,0.154
				c-1.891,3.957-2.848,6.701-2.848,8.154c0,3.396,2.763,6.16,6.16,6.16c3.399,0,6.162-2.764,6.162-6.16
				c0-1.438-0.94-4.143-2.793-8.041l-0.082-0.171L36.499,49.317z M52.527,82.417c-0.562,0-1.04-0.459-1.044-1
				c0.033-0.361,0.282-1.156,0.688-2.219l0.356-0.945l0.359,0.939c0.403,1.057,0.652,1.838,0.683,2.145
				C53.57,81.951,53.103,82.417,52.527,82.417z M36.355,37.526l-0.344-0.686c-2.573-5.136-4.237-9.2-4.237-10.358
				c0-2.106,2.056-3.82,4.581-3.82s4.58,1.714,4.58,3.82c0,1.156-1.663,5.223-4.238,10.358L36.355,37.526z M36.355,23.429
				c-2.104,0-3.812,1.37-3.812,3.054c0,0.798,1.195,4.038,3.812,9.325c2.617-5.289,3.813-8.53,3.813-9.325
				C40.167,24.799,38.456,23.429,36.355,23.429z M68.724,37.526l-0.341-0.686c-2.573-5.136-4.236-9.202-4.236-10.358
				c0-2.106,2.056-3.82,4.577-3.82c2.528,0,4.584,1.714,4.584,3.82c0,1.156-1.662,5.223-4.237,10.358L68.724,37.526z M68.724,23.429
				c-2.099,0-3.81,1.37-3.81,3.054c0,0.795,1.196,4.036,3.81,9.325c2.617-5.289,3.814-8.53,3.814-9.325
				C72.538,24.799,70.827,23.429,68.724,23.429z"/>
		</g>
		<g>
			<path d="M86.84,49.015c-0.202-0.085-0.417-0.126-0.633-0.126c-0.677,0-1.282,0.403-1.539,1.026L79.93,61.353l-9.103-17.841
				c2.145-3.967,7.119-13.53,7.119-17.029c0-4.664-4.136-8.459-9.223-8.459c-5.08,0-9.215,3.795-9.215,8.459
				c0,3.486,4.946,13.012,7.08,16.965L52.527,67.802L38.479,43.468c2.141-3.956,7.093-13.494,7.093-16.985
				c0-4.664-4.135-8.459-9.218-8.459s-9.219,3.795-9.219,8.459c0,3.499,4.971,13.063,7.118,17.029l-9.104,17.841l-4.735-11.436
				c-0.258-0.625-0.862-1.028-1.538-1.028c-0.218,0-0.432,0.041-0.633,0.126c-0.849,0.352-1.252,1.326-0.903,2.173l5.862,14.165
				c-1.142,2.342-3.048,6.514-3.048,8.266c0,2.674,2.175,4.848,4.849,4.848c2.676,0,4.849-2.174,4.849-4.848
				c0-1.746-1.893-5.896-3.027-8.228L36.43,46.57l14.202,24.602c-1.144,2.354-3.784,8.022-3.784,10.205
				c0,3.133,2.55,5.684,5.68,5.684c3.133,0,5.682-2.551,5.682-5.684c0-2.183-2.641-7.853-3.783-10.205l14.216-24.623l9.615,18.843
				c-1.135,2.33-3.03,6.48-3.03,8.229c0,2.67,2.176,4.846,4.851,4.846c2.675,0,4.85-2.176,4.85-4.846
				c0-1.758-1.908-5.927-3.048-8.267l5.859-14.165C88.092,50.341,87.688,49.366,86.84,49.015z M68.724,21.351
				c3.253,0,5.895,2.302,5.895,5.132c0,1.987-3.038,8.471-5.895,13.896c-2.851-5.426-5.888-11.907-5.888-13.896
				C62.836,23.652,65.479,21.351,68.724,21.351z M80.077,75.14c-0.838,0-1.522-0.684-1.522-1.52c0.01-0.508,0.582-2.088,1.522-4.238
				c0.94,2.15,1.512,3.73,1.522,4.236C81.6,74.457,80.915,75.14,80.077,75.14z M25.003,75.14c-0.839,0-1.521-0.684-1.521-1.52
				c0.012-0.508,0.58-2.088,1.521-4.238c0.944,2.148,1.511,3.73,1.524,4.236C26.527,74.457,25.843,75.14,25.003,75.14z
				 M36.355,21.351c3.25,0,5.891,2.302,5.891,5.132c0,1.987-3.038,8.471-5.891,13.896c-2.853-5.423-5.89-11.907-5.89-13.896
				C30.465,23.652,33.107,21.351,36.355,21.351z M52.527,83.729c-1.296,0-2.353-1.054-2.353-2.353c0-0.742,0.901-3.193,2.353-6.408
				c1.454,3.215,2.353,5.666,2.353,6.408C54.88,82.675,53.826,83.729,52.527,83.729z"/>
		</g>
		<g>
			<path d="M52.541,105.082C23.569,105.082,0,81.513,0,52.539C0,23.57,23.569,0,52.541,0c28.969,0,52.54,23.57,52.54,52.539
				C105.081,81.513,81.51,105.082,52.541,105.082z M52.541,4.38c-26.556,0-48.159,21.604-48.159,48.159
				c0,26.557,21.604,48.164,48.159,48.164s48.158-21.606,48.158-48.164C100.699,25.984,79.096,4.38,52.541,4.38z"/>
		</g>
	</g>
	<g>
		<g>
			<path d="M157.898,45.31c0,0.072,0,0.139,0,0.198c0,0.292-0.051,0.569-0.158,0.831c-0.113,0.259-0.262,0.484-0.457,0.672
				c-0.2,0.188-0.422,0.341-0.678,0.455c-0.252,0.114-0.522,0.174-0.815,0.174c-0.549,0-1.021-0.178-1.421-0.529
				s-0.643-0.79-0.715-1.311v0.036l-2.271-14.274c-0.016-0.072-0.041-0.134-0.082-0.182c-0.041-0.049-0.098-0.064-0.158-0.047
				c-0.058,0.021-0.123,0.072-0.195,0.164c-0.071,0.09-0.153,0.241-0.235,0.447l-6.337,13.873c-0.012,0.014-0.021,0.023-0.021,0.038
				c-0.011,0.011-0.016,0.024-0.016,0.037s-0.01,0.029-0.021,0.054l-0.092,0.164c-0.063,0.134-0.139,0.285-0.227,0.454
				c-0.092,0.172-0.193,0.339-0.309,0.502c-0.117,0.162-0.24,0.299-0.373,0.409c-0.14,0.107-0.262,0.164-0.387,0.164
				c-0.123,0-0.234-0.044-0.354-0.129c-0.118-0.084-0.227-0.194-0.328-0.328c-0.104-0.131-0.2-0.277-0.293-0.437
				c-0.092-0.156-0.164-0.302-0.227-0.438l-6.479-14.6c-0.082-0.172-0.159-0.277-0.226-0.321c-0.072-0.041-0.129-0.046-0.176-0.017
				c-0.051,0.03-0.092,0.081-0.127,0.155c-0.037,0.072-0.063,0.146-0.072,0.219l-2.551,14.238v0.035
				c-0.123,0.488-0.373,0.878-0.748,1.176c-0.373,0.297-0.813,0.446-1.326,0.446c-0.287,0-0.568-0.06-0.83-0.174
				c-0.258-0.114-0.487-0.267-0.684-0.455c-0.19-0.188-0.345-0.413-0.466-0.672c-0.112-0.262-0.166-0.539-0.166-0.831
				c0-0.06,0.002-0.121,0.006-0.182c0.007-0.062,0.011-0.121,0.011-0.181l0.034-0.128l4.856-24.836
				c0.016-0.037,0.041-0.09,0.076-0.162c0.041-0.074,0.088-0.149,0.145-0.221c0.063-0.072,0.145-0.138,0.241-0.2
				c0.093-0.06,0.21-0.092,0.344-0.092c0.106,0,0.226,0.026,0.345,0.075c0.098,0.038,0.205,0.1,0.308,0.192
				c0.112,0.088,0.204,0.218,0.276,0.391l0.017,0.017l8.157,18.446c0.017,0.023,0.041,0.062,0.088,0.118
				c0.035,0.054,0.087,0.096,0.139,0.127c0.057,0.03,0.118,0.034,0.186,0.009c0.065-0.024,0.133-0.11,0.188-0.254
				c0.026-0.025,0.036-0.049,0.036-0.074l8.451-18.425c0.062-0.159,0.144-0.28,0.256-0.364c0.107-0.085,0.211-0.144,0.309-0.182
				c0.123-0.049,0.235-0.075,0.344-0.075c0.133,0,0.246,0.028,0.35,0.085c0.093,0.054,0.175,0.117,0.236,0.19
				c0.062,0.072,0.106,0.146,0.144,0.218c0.041,0.074,0.058,0.135,0.058,0.182l4.387,24.928
				C157.889,45.169,157.898,45.235,157.898,45.31z"/>
		</g>
		<g>
			<path d="M187.109,44.8c0.106,0.255,0.147,0.522,0.134,0.799c-0.021,0.281-0.089,0.545-0.211,0.794
				c-0.123,0.249-0.282,0.47-0.487,0.664c-0.21,0.192-0.445,0.347-0.713,0.454c-0.257,0.098-0.52,0.142-0.796,0.129
				c-0.271-0.013-0.528-0.074-0.771-0.183c-0.24-0.11-0.461-0.262-0.646-0.456c-0.188-0.192-0.339-0.419-0.446-0.673l-0.107-0.201
				l-1.93-4.55c-0.041-0.074-0.087-0.154-0.158-0.238c-0.066-0.085-0.139-0.17-0.227-0.254c-0.087-0.085-0.186-0.155-0.303-0.211
				c-0.112-0.054-0.246-0.079-0.391-0.079h-10.637c-0.24,0-0.445,0.077-0.609,0.235c-0.16,0.157-0.287,0.309-0.369,0.454
				l-2.258,4.897c-0.16,0.378-0.41,0.678-0.75,0.901c-0.338,0.226-0.719,0.338-1.145,0.338c-0.292,0-0.561-0.056-0.811-0.164
				c-0.252-0.11-0.467-0.258-0.646-0.446c-0.186-0.188-0.328-0.405-0.438-0.656c-0.111-0.247-0.164-0.519-0.164-0.809
				c0-0.281,0.047-0.523,0.145-0.729l0.094-0.22l11.18-24.07c0.025-0.048,0.072-0.128,0.148-0.238
				c0.066-0.108,0.159-0.218,0.271-0.336c0.107-0.116,0.23-0.214,0.38-0.3c0.144-0.085,0.313-0.128,0.493-0.128
				c0.193,0,0.369,0.057,0.527,0.164c0.153,0.11,0.287,0.233,0.396,0.364c0.139,0.159,0.252,0.336,0.35,0.529l10.894,24.2V44.8
				L187.109,44.8z M178.15,36.787c0.216,0,0.369-0.043,0.451-0.128s0.133-0.177,0.145-0.271c0.016-0.122-0.005-0.257-0.053-0.4
				l-3.678-8.451c-0.058-0.12-0.119-0.166-0.164-0.136c-0.053,0.031-0.088,0.064-0.107,0.102l-3.879,8.521
				c-0.016,0.036-0.026,0.098-0.036,0.183c-0.017,0.085-0.011,0.167,0.005,0.244c0.021,0.079,0.072,0.151,0.148,0.218
				c0.076,0.069,0.199,0.11,0.375,0.12h6.804h-0.011V36.787z"/>
		</g>
		<g>
			<path d="M214.016,23.022c0.098,0.098,0.164,0.176,0.19,0.237c0.035,0.059,0.071,0.077,0.118,0.054
				c0.158,0.195,0.271,0.396,0.328,0.601c0.062,0.206,0.092,0.438,0.092,0.692c0,0.277-0.051,0.544-0.164,0.792
				c-0.107,0.25-0.256,0.463-0.446,0.645c-0.188,0.183-0.405,0.329-0.651,0.438c-0.252,0.112-0.514,0.163-0.795,0.163
				c-0.242,0-0.461-0.021-0.662-0.064c-0.205-0.041-0.391-0.146-0.574-0.315v-0.018c-2.088-2.197-4.541-3.297-7.357-3.297
				c-2.955,0-5.47,1.026-7.517,3.076c-2.032,2.051-3.043,4.595-3.043,7.63c0,3.145,1.129,5.736,3.387,7.775
				c2.113,1.894,4.401,2.84,6.865,2.84c2.088,0,3.971-0.71,5.644-2.129c1.479-1.263,2.387-2.757,2.715-4.479
				c0.016-0.11-0.011-0.241-0.071-0.393c-0.066-0.151-0.226-0.229-0.492-0.229h-4.372v-0.018h-0.016
				c-0.282,0-0.545-0.052-0.785-0.154c-0.24-0.103-0.456-0.246-0.637-0.428c-0.185-0.183-0.328-0.396-0.431-0.639
				c-0.103-0.241-0.153-0.502-0.153-0.783c0-0.264,0.051-0.521,0.153-0.765c0.103-0.24,0.246-0.454,0.431-0.636
				c0.181-0.185,0.396-0.324,0.637-0.429c0.24-0.103,0.503-0.153,0.785-0.153h0.216h8.409c0.281,0,0.519,0.092,0.714,0.282
				c0.194,0.187,0.303,0.416,0.327,0.682c0,2.102-0.25,3.964-0.748,5.591c-0.482,1.516-1.309,2.93-2.475,4.243
				c-2.627,2.96-5.955,4.443-9.994,4.443c-3.945,0-7.338-1.429-10.158-4.279c-2.822-2.865-4.229-6.308-4.229-10.326
				c0-4.089,1.437-7.568,4.315-10.431c2.863-2.866,6.347-4.3,10.451-4.3c2.187,0,4.248,0.452,6.192,1.347
				c0.313,0.159,0.683,0.387,1.108,0.685c0.426,0.297,0.836,0.592,1.23,0.882c0.396,0.293,0.729,0.552,1.012,0.782
				C213.842,22.87,213.995,22.997,214.016,23.022z"/>
		</g>
		<g>
			<path d="M226.27,45.491c0,0.291-0.053,0.567-0.164,0.827c-0.108,0.264-0.258,0.49-0.453,0.683
				c-0.193,0.194-0.42,0.346-0.676,0.456c-0.252,0.108-0.529,0.164-0.815,0.164c-0.293,0-0.563-0.063-0.821-0.192
				c-0.257-0.125-0.482-0.296-0.672-0.51c-0.195-0.211-0.35-0.452-0.457-0.719c-0.113-0.267-0.169-0.547-0.18-0.838V21.657v-0.055
				c0-0.293,0.052-0.567,0.164-0.829c0.107-0.26,0.257-0.487,0.441-0.683c0.189-0.195,0.416-0.346,0.678-0.455
				c0.256-0.112,0.533-0.166,0.824-0.166c0.293,0,0.57,0.058,0.826,0.174c0.268,0.115,0.493,0.27,0.688,0.463
				c0.195,0.194,0.345,0.422,0.453,0.684c0.111,0.262,0.164,0.537,0.164,0.828v0.037V45.36V45.491z"/>
		</g>
		<g>
			<path d="M255.854,44.8c0.119,0.255,0.16,0.522,0.145,0.799c-0.021,0.281-0.094,0.545-0.21,0.794
				c-0.123,0.249-0.288,0.47-0.493,0.664c-0.21,0.192-0.441,0.347-0.713,0.454c-0.252,0.098-0.514,0.142-0.79,0.129
				c-0.272-0.013-0.534-0.074-0.774-0.183c-0.242-0.11-0.457-0.262-0.642-0.456c-0.19-0.192-0.339-0.419-0.452-0.673l-0.104-0.201
				l-1.934-4.55c-0.035-0.074-0.088-0.154-0.158-0.238c-0.063-0.085-0.14-0.17-0.222-0.254c-0.088-0.085-0.19-0.155-0.303-0.211
				c-0.118-0.054-0.247-0.079-0.396-0.079h-10.631c-0.242,0-0.441,0.077-0.611,0.235c-0.164,0.157-0.287,0.309-0.369,0.454
				l-2.258,4.897c-0.164,0.378-0.41,0.678-0.75,0.901c-0.338,0.226-0.724,0.338-1.148,0.338c-0.287,0-0.559-0.056-0.811-0.164
				c-0.246-0.11-0.463-0.258-0.643-0.446c-0.186-0.188-0.328-0.405-0.436-0.656c-0.113-0.247-0.17-0.519-0.17-0.809
				c0-0.281,0.047-0.523,0.148-0.729l0.088-0.22l11.18-24.07c0.025-0.048,0.078-0.128,0.148-0.238
				c0.072-0.108,0.159-0.218,0.271-0.336c0.113-0.116,0.236-0.214,0.38-0.3c0.149-0.085,0.313-0.128,0.493-0.128
				c0.193,0,0.373,0.057,0.533,0.164c0.153,0.11,0.293,0.233,0.396,0.364c0.14,0.159,0.251,0.336,0.349,0.529l10.883,24.2V44.8
				H255.854z M246.9,36.787c0.221,0,0.369-0.043,0.455-0.128c0.082-0.085,0.135-0.177,0.145-0.271
				c0.012-0.122-0.005-0.257-0.057-0.4l-3.68-8.451c-0.056-0.12-0.111-0.166-0.152-0.136c-0.057,0.031-0.094,0.064-0.118,0.102
				l-3.88,8.521c-0.01,0.036-0.025,0.098-0.035,0.183s-0.006,0.167,0.01,0.244c0.021,0.079,0.066,0.151,0.145,0.218
				c0.082,0.069,0.205,0.11,0.379,0.12h6.805H246.9V36.787z"/>
		</g>
	</g>
	<g>
		<g>
			<path d="M268.747,33.401c0-3.959,1.449-7.356,4.349-10.194c2.894-2.844,6.362-4.265,10.421-4.265c3.998,0,7.436,1.433,10.299,4.3
				c2.883,2.863,4.319,6.307,4.319,10.323c0,4.043-1.446,7.472-4.336,10.287c-2.897,2.827-6.403,4.241-10.508,4.241
				c-3.628,0-6.886-1.256-9.774-3.77C270.338,41.544,268.747,37.901,268.747,33.401z M273.024,33.447
				c0,3.104,1.047,5.657,3.136,7.655c2.071,2.001,4.469,3.002,7.188,3.002c2.949,0,5.438-1.017,7.465-3.056
				c2.026-2.061,3.043-4.574,3.043-7.529c0-2.997-1.006-5.506-3.002-7.532c-1.99-2.036-4.459-3.056-7.398-3.056
				c-2.92,0-5.393,1.02-7.409,3.056C274.028,28.001,273.024,30.487,273.024,33.447z"/>
		</g>
		<g>
			<path d="M319.628,35.148c0.889,1.275,1.329,2.736,1.329,4.391c0,2.194-0.78,4.053-2.335,5.568
				c-0.463,0.459-0.954,0.854-1.482,1.184c-0.527,0.328-1.082,0.584-1.662,0.765c-0.646,0.169-1.359,0.298-2.149,0.385
				s-1.667,0.128-2.644,0.128h-5.443c-0.252-0.025-0.467-0.128-0.651-0.313c-0.185-0.184-0.287-0.394-0.313-0.637V20.472
				c0.025-0.268,0.135-0.493,0.324-0.684c0.185-0.185,0.416-0.281,0.696-0.281h3.187c1.895,0,3.388,0.146,4.479,0.436
				c1.118,0.293,2.067,0.785,2.858,1.479c0.385,0.354,0.738,0.75,1.045,1.201c0.31,0.448,0.586,0.938,0.832,1.473
				c0.457,1.093,0.688,2.181,0.688,3.261c0,2.039-0.76,3.737-2.294,5.099C317.569,32.976,318.751,33.873,319.628,35.148z
				 M308.499,30.615c0.025,0.241,0.128,0.446,0.303,0.618c0.176,0.169,0.381,0.265,0.631,0.29h0.4c1.574,0,2.729-0.344,3.458-1.036
				s1.093-1.726,1.093-3.097c0-1.299-0.379-2.295-1.128-2.986c-0.375-0.352-0.837-0.605-1.381-0.765
				c-0.533-0.156-1.164-0.233-1.884-0.233h-0.637c-0.25,0.021-0.455,0.127-0.6,0.309c-0.148,0.183-0.23,0.399-0.257,0.656
				L308.499,30.615L308.499,30.615z M315.344,42.449c0.949-0.813,1.427-1.844,1.427-3.096c0-1.201-0.457-2.215-1.365-3.04
				c-0.887-0.813-2.473-1.22-4.75-1.22h-1.17c-0.252,0.011-0.479,0.104-0.662,0.271c-0.189,0.17-0.299,0.383-0.323,0.637v6.681
				c0.024,0.235,0.118,0.435,0.282,0.604c0.164,0.172,0.369,0.273,0.609,0.311h1.734C313.024,43.597,314.437,43.214,315.344,42.449z
				"/>
		</g>
		<g>
			<path d="M344.065,44.068c0.154,0.186,0.283,0.391,0.375,0.621s0.14,0.484,0.14,0.766c0,0.291-0.058,0.563-0.17,0.819
				c-0.107,0.252-0.257,0.474-0.451,0.662s-0.427,0.339-0.683,0.457c-0.262,0.118-0.539,0.174-0.832,0.174
				c-0.375,0-0.719-0.092-1.041-0.276c-0.309-0.18-0.56-0.429-0.738-0.744l-6.994-10.016c-0.025-0.046-0.107-0.136-0.246-0.262
				c-0.145-0.128-0.292-0.2-0.467-0.211c-0.107,0-0.195,0.052-0.271,0.154c-0.072,0.103-0.113,0.308-0.129,0.609v8.502v0.129v0.092
				v0.037c-0.021,0.276-0.092,0.539-0.205,0.781c-0.117,0.241-0.271,0.454-0.455,0.629c-0.19,0.176-0.406,0.313-0.658,0.416
				c-0.25,0.107-0.518,0.158-0.811,0.158s-0.564-0.057-0.811-0.164c-0.246-0.111-0.473-0.256-0.668-0.438
				c-0.194-0.184-0.338-0.397-0.451-0.646c-0.107-0.249-0.169-0.521-0.18-0.813v-0.069v-25c0-0.293,0.098-0.539,0.297-0.735
				c0.201-0.203,0.438-0.307,0.725-0.32h3.945c3.726,0,6.424,0.707,8.092,2.113c1.816,1.564,2.725,3.616,2.725,6.153
				c0,1.987-0.574,3.708-1.729,5.151c-0.923,1.178-2.1,2.004-3.529,2.477c-0.123,0.035-0.227,0.074-0.313,0.111
				c-0.082,0.037-0.154,0.072-0.217,0.109c-0.062,0.034-0.106,0.065-0.127,0.092c-0.088,0.117-0.088,0.267,0,0.437L344.065,44.068z
				 M333.923,32.324c4.018,0,6.027-1.533,6.027-4.605c0-2.885-1.953-4.332-5.863-4.332h-0.508c-0.277,0.01-0.514,0.113-0.708,0.303
				c-0.195,0.188-0.298,0.421-0.313,0.697v6.957c0.026,0.277,0.129,0.509,0.313,0.689c0.185,0.184,0.405,0.281,0.672,0.293h0.38
				V32.324z"/>
		</g>
		<g>
			<path d="M373.181,21.492v16.133c0,2.961-0.936,5.428-2.808,7.394c-2.063,2.135-4.628,3.207-7.696,3.207
				c-3.074,0-5.64-1.072-7.707-3.207c-1.857-1.942-2.785-4.407-2.785-7.394V21.492c0-0.291,0.057-0.564,0.174-0.818
				c0.112-0.256,0.271-0.479,0.463-0.674c0.193-0.194,0.42-0.347,0.677-0.457c0.252-0.107,0.528-0.164,0.821-0.164
				c0.287,0,0.563,0.057,0.826,0.164c0.262,0.11,0.486,0.263,0.683,0.457c0.188,0.194,0.349,0.418,0.461,0.674
				c0.118,0.254,0.175,0.527,0.175,0.818v14.946c0,2.417,0.396,4.196,1.186,5.336c1.201,1.627,2.879,2.44,5.028,2.44
				c2.171,0,3.839-0.813,5.003-2.44c0.815-1.079,1.221-2.856,1.221-5.336V21.492c0-0.291,0.052-0.564,0.164-0.818
				c0.107-0.256,0.258-0.479,0.451-0.674c0.2-0.194,0.422-0.347,0.678-0.457c0.258-0.107,0.523-0.164,0.822-0.164
				c0.303,0,0.584,0.057,0.846,0.164c0.257,0.11,0.481,0.263,0.683,0.457c0.194,0.194,0.345,0.418,0.452,0.674
				c0.107,0.254,0.164,0.527,0.164,0.818H373.181z"/>
		</g>
		<g>
			<path d="M395.935,34.253c1.043,1.301,1.565,2.93,1.565,4.881c0,2.574-0.853,4.709-2.565,6.412
				c-1.733,1.697-3.879,2.547-6.443,2.547c-2.453,0-4.469-0.729-6.045-2.184c-1.066-0.975-1.862-2.227-2.391-3.771h0.02
				c-0.086-0.206-0.122-0.437-0.122-0.693c0-0.29,0.057-0.565,0.17-0.825c0.116-0.263,0.271-0.492,0.467-0.686
				c0.194-0.191,0.42-0.348,0.683-0.465c0.262-0.112,0.539-0.174,0.826-0.174c0.514,0,0.954,0.152,1.328,0.455
				c0.375,0.304,0.626,0.688,0.744,1.149c0.186,0.621,0.396,1.078,0.637,1.384c0.877,1.213,2.154,1.818,3.827,1.818
				c1.324,0,2.423-0.441,3.3-1.329c0.873-0.883,1.309-2.006,1.309-3.366c0-0.533-0.071-1.031-0.221-1.492
				c-0.071-0.23-0.17-0.451-0.287-0.656c-0.123-0.205-0.262-0.405-0.422-0.602c-0.168-0.193-0.358-0.38-0.563-0.554
				c-0.21-0.175-0.437-0.349-0.692-0.519c-0.257-0.176-0.533-0.34-0.836-0.492c-0.303-0.159-0.632-0.313-0.984-0.457l-2.694-1.129
				c-3.832-1.613-5.752-3.991-5.752-7.137c0-2.1,0.796-3.858,2.401-5.281c1.615-1.43,3.627-2.148,6.029-2.148
				c2.369,0,4.355,0.848,5.973,2.532c0.226,0.194,0.41,0.423,0.543,0.68c0.134,0.263,0.199,0.552,0.199,0.867
				c0,0.278-0.051,0.539-0.152,0.785c-0.104,0.241-0.246,0.45-0.432,0.636c-0.18,0.18-0.396,0.323-0.631,0.426
				c-0.246,0.104-0.504,0.154-0.771,0.154c-0.313,0-0.61-0.064-0.882-0.2c-0.272-0.134-0.498-0.317-0.684-0.563
				c-0.148-0.17-0.287-0.313-0.426-0.437c-0.145-0.118-0.282-0.228-0.432-0.309c-0.605-0.39-1.385-0.582-2.33-0.582
				c-1.2,0-2.176,0.333-2.93,1.001c-0.779,0.652-1.17,1.479-1.17,2.477c0,1.371,1.016,2.475,3.043,3.313l2.807,1.144
				C393.231,31.806,394.89,32.935,395.935,34.253z"/>
		</g>
	</g>
	<g>
		<path d="M151.723,76.769c-0.438-1.122-4.237-1.56-5.358-1.656c-2.583-0.245-5.604-0.146-8.575,0.146
			c-4.19,6.627-7.988,13.251-9.6,17.102c-0.486,1.022-1.022,0.486-0.389-1.364c0.976-2.826,4.678-9.208,8.625-15.64
			c-1.414,0.194-2.827,0.388-4.143,0.633c-10.817,1.901-13.886,6.188-11.157,8.233c0.34,0.244-0.292,0.293-0.536,0.048
			c-4.385-3.36-2.241-9.888,9.892-12.032c2.729-0.488,5.555-0.782,8.38-0.731c4.578-7.113,8.868-13.351,9.402-13.351
			c0.392,0,1.562-0.291,0.342,1.267c-2.485,3.313-5.506,7.649-8.431,12.132c1.511,0.098,3.022,0.294,4.532,0.587
			c2.338,0.485,6.87,1.703,7.309,4.529C152.065,77.159,151.821,77.06,151.723,76.769z M148.75,86.464
			c-0.486,1.024-1.021,0.486-0.389-1.364c2.291-6.578,18.369-31.475,19.44-31.475c0.39,0,1.559-0.292,0.342,1.267
			C161.272,63.905,151.821,79.252,148.75,86.464z"/>
		<path d="M173.064,85.246c-4.386,1.999-6.284-0.779-4.822-4.143l0.341-0.827c-1.706,2.096-3.362,3.411-5.066,4.436
			c-6.773,3.993-9.647-2.485-3.753-8.771c3.167-3.361,8.915-5.311,12.082-3.41c1.169,0.732,1.609,1.267,1.903,2.097
			c0.924,0,3.165,0.632,1.606,2.58c-0.487,0.635-1.803,2.096-2.777,3.558c-1.9,2.776-2.047,5.016,1.947,2.728
			c2.389-1.363,5.849-4.239,7.554-5.846c0.584-0.586,0.876-0.049,0.438,0.39C179.935,80.472,176.183,83.833,173.064,85.246z
			 M163.953,77.549c-6.625,7.794-3.217,9.841,3.703,2.823c0.829-0.876,6.481-5.648,4.728-6.818
			C170.823,72.48,167.023,73.943,163.953,77.549z"/>
		<path d="M193.04,85.1c-3.506,1.704-6.091,0.486-4.726-3.313c0.928-2.633,3.509-5.457,5.02-7.161
			c1.949-2.146-0.731-2.535-4.239,1.168c-2.68,2.826-4.385,6.285-6.969,9.111c-0.68,0.78-1.216,1.219-1.948,1.219
			c-0.681,0.049-1.704-0.195-2.678-1.024c1.071-1.462,3.798-4.728,5.748-7.746c-1.023,1.022-2.338,2.288-3.557,3.264
			c-0.537,0.438-0.927-0.049-0.146-0.731c1.804-1.607,4.338-3.701,5.408-5.896c0.342-0.777,0.245-1.656,0-1.85
			c-0.488-0.392-0.098-1.123,0.633-0.733c0.634,0.293,1.316,0.927,1.463,2.243c0.146,1.121-0.049,2.729-0.829,4.773
			c0.975-1.266,1.997-2.583,2.875-3.557c4.482-5.019,9.401-2.581,7.405,1.706c-0.34,0.78-1.95,3.118-3.215,4.872
			c-2.289,3.021-0.731,3.314,1.314,1.949c1.608-1.121,3.752-3.022,5.165-4.337c0.537-0.536,0.682,0.194,0.292,0.584
			C198.109,81.446,195.524,83.929,193.04,85.1z"/>
		<path d="M218.572,73.844c-3.851,5.556-7.358,13.449-5.214,16.03c0.195,0.244-0.097,0.39-0.243,0.293
			c-2.046-1.707-1.802-5.407-0.536-9.55c-1.217,1.559-2.875,3.312-4.239,4.482c-3.312,2.729-8.721,2.241-8.77-2.778
			c-0.048-0.924,0.146-1.802,0.438-2.68c-0.39,0.341-0.729,0.682-1.072,0.927c-0.534,0.438-0.975-0.097-0.196-0.779
			c0.83-0.683,1.95-2.047,3.268-3.459c2.386-2.632,6.09-4.386,9.403-4.239c2.436,0.05,3.554,1.171,3.554,2.487
			c2.438-5.167,5.507-10.041,7.065-11.794c1.415-1.607,4.29-1.607,5.945-0.195C226.709,63.419,221.934,68.974,218.572,73.844z
			 M213.506,75.598c1.216-2.239,0-3.02-2.388-2.094c-3.021,1.17-6.626,5.116-7.212,8.233c-0.488,2.974,0.877,6.042,7.456-0.635
			c0.925-0.876,1.412-1.558,1.801-2.189c0.294-0.878,0.634-1.707,1.024-2.583C213.65,76.72,213.066,76.428,213.506,75.598z"/>
		<path d="M234.943,85.832c-1.9-0.098-3.117-1.316-2.144-4.288c0.682-1.998,3.946-5.604,5.505-7.357
			c1.949-2.192-1.412-2.095-4.871,1.608c-1.997,2.096-4.142,6.091-4.97,8.524c-0.537,1.561-2.826,0.733-2.388-0.049
			c1.607-2.872,3.263-5.552,4.581-8.623c2.143-4.871-1.414-2.825-3.218-0.68c-1.559,1.85-3.068,4.285-4.092,6.088
			c-0.876,1.364-1.705,2.681-2.826,3.851c-0.683,0.78-1.219,1.219-1.948,1.219c-0.683,0.049-1.706-0.195-2.681-1.024
			c1.072-1.462,3.801-4.728,5.75-7.746c-1.023,1.022-2.34,2.288-3.557,3.264c-0.536,0.438-0.925-0.049-0.146-0.731
			c1.802-1.607,4.335-3.701,5.407-5.896c0.341-0.777,0.243-1.656,0-1.85c-0.485-0.392-0.097-1.123,0.633-0.733
			c0.634,0.293,1.315,0.927,1.461,2.243c0.146,1.121-0.048,2.388-0.485,3.703c0.682-1.072,1.413-2.096,2.095-2.972
			c2.875-3.655,6.87-3.558,4.775,1.265c-0.342,0.781-0.877,1.854-1.463,2.925c1.121-1.461,2.29-2.925,3.168-3.848
			c4.676-4.826,9.355-2.438,7.404,1.85c-0.39,0.78-1.947,3.118-3.264,4.872c-2.242,3.021-0.926,3.46,1.121,2.095
			c1.704-1.169,4.142-3.217,5.556-4.579c0.485-0.488,0.925,0,0.535,0.341C242.154,81.885,237.77,86.025,234.943,85.832z"/>
		<path d="M260.181,85.246c-4.384,1.999-6.284-0.779-4.823-4.143l0.343-0.827c-1.707,2.096-3.361,3.411-5.067,4.436
			c-6.773,3.993-9.647-2.485-3.752-8.771c3.166-3.361,8.916-5.311,12.084-3.41c1.169,0.732,1.608,1.267,1.899,2.097
			c0.925,0,3.167,0.632,1.607,2.58c-0.487,0.635-1.803,2.096-2.777,3.558c-1.899,2.776-2.044,5.016,1.948,2.728
			c2.389-1.363,5.848-4.239,7.553-5.846c0.585-0.586,0.876-0.049,0.439,0.39C267.053,80.472,263.3,83.833,260.181,85.246z
			 M251.071,77.549c-6.626,7.794-3.217,9.841,3.701,2.823c0.83-0.876,6.48-5.648,4.727-6.818
			C257.94,72.48,254.143,73.943,251.071,77.549z"/>
		<path d="M286.492,73.844c-3.85,5.556-7.357,13.449-5.212,16.03c0.193,0.244-0.099,0.39-0.244,0.293
			c-2.047-1.707-1.804-5.407-0.537-9.55c-1.218,1.559-2.874,3.312-4.239,4.482c-3.312,2.729-8.721,2.241-8.769-2.778
			c-0.049-0.924,0.146-1.802,0.438-2.68c-0.391,0.341-0.731,0.682-1.072,0.927c-0.536,0.438-0.976-0.097-0.194-0.779
			c0.828-0.683,1.948-2.047,3.264-3.459c2.388-2.632,6.091-4.386,9.403-4.239c2.436,0.05,3.557,1.171,3.557,2.487
			c2.437-5.167,5.505-10.041,7.065-11.794c1.41-1.607,4.287-1.607,5.943-0.195C294.628,63.419,289.854,68.974,286.492,73.844z
			 M281.426,75.598c1.217-2.239,0-3.02-2.39-2.094c-3.019,1.17-6.626,5.116-7.209,8.233c-0.487,2.974,0.876,6.042,7.454-0.635
			c0.925-0.876,1.413-1.558,1.803-2.189c0.293-0.878,0.635-1.707,1.024-2.583C281.571,76.72,280.986,76.428,281.426,75.598z"/>
		<path d="M291.415,86.367c-2.876,0-4.971-1.413-5.021-4.045c-0.047-5.797,6.432-10.425,11.84-10.23
			c4.971,0.146,4.678,4.239,0.097,6.431c-1.461,0.683-3.653,1.268-5.018,1.219c-0.828-0.049-0.925-0.438,0.05-0.438
			c0.826,0,2.873-0.487,4.578-1.363c4.485-2.438,2.485-5.459-0.924-3.898c-2.632,1.218-5.701,4.726-6.238,7.697
			c-0.341,1.9,0.487,3.362,2.438,3.314c3.41-0.049,9.402-5.069,11.694-7.261c0.728-0.731,0.728,0.147,0.292,0.536
			C301.5,81.738,296.772,86.318,291.415,86.367z"/>
	</g>
</g>
</svg>
