<?xml version="1.0" encoding="utf-8"?>
<!-- Generator: Adobe Illustrator 16.0.3, SVG Export Plug-In . SVG Version: 6.00 Build 0)  -->
<!DOCTYPE svg PUBLIC "-//W3C//DTD SVG 1.1//EN" "http://www.w3.org/Graphics/SVG/1.1/DTD/svg11.dtd">
<svg version="1.1" id="Layer_1" xmlns="http://www.w3.org/2000/svg" xmlns:xlink="http://www.w3.org/1999/xlink" x="0px" y="0px"
	 width="256px" height="105.081px" viewBox="0 0 256 105.081" enable-background="new 0 0 256 105.081" xml:space="preserve">
<g>
	<g>
		<g>
			<path d="M52.53,92.339c-6.044,0-10.959-4.921-10.959-10.963c0-0.941,0-3.119,3.109-9.956l-7.963-13.797l-4.015,7.865
				c2.432,5.413,2.432,7.24,2.432,8.13c0,5.585-4.543,10.126-10.128,10.126s-10.128-4.541-10.128-10.126c0-0.91,0-2.778,2.555-8.406
				l-4.967-12.006c-0.708-1.712-0.708-3.601,0-5.313c0.711-1.714,2.047-3.048,3.759-3.756c0.849-0.351,1.742-0.528,2.655-0.528
				c2.819,0,5.338,1.683,6.416,4.289l0.356,0.862l2.65-5.198c-6.442-12.312-6.444-15.767-6.444-17.08
				c0-7.575,6.506-13.738,14.5-13.738c7.994,0,14.498,6.163,14.498,13.738c0,1.303,0,4.728-6.34,16.88l8.015,13.881l8.028-13.903
				c-6.327-12.138-6.327-15.558-6.327-16.857c0-7.575,6.503-13.738,14.5-13.738c7.994,0,14.492,6.163,14.492,13.738
				c0,1.312,0,4.767-6.444,17.08l2.655,5.198l0.355-0.862c1.077-2.606,3.598-4.289,6.417-4.289c0.913,0,1.807,0.177,2.65,0.525
				c3.538,1.465,5.224,5.534,3.764,9.071l-4.967,12.006c2.555,5.628,2.555,7.496,2.555,8.406c0,5.585-4.546,10.126-10.128,10.126
				c-5.587,0-10.129-4.541-10.129-10.126c0-0.89,0-2.717,2.433-8.13l-4.026-7.886l-7.98,13.817c3.112,6.834,3.112,9.015,3.112,9.956
				C63.49,87.418,58.574,92.339,52.53,92.339z M36.599,53.067L47.13,71.307l-0.238,0.514c-3.146,6.809-3.146,8.805-3.146,9.556
				c0,4.844,3.941,8.784,8.784,8.784c4.844,0,8.784-3.94,8.784-8.784c0-0.751,0-2.75-3.146-9.556l-0.237-0.514l10.546-18.262
				l6.318,12.393l-0.216,0.477c-2.452,5.357-2.452,6.999-2.452,7.704c0,4.385,3.563,7.951,7.953,7.951
				c4.384,0,7.953-3.566,7.953-7.951c0-0.716,0-2.398-2.556-7.925l-0.199-0.436l5.33-12.885c1.006-2.428-0.153-5.221-2.583-6.227
				c-0.581-0.24-1.193-0.362-1.819-0.362c-1.937,0-3.667,1.157-4.406,2.945L79.64,53.95l-5.306-10.402l0.26-0.499
				c4.286-8.124,6.454-13.698,6.454-16.566c0-6.375-5.523-11.563-12.316-11.563c-6.798,0-12.324,5.188-12.324,11.563
				c0,1.06,0,4.284,6.354,16.378l0.28,0.53L52.53,61.597L42.033,43.411l0.279-0.53c6.368-12.106,6.368-15.337,6.368-16.398
				c0-6.375-5.529-11.563-12.322-11.563c-6.796,0-12.322,5.188-12.322,11.563c0,2.868,2.17,8.442,6.455,16.566l0.261,0.499
				L25.444,53.95l-2.16-5.221c-0.739-1.788-2.469-2.945-4.405-2.945c-0.629,0-1.242,0.122-1.822,0.363
				c-1.177,0.486-2.093,1.402-2.581,2.58c-0.49,1.175-0.49,2.47-0.003,3.647l5.331,12.883l-0.197,0.436
				c-2.555,5.531-2.555,7.209-2.555,7.925c0,4.385,3.567,7.951,7.953,7.951c4.385,0,7.953-3.566,7.953-7.951
				c0-0.703,0-2.347-2.453-7.704l-0.218-0.477L36.599,53.067z M68.731,33.537L67.733,31.3c-0.96-2.162-1.603-3.868-1.763-4.681
				l-0.046-0.234l0.057-0.233c0.201-0.824,1.233-1.697,2.75-1.697c1.511,0,2.545,0.873,2.742,1.694l0.06,0.234l-0.045,0.236
				c-0.161,0.813-0.805,2.519-1.77,4.681L68.731,33.537z M36.355,33.537L35.362,31.3c-0.961-2.162-1.604-3.868-1.765-4.681
				l-0.043-0.234l0.056-0.233c0.2-0.824,1.231-1.697,2.748-1.697c1.513,0,2.545,0.873,2.745,1.697l0.059,0.233l-0.046,0.234
				c-0.162,0.814-0.804,2.52-1.765,4.681L36.355,33.537z"/>
		</g>
		<g>
			<path d="M52.527,89.137c-4.279,0-7.76-3.483-7.76-7.761c0-1.803,1.183-5.207,3.515-10.115L36.542,50.923l-7.399,14.494
				c1.851,3.909,2.789,6.67,2.789,8.201c0,3.82-3.109,6.93-6.929,6.93s-6.928-3.109-6.928-6.93c0-1.547,0.958-4.354,2.849-8.33
				l-5.505-13.306c-0.788-1.906,0.121-4.1,2.027-4.89c0.459-0.189,0.939-0.284,1.431-0.284c1.521,0,2.878,0.907,3.461,2.313
				l3.009,7.271l6.56-12.857c-3.148-5.892-6.85-13.563-6.85-17.054c0-5.811,5.069-10.54,11.298-10.54s11.298,4.729,11.298,10.54
				c0,3.474-3.671,11.093-6.793,16.949l11.667,20.21l11.684-20.232c-3.118-5.85-6.782-13.459-6.782-16.927
				c0-5.811,5.068-10.54,11.295-10.54c6.232,0,11.302,4.729,11.302,10.54c0,3.491-3.7,11.162-6.851,17.055l6.56,12.856l3.011-7.274
				c0.581-1.403,1.936-2.31,3.462-2.31c0.489,0,0.968,0.094,1.427,0.283c1.908,0.789,2.818,2.983,2.031,4.89l-5.508,13.306
				c1.889,3.977,2.851,6.781,2.851,8.33c0,3.82-3.109,6.93-6.931,6.93s-6.931-3.109-6.931-6.93c0-1.531,0.941-4.292,2.791-8.201
				l-7.409-14.515L56.776,71.261c2.332,4.908,3.512,8.313,3.512,10.115C60.288,85.653,56.807,89.137,52.527,89.137z M36.499,49.317
				l12.65,21.907l-0.087,0.185c-2.34,4.9-3.526,8.256-3.526,9.967c0,3.856,3.136,6.991,6.992,6.991c3.859,0,6.994-3.135,6.994-6.991
				c0-1.711-1.186-5.066-3.525-9.967l-0.09-0.185l12.663-21.931l8.22,16.112l-0.082,0.17c-1.85,3.896-2.791,6.604-2.791,8.042
				c0,3.396,2.765,6.16,6.161,6.16c3.4,0,6.161-2.764,6.161-6.16c0-1.454-0.955-4.199-2.847-8.155l-0.076-0.154l5.634-13.62
				c0.63-1.515-0.092-3.259-1.61-3.888c-0.359-0.148-0.742-0.223-1.132-0.223c-1.211,0-2.292,0.72-2.75,1.837l-3.65,8.811
				l-7.498-14.696l0.097-0.178c4.484-8.37,6.854-14.204,6.854-16.869c0-5.388-4.728-9.771-10.536-9.771
				c-5.805,0-10.528,4.383-10.528,9.771c0,2.649,2.35,8.442,6.793,16.752l0.1,0.189L52.527,65.181L39.98,43.444l0.103-0.187
				c4.449-8.321,6.801-14.123,6.801-16.775c0-5.388-4.723-9.771-10.529-9.771s-10.531,4.383-10.531,9.771
				c0,2.665,2.371,8.499,6.854,16.869l0.096,0.176l-7.501,14.698l-3.646-8.811c-0.462-1.117-1.541-1.84-2.75-1.84
				c-0.391,0-0.774,0.077-1.136,0.229c-1.516,0.626-2.24,2.37-1.611,3.885l5.636,13.62l-0.074,0.154
				c-1.891,3.958-2.848,6.701-2.848,8.155c0,3.396,2.763,6.16,6.16,6.16c3.399,0,6.162-2.764,6.162-6.16
				c0-1.438-0.94-4.143-2.793-8.042l-0.082-0.17L36.499,49.317z M52.527,82.418c-0.562,0-1.04-0.459-1.044-1.001
				c0.033-0.361,0.282-1.156,0.688-2.219l0.356-0.944l0.359,0.939c0.403,1.057,0.652,1.837,0.683,2.145
				C53.57,81.951,53.103,82.418,52.527,82.418z M36.355,37.526l-0.344-0.686c-2.573-5.136-4.237-9.2-4.237-10.358
				c0-2.106,2.056-3.82,4.581-3.82s4.58,1.714,4.58,3.82c0,1.156-1.663,5.223-4.238,10.358L36.355,37.526z M36.355,23.429
				c-2.104,0-3.812,1.37-3.812,3.054c0,0.798,1.195,4.038,3.812,9.325c2.617-5.289,3.813-8.53,3.813-9.325
				C40.167,24.799,38.456,23.429,36.355,23.429z M68.724,37.526l-0.341-0.686c-2.573-5.136-4.236-9.202-4.236-10.358
				c0-2.106,2.056-3.82,4.577-3.82c2.528,0,4.584,1.714,4.584,3.82c0,1.156-1.662,5.223-4.237,10.358L68.724,37.526z M68.724,23.429
				c-2.099,0-3.81,1.37-3.81,3.054c0,0.795,1.196,4.036,3.81,9.325c2.617-5.289,3.814-8.53,3.814-9.325
				C72.538,24.799,70.827,23.429,68.724,23.429z"/>
		</g>
		<g>
			<path d="M86.84,49.015c-0.202-0.085-0.417-0.126-0.633-0.126c-0.677,0-1.282,0.403-1.539,1.026L79.93,61.353l-9.103-17.841
				c2.145-3.967,7.119-13.53,7.119-17.029c0-4.664-4.136-8.459-9.223-8.459c-5.08,0-9.215,3.795-9.215,8.459
				c0,3.486,4.946,13.012,7.08,16.965L52.527,67.803L38.479,43.468c2.141-3.956,7.093-13.494,7.093-16.985
				c0-4.664-4.135-8.459-9.218-8.459c-5.083,0-9.219,3.795-9.219,8.459c0,3.499,4.971,13.063,7.118,17.029l-9.104,17.841
				l-4.735-11.436c-0.258-0.625-0.862-1.028-1.538-1.028c-0.218,0-0.432,0.041-0.633,0.126c-0.849,0.352-1.252,1.326-0.903,2.173
				l5.862,14.165c-1.142,2.342-3.048,6.514-3.048,8.266c0,2.674,2.175,4.847,4.849,4.847c2.676,0,4.849-2.173,4.849-4.847
				c0-1.747-1.893-5.897-3.027-8.228l9.605-18.821l14.202,24.602c-1.144,2.353-3.784,8.022-3.784,10.205
				c0,3.133,2.55,5.683,5.68,5.683c3.133,0,5.682-2.55,5.682-5.683c0-2.183-2.641-7.853-3.783-10.205l14.216-24.623l9.615,18.843
				c-1.135,2.33-3.03,6.48-3.03,8.228c0,2.671,2.176,4.847,4.851,4.847s4.85-2.176,4.85-4.847c0-1.757-1.908-5.926-3.048-8.266
				l5.859-14.165C88.092,50.341,87.688,49.366,86.84,49.015z M68.724,21.351c3.253,0,5.895,2.302,5.895,5.132
				c0,1.987-3.038,8.471-5.895,13.896c-2.851-5.426-5.888-11.907-5.888-13.896C62.836,23.652,65.479,21.351,68.724,21.351z
				 M80.077,75.14c-0.838,0-1.522-0.683-1.522-1.519c0.01-0.508,0.582-2.088,1.522-4.238c0.94,2.15,1.512,3.73,1.522,4.235
				C81.6,74.457,80.915,75.14,80.077,75.14z M25.003,75.14c-0.839,0-1.521-0.683-1.521-1.519c0.012-0.508,0.58-2.088,1.521-4.238
				c0.944,2.147,1.511,3.73,1.524,4.235C26.527,74.457,25.843,75.14,25.003,75.14z M36.355,21.351c3.25,0,5.891,2.302,5.891,5.132
				c0,1.987-3.038,8.471-5.891,13.896c-2.853-5.423-5.89-11.907-5.89-13.896C30.465,23.652,33.107,21.351,36.355,21.351z
				 M52.527,83.729c-1.296,0-2.353-1.054-2.353-2.353c0-0.741,0.901-3.193,2.353-6.408c1.454,3.215,2.353,5.667,2.353,6.408
				C54.88,82.675,53.826,83.729,52.527,83.729z"/>
		</g>
		<g>
			<path d="M52.541,105.081C23.569,105.081,0,81.513,0,52.539C0,23.57,23.569,0,52.541,0c28.969,0,52.54,23.57,52.54,52.539
				C105.081,81.513,81.51,105.081,52.541,105.081z M52.541,4.38c-26.556,0-48.159,21.604-48.159,48.159
				c0,26.557,21.604,48.163,48.159,48.163c26.555,0,48.158-21.606,48.158-48.163C100.699,25.984,79.096,4.38,52.541,4.38z"/>
		</g>
	</g>
	<g>
		<g>
			<path d="M157.899,45.31c0,0.072,0,0.139,0,0.198c0,0.292-0.052,0.569-0.159,0.831c-0.113,0.259-0.262,0.484-0.457,0.672
				c-0.2,0.188-0.421,0.341-0.677,0.455c-0.252,0.114-0.523,0.174-0.816,0.174c-0.549,0-1.021-0.178-1.421-0.529
				c-0.4-0.351-0.642-0.79-0.714-1.311v0.036l-2.272-14.274c-0.016-0.072-0.041-0.134-0.082-0.182
				c-0.041-0.049-0.098-0.064-0.159-0.047c-0.057,0.021-0.123,0.072-0.195,0.164c-0.071,0.09-0.153,0.241-0.235,0.447l-6.337,13.873
				c-0.011,0.014-0.021,0.023-0.021,0.038c-0.011,0.011-0.016,0.024-0.016,0.037s-0.01,0.029-0.021,0.054l-0.093,0.164
				c-0.062,0.134-0.138,0.285-0.226,0.454c-0.092,0.172-0.194,0.339-0.308,0.502c-0.118,0.162-0.241,0.299-0.374,0.409
				c-0.139,0.107-0.262,0.164-0.386,0.164c-0.123,0-0.235-0.044-0.354-0.129c-0.118-0.084-0.226-0.194-0.328-0.328
				c-0.103-0.131-0.2-0.277-0.293-0.437c-0.092-0.156-0.164-0.302-0.226-0.438l-6.48-14.6c-0.082-0.172-0.159-0.277-0.226-0.321
				c-0.072-0.041-0.128-0.046-0.175-0.017c-0.051,0.03-0.092,0.081-0.128,0.155c-0.036,0.072-0.062,0.146-0.072,0.219l-2.55,14.238
				v0.035c-0.123,0.488-0.374,0.878-0.749,1.176c-0.373,0.297-0.813,0.446-1.326,0.446c-0.287,0-0.568-0.06-0.829-0.174
				c-0.259-0.114-0.488-0.267-0.684-0.455c-0.19-0.188-0.345-0.413-0.466-0.672c-0.112-0.262-0.166-0.539-0.166-0.831
				c0-0.06,0.002-0.121,0.006-0.182c0.007-0.062,0.011-0.121,0.011-0.181l0.034-0.128l4.856-24.836
				c0.016-0.037,0.041-0.09,0.077-0.162c0.041-0.074,0.087-0.149,0.144-0.221c0.062-0.072,0.144-0.138,0.241-0.2
				c0.093-0.06,0.21-0.092,0.344-0.092c0.107,0,0.226,0.026,0.344,0.075c0.098,0.038,0.205,0.1,0.308,0.192
				c0.113,0.088,0.205,0.218,0.277,0.391l0.016,0.017l8.158,18.446c0.016,0.023,0.041,0.062,0.087,0.118
				c0.036,0.054,0.087,0.096,0.139,0.127c0.057,0.03,0.118,0.034,0.185,0.009c0.066-0.024,0.134-0.11,0.189-0.254
				c0.026-0.025,0.036-0.049,0.036-0.074l8.451-18.425c0.062-0.159,0.144-0.28,0.256-0.364c0.108-0.085,0.211-0.144,0.309-0.182
				c0.123-0.049,0.235-0.075,0.344-0.075c0.133,0,0.246,0.028,0.349,0.085c0.093,0.054,0.175,0.117,0.236,0.19
				c0.062,0.072,0.107,0.146,0.144,0.218c0.041,0.074,0.057,0.135,0.057,0.182l4.387,24.928
				C157.889,45.169,157.899,45.235,157.899,45.31z"/>
		</g>
		<g>
			<path d="M187.109,44.8c0.107,0.255,0.148,0.522,0.134,0.799c-0.021,0.281-0.088,0.545-0.211,0.794s-0.282,0.47-0.487,0.664
				c-0.21,0.192-0.446,0.347-0.713,0.454c-0.257,0.098-0.519,0.142-0.796,0.129c-0.271-0.013-0.528-0.074-0.77-0.183
				c-0.241-0.11-0.462-0.262-0.646-0.456c-0.189-0.192-0.339-0.419-0.446-0.673l-0.107-0.201l-1.93-4.55
				c-0.041-0.074-0.087-0.154-0.159-0.238c-0.066-0.085-0.138-0.17-0.226-0.254c-0.087-0.085-0.185-0.155-0.303-0.211
				c-0.112-0.054-0.246-0.079-0.39-0.079h-10.637c-0.241,0-0.446,0.077-0.61,0.235c-0.159,0.157-0.287,0.309-0.369,0.454
				l-2.258,4.897c-0.159,0.378-0.41,0.678-0.749,0.901c-0.339,0.226-0.719,0.338-1.145,0.338c-0.292,0-0.56-0.056-0.811-0.164
				c-0.251-0.11-0.467-0.258-0.646-0.446c-0.185-0.188-0.328-0.405-0.437-0.656c-0.112-0.247-0.164-0.519-0.164-0.809
				c0-0.281,0.047-0.523,0.144-0.729l0.093-0.22l11.181-24.07c0.025-0.048,0.071-0.128,0.148-0.238
				c0.066-0.108,0.159-0.218,0.271-0.336c0.108-0.116,0.231-0.214,0.38-0.3c0.144-0.085,0.313-0.128,0.493-0.128
				c0.194,0,0.369,0.057,0.528,0.164c0.153,0.11,0.287,0.233,0.395,0.364c0.139,0.159,0.252,0.336,0.35,0.529l10.893,24.2V44.8z
				 M178.15,36.787c0.216,0,0.37-0.043,0.452-0.128s0.133-0.177,0.144-0.271c0.016-0.122-0.005-0.257-0.052-0.4l-3.679-8.451
				c-0.057-0.12-0.118-0.166-0.164-0.136c-0.052,0.031-0.087,0.064-0.107,0.102l-3.879,8.521c-0.016,0.036-0.026,0.098-0.036,0.183
				c-0.016,0.085-0.011,0.167,0.005,0.244c0.021,0.079,0.072,0.151,0.148,0.218c0.077,0.069,0.2,0.11,0.375,0.12h6.804H178.15z"/>
		</g>
		<g>
			<path d="M214.016,23.022c0.098,0.098,0.164,0.176,0.19,0.237c0.035,0.059,0.071,0.077,0.118,0.054
				c0.158,0.195,0.271,0.396,0.328,0.601c0.062,0.206,0.092,0.438,0.092,0.692c0,0.277-0.051,0.544-0.164,0.792
				c-0.107,0.25-0.256,0.463-0.446,0.645c-0.189,0.183-0.405,0.329-0.651,0.438c-0.252,0.112-0.514,0.163-0.796,0.163
				c-0.241,0-0.461-0.021-0.661-0.064c-0.205-0.041-0.391-0.146-0.575-0.315v-0.018c-2.088-2.197-4.541-3.297-7.357-3.297
				c-2.955,0-5.47,1.026-7.517,3.076c-2.032,2.051-3.043,4.595-3.043,7.63c0,3.145,1.129,5.736,3.387,7.775
				c2.113,1.894,4.402,2.84,6.865,2.84c2.088,0,3.971-0.71,5.644-2.129c1.478-1.263,2.386-2.757,2.714-4.479
				c0.016-0.11-0.01-0.241-0.071-0.393c-0.066-0.151-0.226-0.229-0.492-0.229h-4.372v-0.018h-0.016
				c-0.282,0-0.544-0.052-0.785-0.154c-0.24-0.103-0.456-0.246-0.636-0.428c-0.185-0.183-0.328-0.396-0.431-0.639
				c-0.103-0.241-0.154-0.502-0.154-0.783c0-0.264,0.052-0.521,0.154-0.765c0.103-0.24,0.246-0.454,0.431-0.636
				c0.18-0.185,0.396-0.324,0.636-0.429c0.241-0.103,0.503-0.153,0.785-0.153h0.216h8.409c0.282,0,0.519,0.092,0.714,0.282
				c0.194,0.187,0.303,0.416,0.328,0.682c0,2.102-0.251,3.964-0.749,5.591c-0.482,1.516-1.309,2.93-2.474,4.243
				c-2.627,2.96-5.956,4.443-9.994,4.443c-3.946,0-7.338-1.429-10.159-4.279c-2.822-2.865-4.229-6.308-4.229-10.326
				c0-4.089,1.437-7.568,4.315-10.431c2.863-2.866,6.347-4.3,10.451-4.3c2.187,0,4.249,0.452,6.193,1.347
				c0.313,0.159,0.683,0.387,1.108,0.685c0.426,0.297,0.836,0.592,1.231,0.882c0.395,0.293,0.729,0.552,1.011,0.782
				C213.842,22.87,213.995,22.997,214.016,23.022z"/>
		</g>
		<g>
			<path d="M226.269,45.491c0,0.291-0.052,0.567-0.164,0.827c-0.108,0.264-0.257,0.49-0.452,0.683
				c-0.194,0.194-0.42,0.346-0.677,0.456c-0.251,0.108-0.528,0.164-0.815,0.164c-0.293,0-0.564-0.063-0.821-0.192
				c-0.257-0.125-0.482-0.296-0.672-0.51c-0.195-0.211-0.35-0.452-0.457-0.719c-0.113-0.267-0.169-0.547-0.18-0.838V21.657v-0.055
				c0-0.293,0.052-0.567,0.164-0.829c0.108-0.26,0.257-0.487,0.441-0.683c0.19-0.195,0.416-0.346,0.678-0.455
				c0.256-0.112,0.533-0.166,0.825-0.166c0.293,0,0.57,0.058,0.826,0.174c0.268,0.115,0.493,0.27,0.688,0.463
				c0.195,0.194,0.344,0.422,0.452,0.684c0.112,0.262,0.164,0.537,0.164,0.828v0.037v23.705V45.491z"/>
		</g>
		<g>
			<path d="M255.854,44.8c0.118,0.255,0.159,0.522,0.144,0.799c-0.021,0.281-0.093,0.545-0.21,0.794
				c-0.123,0.249-0.288,0.47-0.493,0.664c-0.21,0.192-0.441,0.347-0.713,0.454c-0.252,0.098-0.513,0.142-0.79,0.129
				c-0.272-0.013-0.534-0.074-0.775-0.183c-0.241-0.11-0.456-0.262-0.641-0.456c-0.19-0.192-0.339-0.419-0.452-0.673l-0.103-0.201
				l-1.935-4.55c-0.035-0.074-0.087-0.154-0.158-0.238c-0.062-0.085-0.139-0.17-0.221-0.254c-0.088-0.085-0.19-0.155-0.303-0.211
				c-0.118-0.054-0.247-0.079-0.396-0.079h-10.631c-0.241,0-0.441,0.077-0.611,0.235c-0.164,0.157-0.287,0.309-0.369,0.454
				l-2.258,4.897c-0.164,0.378-0.41,0.678-0.749,0.901c-0.339,0.226-0.724,0.338-1.149,0.338c-0.287,0-0.559-0.056-0.811-0.164
				c-0.246-0.11-0.462-0.258-0.642-0.446c-0.185-0.188-0.328-0.405-0.436-0.656c-0.113-0.247-0.17-0.519-0.17-0.809
				c0-0.281,0.047-0.523,0.149-0.729l0.087-0.22l11.181-24.07c0.025-0.048,0.077-0.128,0.148-0.238
				c0.072-0.108,0.159-0.218,0.272-0.336c0.112-0.116,0.235-0.214,0.379-0.3c0.149-0.085,0.313-0.128,0.493-0.128
				c0.194,0,0.374,0.057,0.533,0.164c0.154,0.11,0.293,0.233,0.396,0.364c0.139,0.159,0.251,0.336,0.349,0.529l10.883,24.2V44.8z
				 M246.9,36.787c0.221,0,0.369-0.043,0.456-0.128c0.082-0.085,0.134-0.177,0.144-0.271c0.011-0.122-0.005-0.257-0.057-0.4
				l-3.679-8.451c-0.056-0.12-0.112-0.166-0.153-0.136c-0.057,0.031-0.093,0.064-0.118,0.102l-3.879,8.521
				c-0.011,0.036-0.026,0.098-0.036,0.183s-0.005,0.167,0.01,0.244c0.021,0.079,0.067,0.151,0.145,0.218
				c0.082,0.069,0.205,0.11,0.379,0.12h6.804H246.9z"/>
		</g>
	</g>
	<g>
		<g>
			<path d="M127.244,71.317c0-3.959,1.449-7.357,4.349-10.195c2.894-2.843,6.362-4.264,10.421-4.264c3.997,0,7.435,1.432,10.298,4.3
				c2.884,2.863,4.32,6.306,4.32,10.323c0,4.043-1.447,7.471-4.336,10.287c-2.898,2.827-6.403,4.241-10.508,4.241
				c-3.628,0-6.886-1.255-9.774-3.769C128.835,79.46,127.244,75.817,127.244,71.317z M131.521,71.363
				c0,3.104,1.047,5.657,3.136,7.655c2.072,2.001,4.469,3.002,7.188,3.002c2.95,0,5.438-1.016,7.465-3.056
				c2.027-2.06,3.043-4.574,3.043-7.529c0-2.997-1.006-5.506-3.002-7.532c-1.99-2.037-4.458-3.056-7.398-3.056
				c-2.92,0-5.393,1.019-7.409,3.056C132.526,65.917,131.521,68.403,131.521,71.363z"/>
		</g>
		<g>
			<path d="M178.125,73.064c0.888,1.275,1.329,2.737,1.329,4.39c0,2.195-0.78,4.053-2.335,5.569
				c-0.462,0.459-0.954,0.854-1.482,1.183s-1.083,0.585-1.662,0.765c-0.646,0.169-1.36,0.298-2.15,0.385s-1.667,0.128-2.643,0.128
				h-5.443c-0.252-0.025-0.467-0.128-0.652-0.313c-0.185-0.183-0.287-0.393-0.313-0.637V58.388c0.025-0.268,0.134-0.493,0.323-0.683
				c0.185-0.185,0.416-0.282,0.697-0.282h3.187c1.894,0,3.387,0.146,4.479,0.436c1.118,0.293,2.067,0.785,2.858,1.479
				c0.385,0.354,0.738,0.749,1.046,1.2c0.309,0.449,0.585,0.939,0.832,1.473c0.456,1.093,0.688,2.181,0.688,3.261
				c0,2.039-0.76,3.738-2.294,5.098C176.067,70.892,177.248,71.789,178.125,73.064z M166.996,68.531
				c0.025,0.241,0.128,0.446,0.303,0.618c0.175,0.169,0.38,0.265,0.631,0.29h0.4c1.575,0,2.729-0.344,3.458-1.036
				c0.729-0.693,1.093-1.725,1.093-3.097c0-1.299-0.379-2.294-1.128-2.986c-0.375-0.352-0.837-0.605-1.381-0.765
				c-0.533-0.156-1.164-0.233-1.883-0.233h-0.637c-0.251,0.021-0.456,0.126-0.6,0.308c-0.149,0.183-0.231,0.4-0.257,0.657V68.531z
				 M173.841,80.365c0.949-0.813,1.427-1.844,1.427-3.096c0-1.201-0.457-2.215-1.365-3.04c-0.888-0.813-2.473-1.219-4.751-1.219
				h-1.17c-0.252,0.01-0.478,0.103-0.662,0.271c-0.189,0.17-0.298,0.383-0.323,0.637v6.68c0.025,0.236,0.118,0.434,0.282,0.604
				c0.164,0.172,0.369,0.274,0.61,0.311h1.734C171.521,81.513,172.933,81.13,173.841,80.365z"/>
		</g>
		<g>
			<path d="M202.563,81.984c0.154,0.185,0.282,0.39,0.375,0.621c0.092,0.23,0.139,0.484,0.139,0.765c0,0.292-0.057,0.564-0.17,0.82
				c-0.107,0.252-0.257,0.473-0.451,0.662c-0.195,0.189-0.426,0.339-0.683,0.457c-0.262,0.118-0.539,0.174-0.831,0.174
				c-0.375,0-0.719-0.092-1.042-0.276c-0.308-0.18-0.559-0.429-0.738-0.744l-6.994-10.016c-0.025-0.046-0.107-0.136-0.246-0.262
				c-0.144-0.128-0.292-0.2-0.467-0.211c-0.107,0-0.195,0.052-0.271,0.154c-0.072,0.103-0.113,0.308-0.129,0.61v8.502v0.129v0.092
				v0.036c-0.021,0.277-0.092,0.539-0.205,0.782c-0.118,0.241-0.271,0.454-0.456,0.629c-0.19,0.175-0.405,0.313-0.657,0.415
				c-0.251,0.108-0.519,0.159-0.811,0.159c-0.293,0-0.564-0.056-0.811-0.164c-0.246-0.112-0.473-0.256-0.667-0.438
				c-0.195-0.183-0.339-0.397-0.452-0.646c-0.107-0.249-0.169-0.521-0.18-0.813v-0.069v-25c0-0.293,0.098-0.539,0.298-0.736
				c0.2-0.203,0.437-0.306,0.724-0.32h3.945c3.726,0,6.424,0.708,8.092,2.113c1.816,1.565,2.725,3.617,2.725,6.154
				c0,1.988-0.574,3.708-1.729,5.152c-0.923,1.177-2.099,2.003-3.529,2.476c-0.124,0.035-0.227,0.074-0.313,0.112
				c-0.082,0.036-0.154,0.072-0.216,0.108c-0.062,0.035-0.107,0.066-0.128,0.092c-0.087,0.118-0.087,0.267,0,0.437L202.563,81.984z
				 M192.42,70.24c4.018,0,6.028-1.534,6.028-4.605c0-2.886-1.954-4.333-5.864-4.333h-0.508c-0.277,0.01-0.514,0.113-0.708,0.303
				c-0.195,0.188-0.298,0.421-0.313,0.697v6.958c0.026,0.277,0.129,0.508,0.313,0.688c0.185,0.185,0.405,0.282,0.672,0.293H192.42z"
				/>
		</g>
		<g>
			<path d="M231.677,59.408V75.54c0,2.961-0.935,5.429-2.807,7.394c-2.063,2.135-4.628,3.207-7.696,3.207
				c-3.074,0-5.64-1.072-7.707-3.207c-1.857-1.942-2.786-4.407-2.786-7.394V59.408c0-0.292,0.057-0.564,0.175-0.818
				c0.112-0.257,0.271-0.479,0.462-0.675c0.194-0.194,0.42-0.346,0.677-0.456c0.252-0.108,0.528-0.164,0.821-0.164
				c0.287,0,0.564,0.056,0.826,0.164c0.262,0.11,0.487,0.262,0.683,0.456c0.189,0.195,0.349,0.418,0.461,0.675
				c0.118,0.254,0.175,0.526,0.175,0.818v14.946c0,2.417,0.396,4.197,1.186,5.336c1.2,1.627,2.878,2.44,5.028,2.44
				c2.17,0,3.838-0.813,5.002-2.44c0.816-1.079,1.222-2.857,1.222-5.336V59.408c0-0.292,0.051-0.564,0.164-0.818
				c0.107-0.257,0.257-0.479,0.451-0.675c0.2-0.194,0.421-0.346,0.678-0.456c0.257-0.108,0.523-0.164,0.821-0.164
				c0.303,0,0.584,0.056,0.846,0.164c0.257,0.11,0.482,0.262,0.683,0.456c0.195,0.195,0.344,0.418,0.452,0.675
				c0.107,0.254,0.164,0.526,0.164,0.818H231.677z"/>
		</g>
		<g>
			<path d="M254.432,72.169c1.042,1.301,1.565,2.93,1.565,4.882c0,2.573-0.852,4.708-2.565,6.411
				c-1.734,1.698-3.879,2.548-6.444,2.548c-2.453,0-4.469-0.729-6.044-2.184c-1.067-0.975-1.863-2.227-2.392-3.771h0.021
				c-0.087-0.206-0.123-0.437-0.123-0.693c0-0.29,0.057-0.566,0.17-0.826c0.117-0.262,0.271-0.492,0.467-0.685
				c0.194-0.192,0.42-0.347,0.682-0.465c0.262-0.112,0.539-0.174,0.826-0.174c0.514,0,0.955,0.153,1.329,0.456
				c0.375,0.303,0.626,0.688,0.744,1.149c0.185,0.621,0.396,1.078,0.636,1.383c0.878,1.214,2.155,1.819,3.828,1.819
				c1.324,0,2.422-0.441,3.299-1.329c0.873-0.883,1.309-2.006,1.309-3.366c0-0.533-0.071-1.031-0.221-1.493
				c-0.071-0.23-0.169-0.451-0.287-0.656c-0.123-0.205-0.262-0.405-0.421-0.601c-0.169-0.194-0.359-0.38-0.564-0.554
				c-0.21-0.175-0.436-0.349-0.692-0.519c-0.257-0.175-0.533-0.339-0.836-0.492c-0.303-0.159-0.632-0.313-0.985-0.457l-2.694-1.129
				c-3.832-1.613-5.752-3.991-5.752-7.137c0-2.099,0.796-3.858,2.401-5.28c1.616-1.431,3.628-2.149,6.029-2.149
				c2.37,0,4.356,0.847,5.973,2.532c0.226,0.194,0.41,0.423,0.544,0.68c0.133,0.262,0.199,0.552,0.199,0.867
				c0,0.279-0.051,0.539-0.153,0.785c-0.103,0.241-0.246,0.451-0.431,0.636c-0.18,0.18-0.396,0.323-0.632,0.426
				c-0.246,0.103-0.503,0.154-0.77,0.154c-0.313,0-0.61-0.064-0.882-0.2c-0.272-0.134-0.498-0.318-0.683-0.564
				c-0.149-0.169-0.288-0.313-0.426-0.436c-0.144-0.118-0.282-0.227-0.432-0.309c-0.605-0.39-1.385-0.582-2.329-0.582
				c-1.201,0-2.176,0.333-2.93,1.001c-0.78,0.653-1.17,1.479-1.17,2.476c0,1.372,1.016,2.476,3.043,3.314l2.807,1.144
				C251.729,69.722,253.386,70.851,254.432,72.169z"/>
		</g>
	</g>
</g>
</svg>
