<?xml version="1.0" encoding="utf-8"?>
<!-- Generator: Adobe Illustrator 16.0.3, SVG Export Plug-In . SVG Version: 6.00 Build 0)  -->
<!DOCTYPE svg PUBLIC "-//W3C//DTD SVG 1.1//EN" "http://www.w3.org/Graphics/SVG/1.1/DTD/svg11.dtd">
<svg version="1.1" id="Layer_1" xmlns="http://www.w3.org/2000/svg" xmlns:xlink="http://www.w3.org/1999/xlink" x="0px" y="0px"
	 width="256px" height="256px" viewBox="0 0 256 256" enable-background="new 0 0 256 256" xml:space="preserve">
<g>
	<path d="M128.003,256C57.42,256,0,198.578,0,128C0,57.421,57.42,0,128.003,0C198.573,0,256,57.421,256,128
		C256,198.578,198.573,256,128.003,256z M128.003,10.671C63.305,10.671,10.678,63.3,10.678,128
		c0,64.696,52.627,117.328,117.325,117.328c64.684,0,117.318-52.632,117.318-117.328C245.321,63.3,192.688,10.671,128.003,10.671z"
		/>
</g>
<g>
	<path d="M156.56,162.45c21.418,4.107,36.053,12.671,36.053,22.668c0,13.925-28.913,25.168-64.612,25.168
		s-64.612-11.243-64.612-25.168c0-9.997,14.635-18.383,36.052-22.668v0.535c-12.492,3.036-20.703,8.032-20.703,13.743
		c0,9.286,22.131,16.957,49.263,16.957c27.132,0,49.263-7.671,49.263-16.957c0-5.711-8.21-10.707-20.703-13.743V162.45z"/>
	<path d="M106.758,83.378c2.146-4.286,3.571-7.5,8.036-10.71c4.103-2.854,8.746-4.286,13.207-4.286
		c4.461,0,9.104,1.432,13.207,4.286c4.464,3.21,5.889,6.425,8.035,10.71l0,0c2.14,8.208,1.607,14.458-2.682,20.35
		c-3.215,4.457-8.386,8.921-16.597,9.636c-0.714,0-1.25,0.179-1.964,0.179s-1.25,0-1.964-0.179
		c-8.21-0.714-13.382-5.179-16.603-9.636C105.333,97.657,104.619,91.586,106.758,83.378L106.758,83.378L106.758,83.378z M128,45.714
		c-1.25,0-2.5,0-3.75,0.179c-14.453,0.893-27.842,8.21-36.231,19.1c-5.175,6.604-8.571,14.636-9.46,23.561
		c-2.675,31.593,39.088,61.761,49.441,96.921c10.354-35.339,52.116-65.328,49.441-96.921c-0.89-8.925-4.285-16.958-9.46-23.561
		c-8.39-11.068-21.778-18.207-36.231-19.1C130.5,45.893,129.25,45.714,128,45.714L128,45.714z"/>
</g>
</svg>
