<?xml version="1.0" encoding="utf-8"?>
<!-- Generator: Adobe Illustrator 16.0.3, SVG Export Plug-In . SVG Version: 6.00 Build 0)  -->
<!DOCTYPE svg PUBLIC "-//W3C//DTD SVG 1.1//EN" "http://www.w3.org/Graphics/SVG/1.1/DTD/svg11.dtd">
<svg version="1.1" id="Layer_1" xmlns="http://www.w3.org/2000/svg" xmlns:xlink="http://www.w3.org/1999/xlink" x="0px" y="0px"
	 width="168.48px" height="256px" viewBox="0 0 168.48 256" enable-background="new 0 0 168.48 256" xml:space="preserve">
<g>
	<path opacity="0.3" fill="#231F20" d="M84.241,217.846c-27.059,0-48.981,8.524-48.981,19.077c0,10.552,21.922,19.077,48.981,19.077
		c27.063,0,48.984-8.525,48.984-19.077C133.225,226.37,111.303,217.846,84.241,217.846z"/>
	<path fill="#FFFFFF" d="M168.271,72.801c-1.518-15.171-7.278-28.811-16.073-40.042c-14.264-18.807-37.02-30.944-61.584-32.461
		C88.49,0.297,86.365,0,84.241,0s-4.249,0-6.373,0.297C53.309,1.815,30.549,14.249,16.287,32.759
		C7.491,43.991,1.724,57.63,0.209,72.801c-4.545,53.704,66.441,104.977,84.032,164.731
		C101.831,177.469,172.823,126.505,168.271,72.801z"/>
	<g>
		<g>
			<path fill="#A78C30" d="M84.229,123.315c-6.525,0-11.83-5.313-11.83-11.832c0-1.02,0-3.369,3.357-10.748l-8.595-14.891
				l-4.334,8.485c2.625,5.845,2.625,7.816,2.625,8.777c0,6.027-4.907,10.93-10.935,10.93s-10.93-4.903-10.93-10.93
				c0-0.983,0-2.996,2.754-9.073l-5.358-12.96c-0.765-1.848-0.765-3.885,0-5.733c0.768-1.848,2.209-3.29,4.056-4.055
				c0.919-0.377,1.878-0.569,2.868-0.569c3.041,0,5.76,1.816,6.925,4.63l0.382,0.932l2.862-5.612
				c-6.953-13.292-6.956-17.021-6.956-18.437c0-8.179,7.02-14.832,15.651-14.832S82.42,44.052,82.42,52.23
				c0,1.407,0,5.102-6.841,18.222l8.649,14.983l8.668-15.011c-6.832-13.1-6.832-16.795-6.832-18.194
				c0-8.179,7.02-14.832,15.651-14.832s15.642,6.653,15.642,14.832c0,1.415,0,5.145-6.956,18.437l2.868,5.612l0.386-0.932
				c1.162-2.813,3.885-4.63,6.925-4.63c0.99,0,1.949,0.187,2.859,0.564c3.824,1.584,5.639,5.974,4.067,9.792l-5.366,12.96
				c2.762,6.078,2.762,8.09,2.762,9.073c0,6.027-4.91,10.93-10.932,10.93c-6.033,0-10.935-4.903-10.935-10.93
				c0-0.961,0-2.932,2.625-8.777l-4.346-8.513l-8.613,14.918c3.356,7.379,3.356,9.729,3.356,10.748
				C96.059,118.003,90.754,123.315,84.229,123.315z M67.033,80.924l11.369,19.689l-0.258,0.555
				c-3.396,7.348-3.396,9.505-3.396,10.315c0,5.226,4.252,9.478,9.481,9.478c5.226,0,9.481-4.252,9.481-9.478
				c0-0.81,0-2.968-3.393-10.315l-0.255-0.555l11.381-19.712l6.822,13.375l-0.237,0.519c-2.643,5.782-2.643,7.553-2.643,8.313
				c0,4.734,3.845,8.581,8.585,8.581c4.729,0,8.583-3.847,8.583-8.581c0-0.774,0-2.586-2.762-8.554l-0.212-0.469l5.754-13.907
				c1.086-2.621-0.164-5.638-2.792-6.724c-0.623-0.258-1.287-0.388-1.961-0.388c-2.088,0-3.958,1.247-4.752,3.179l-2.337,5.631
				l-5.724-11.226l0.276-0.54c4.628-8.77,6.971-14.783,6.971-17.879c0-6.886-5.966-12.485-13.299-12.485
				c-7.338,0-13.302,5.599-13.302,12.485c0,1.141,0,4.625,6.855,17.679l0.31,0.57L84.229,90.133L72.896,70.501L73.2,69.93
				c6.871-13.07,6.871-16.555,6.871-17.7c0-6.886-5.966-12.485-13.299-12.485c-7.338,0-13.299,5.599-13.299,12.485
				c0,3.096,2.343,9.109,6.968,17.879l0.279,0.54l-5.73,11.226l-2.331-5.631c-0.795-1.932-2.665-3.179-4.752-3.179
				c-0.68,0-1.342,0.13-1.967,0.391c-1.275,0.522-2.259,1.513-2.786,2.783c-0.529,1.269-0.529,2.667-0.004,3.938l5.759,13.907
				l-0.219,0.469c-2.755,5.968-2.755,7.78-2.755,8.554c0,4.734,3.854,8.581,8.583,8.581c4.734,0,8.585-3.847,8.585-8.581
				c0-0.756,0-2.531-2.649-8.313l-0.23-0.519L67.033,80.924z M101.716,59.845l-1.074-2.416c-1.038-2.335-1.73-4.174-1.903-5.053
				l-0.052-0.25l0.061-0.255c0.219-0.888,1.335-1.83,2.968-1.83s2.75,0.942,2.962,1.83l0.061,0.25l-0.042,0.255
				c-0.176,0.878-0.874,2.718-1.912,5.053L101.716,59.845z M66.772,59.845l-1.074-2.416c-1.038-2.335-1.73-4.174-1.906-5.053
				l-0.048-0.25l0.061-0.255c0.219-0.888,1.33-1.83,2.968-1.83c1.633,0,2.75,0.942,2.962,1.83l0.067,0.255l-0.052,0.25
				c-0.173,0.878-0.865,2.719-1.903,5.053L66.772,59.845z"/>
		</g>
		<g>
			<path fill="#A78C30" d="M84.226,119.86c-4.616,0-8.376-3.76-8.376-8.376c0-1.948,1.278-5.622,3.797-10.921L66.972,78.607
				l-7.988,15.651c1.997,4.216,3.011,7.197,3.011,8.85c0,4.124-3.356,7.484-7.478,7.484c-4.125,0-7.478-3.36-7.478-7.484
				c0-1.667,1.032-4.698,3.071-8.991l-5.941-14.362c-0.85-2.058,0.132-4.422,2.19-5.276c0.492-0.205,1.014-0.31,1.542-0.31
				c1.645,0,3.108,0.979,3.739,2.496l3.247,7.852l7.078-13.88c-3.396-6.359-7.393-14.64-7.393-18.405
				c0-6.276,5.475-11.376,12.2-11.376c6.719,0,12.194,5.1,12.194,11.376c0,3.748-3.964,11.973-7.333,18.294l12.592,21.812
				l12.61-21.836c-3.363-6.313-7.32-14.525-7.32-18.271c0-6.276,5.472-11.376,12.194-11.376c6.725,0,12.2,5.1,12.2,11.376
				c0,3.765-3.994,12.046-7.396,18.41l7.08,13.876l3.253-7.852c0.625-1.518,2.085-2.495,3.733-2.495
				c0.528,0,1.044,0.103,1.539,0.308c2.061,0.851,3.044,3.218,2.194,5.276l-5.945,14.362c2.037,4.293,3.078,7.32,3.078,8.991
				c0,4.124-3.36,7.484-7.481,7.484c-4.127,0-7.484-3.36-7.484-7.484c0-1.653,1.02-4.634,3.017-8.85l-8-15.669l-12.686,21.974
				c2.519,5.299,3.791,8.973,3.791,10.921C92.602,116.1,88.848,119.86,84.226,119.86z M66.924,76.874l13.657,23.648l-0.097,0.2
				c-2.525,5.29-3.806,8.914-3.806,10.762c0,4.161,3.387,7.548,7.548,7.548c4.167,0,7.548-3.387,7.548-7.548
				c0-1.848-1.281-5.472-3.806-10.762l-0.097-0.2l13.672-23.667l8.871,17.39l-0.085,0.182c-1.997,4.207-3.014,7.129-3.014,8.682
				c0,3.669,2.983,6.646,6.649,6.646c3.666,0,6.652-2.978,6.652-6.646c0-1.571-1.032-4.534-3.077-8.804l-0.079-0.164l6.079-14.704
				c0.683-1.634-0.101-3.518-1.739-4.193c-0.389-0.162-0.801-0.244-1.22-0.244c-1.311,0-2.47,0.78-2.968,1.983l-3.942,9.51
				l-8.088-15.863l0.097-0.191c4.844-9.035,7.405-15.333,7.405-18.207c0-5.814-5.104-10.548-11.375-10.548
				c-6.264,0-11.366,4.733-11.366,10.548c0,2.856,2.534,9.109,7.335,18.082l0.104,0.205L84.226,94.003L70.681,70.54l0.115-0.205
				c4.798-8.982,7.338-15.241,7.338-18.105c0-5.814-5.099-10.548-11.363-10.548c-6.27,0-11.369,4.733-11.369,10.548
				c0,2.874,2.555,9.172,7.399,18.207l0.1,0.191l-8.094,15.863l-3.939-9.51c-0.498-1.204-1.66-1.983-2.968-1.983
				c-0.419,0-0.837,0.082-1.226,0.244c-1.636,0.675-2.417,2.559-1.736,4.193l6.082,14.704l-0.079,0.164
				c-2.042,4.274-3.077,7.233-3.077,8.804c0,3.669,2.983,6.646,6.652,6.646c3.666,0,6.652-2.978,6.652-6.646
				c0-1.553-1.017-4.471-3.017-8.682l-0.091-0.182L66.924,76.874z M84.226,112.608c-0.604,0-1.12-0.496-1.126-1.079
				c0.037-0.392,0.304-1.252,0.741-2.399l0.385-1.015l0.386,1.011c0.437,1.138,0.707,1.985,0.74,2.313
				C85.354,112.103,84.848,112.608,84.226,112.608z M66.772,64.149l-0.374-0.738c-2.777-5.542-4.573-9.933-4.573-11.181
				c0-2.276,2.222-4.127,4.947-4.127c2.722,0,4.941,1.852,4.941,4.127c0,1.245-1.797,5.639-4.577,11.181L66.772,64.149z
				 M66.772,48.935c-2.276,0-4.115,1.479-4.115,3.296c0,0.859,1.287,4.357,4.115,10.064c2.822-5.708,4.115-9.205,4.115-10.064
				C70.887,50.414,69.036,48.935,66.772,48.935z M101.71,64.149l-0.371-0.738c-2.78-5.542-4.57-9.936-4.57-11.181
				c0-2.276,2.215-4.127,4.941-4.127c2.731,0,4.947,1.852,4.947,4.127c0,1.245-1.791,5.639-4.577,11.181L101.71,64.149z
				 M101.71,48.935c-2.264,0-4.116,1.479-4.116,3.296c0,0.859,1.293,4.355,4.116,10.064c2.822-5.708,4.115-9.205,4.115-10.064
				C105.825,50.414,103.98,48.935,101.71,48.935z"/>
		</g>
		<g>
			<path fill="#A78C30" d="M121.264,76.549c-0.215-0.088-0.452-0.132-0.683-0.132c-0.728,0-1.384,0.429-1.663,1.106l-5.111,12.346
				l-9.827-19.26c2.315-4.279,7.684-14.604,7.684-18.379c0-5.035-4.467-9.135-9.954-9.135c-5.484,0-9.949,4.1-9.949,9.135
				c0,3.76,5.338,14.044,7.642,18.31L84.226,96.83L69.06,70.563c2.313-4.27,7.66-14.567,7.66-18.333
				c0-5.035-4.467-9.135-9.948-9.135c-5.487,0-9.952,4.1-9.952,9.135c0,3.775,5.363,14.1,7.682,18.379l-9.827,19.26l-5.111-12.346
				c-0.279-0.677-0.929-1.106-1.663-1.106c-0.23,0-0.461,0.044-0.68,0.132c-0.917,0.382-1.354,1.434-0.978,2.349l6.325,15.287
				c-1.229,2.531-3.287,7.029-3.287,8.923c0,2.886,2.349,5.235,5.235,5.235s5.232-2.349,5.232-5.235
				c0-1.885-2.045-6.364-3.265-8.877l10.367-20.317l15.326,26.554c-1.232,2.541-4.079,8.659-4.079,11.017
				c0,3.378,2.75,6.132,6.127,6.132c3.384,0,6.134-2.754,6.134-6.132c0-2.358-2.853-8.476-4.085-11.017l15.344-26.58l10.379,20.343
				c-1.223,2.513-3.271,6.993-3.271,8.877c0,2.886,2.349,5.235,5.238,5.235c2.883,0,5.232-2.349,5.232-5.235
				c0-1.894-2.058-6.396-3.29-8.923l6.325-15.287C122.614,77.983,122.177,76.932,121.264,76.549z M101.71,46.69
				c3.511,0,6.361,2.481,6.361,5.54c0,2.145-3.278,9.145-6.361,14.999c-3.078-5.854-6.355-12.853-6.355-14.999
				C95.354,49.171,98.208,46.69,101.71,46.69z M113.965,104.751c-0.905,0-1.645-0.737-1.645-1.639
				c0.012-0.551,0.631-2.253,1.645-4.575c1.014,2.322,1.633,4.024,1.645,4.571C115.609,104.014,114.869,104.751,113.965,104.751z
				 M54.517,104.751c-0.904,0-1.645-0.737-1.645-1.639c0.015-0.551,0.625-2.253,1.645-4.575c1.02,2.317,1.63,4.024,1.645,4.571
				C56.162,104.014,55.421,104.751,54.517,104.751z M66.772,46.69c3.505,0,6.355,2.481,6.355,5.54c0,2.145-3.278,9.145-6.355,14.999
				c-3.083-5.854-6.361-12.853-6.361-14.999C60.411,49.171,63.264,46.69,66.772,46.69z M84.226,114.024
				c-1.399,0-2.54-1.138-2.54-2.541c0-0.801,0.974-3.451,2.54-6.919c1.569,3.469,2.541,6.118,2.541,6.919
				C86.766,112.886,85.628,114.024,84.226,114.024z"/>
		</g>
		<g>
			<path fill="#A78C30" d="M84.241,137.068c-31.271,0-56.714-25.438-56.714-56.713c0-31.27,25.443-56.713,56.714-56.713
				c31.269,0,56.71,25.443,56.71,56.713C140.951,111.63,115.509,137.068,84.241,137.068z M84.241,28.37
				c-28.667,0-51.985,23.323-51.985,51.985c0,28.667,23.317,51.988,51.985,51.988c28.665,0,51.982-23.321,51.982-51.988
				C136.223,51.693,112.905,28.37,84.241,28.37z"/>
		</g>
	</g>
</g>
</svg>
