<?xml version="1.0" encoding="utf-8"?>
<!-- Generator: Adobe Illustrator 16.0.3, SVG Export Plug-In . SVG Version: 6.00 Build 0)  -->
<!DOCTYPE svg PUBLIC "-//W3C//DTD SVG 1.1//EN" "http://www.w3.org/Graphics/SVG/1.1/DTD/svg11.dtd">
<svg version="1.1" id="Layer_1" xmlns="http://www.w3.org/2000/svg" xmlns:xlink="http://www.w3.org/1999/xlink" x="0px" y="0px"
	 width="26px" height="11px" viewBox="0 0 26 11" enable-background="new 0 0 26 11" xml:space="preserve">
<g>
	<path d="M25.5,1h-25C0.224,1,0,0.776,0,0.5S0.224,0,0.5,0h25C25.776,0,26,0.224,26,0.5S25.776,1,25.5,1z"/>
</g>
<g>
	<path d="M25.5,6h-25C0.224,6,0,5.776,0,5.5S0.224,5,0.5,5h25C25.776,5,26,5.224,26,5.5S25.776,6,25.5,6z"/>
</g>
<g>
	<path d="M25.5,11h-25C0.224,11,0,10.776,0,10.5S0.224,10,0.5,10h25c0.276,0,0.5,0.224,0.5,0.5S25.776,11,25.5,11z"/>
</g>
</svg>
