<?xml version="1.0" encoding="utf-8"?>
<!-- Generator: Adobe Illustrator 16.0.3, SVG Export Plug-In . SVG Version: 6.00 Build 0)  -->
<!DOCTYPE svg PUBLIC "-//W3C//DTD SVG 1.1//EN" "http://www.w3.org/Graphics/SVG/1.1/DTD/svg11.dtd">
<svg version="1.1" id="Layer_1" xmlns="http://www.w3.org/2000/svg" xmlns:xlink="http://www.w3.org/1999/xlink" x="0px" y="0px"
	 width="256.003px" height="256px" viewBox="0 0 256.003 256" enable-background="new 0 0 256.003 256" xml:space="preserve">
<g>
	<path fill="#6D6E71" d="M128.072,256H128c-8.372,0-16.746-0.814-24.89-2.419l0.948-4.813c7.833,1.544,15.888,2.327,23.942,2.327
		L128.072,256z M153.036,253.553l-0.954-4.811c7.892-1.566,15.657-3.923,23.081-7.004l1.881,4.528
		C169.321,249.473,161.244,251.924,153.036,253.553z M79.093,246.322c-7.717-3.192-15.161-7.172-22.126-11.827l2.725-4.077
		c6.698,4.477,13.856,8.303,21.277,11.373L79.093,246.322z M199.155,234.416l-2.73-4.074c6.681-4.477,12.952-9.631,18.641-15.324
		l3.469,3.468C212.62,224.403,206.101,229.763,199.155,234.416z M37.568,218.586c-5.925-5.916-11.289-12.432-15.942-19.37
		l4.073-2.732c4.476,6.674,9.635,12.941,15.334,18.632L37.568,218.586z M234.456,199.096l-4.077-2.729
		c4.48-6.693,8.311-13.849,11.386-21.27l4.531,1.877C243.097,184.692,239.113,192.135,234.456,199.096z M9.761,177.11
		c-3.211-7.723-5.667-15.798-7.299-24.004l4.811-0.956c1.569,7.888,3.93,15.652,7.018,23.076L9.761,177.11z M253.565,152.964
		l-4.81-0.952c1.553-7.854,2.34-15.934,2.34-24.012v-0.291H256V128C256,136.397,255.181,144.796,253.565,152.964z M4.904,128.143H0
		l0-0.168c0-8.322,0.809-16.672,2.405-24.794l4.813,0.945C5.683,111.938,4.904,119.97,4.904,128L4.904,128.143z M248.7,103.708
		c-1.579-7.889-3.948-15.651-7.044-23.07l4.526-1.888c3.22,7.717,5.684,15.79,7.326,23.996L248.7,103.708z M14.181,81.032
		l-4.532-1.873c3.189-7.721,7.164-15.167,11.814-22.134l4.08,2.722C21.07,66.447,17.248,73.608,14.181,81.032z M230.224,59.395
		c-4.483-6.668-9.649-12.931-15.355-18.613l3.462-3.475c5.932,5.908,11.302,12.419,15.963,19.352L230.224,59.395z M40.833,41.081
		l-3.472-3.462c5.91-5.927,12.424-11.294,19.361-15.953l2.734,4.071C52.784,30.218,46.519,35.38,40.833,41.081z M196.193,25.5
		c-6.703-4.467-13.866-8.285-21.291-11.348l1.869-4.533c7.723,3.184,15.172,7.154,22.143,11.801L196.193,25.5z M80.706,14.316
		L78.82,9.789c7.72-3.215,15.795-5.675,23.999-7.313l0.96,4.81C95.891,8.859,88.128,11.225,80.706,14.316z M151.804,7.204
		C144.017,5.678,136.008,4.904,128,4.904l-0.216,0V0l0.232,0c8.308,0,16.633,0.804,24.73,2.391L151.804,7.204z"/>
</g>
<g>
	<path fill="#6D6E71" d="M121.716,104.509c-4.176,1.719-8.131,2.577-11.863,2.577c-3.852,0-7.125-0.934-9.82-2.799
		c-2.696-1.867-4.043-5.11-4.043-9.731c0-6.161,2.429-11.952,7.287-17.374c4.857-5.42,11.256-9.744,19.195-12.975
		c7.938-3.228,16.233-4.843,24.883-4.843c8.354,0,15.076,1.6,20.172,4.799s7.643,7.909,7.643,14.13c0,6.34-2.592,12.53-7.775,18.573
		c-5.186,6.043-11.613,11.213-19.283,15.507c-7.674,4.297-15.035,7.096-22.084,8.398c12.264,0.652,22.186,3.377,29.77,8.176
		c7.584,4.798,11.375,11.878,11.375,21.24c0,8.117-2.887,15.479-8.664,22.082c-5.775,6.607-13.285,11.775-22.527,15.508
		c-9.243,3.732-18.811,5.6-28.705,5.6c-11.139,0-20.055-2.371-26.749-7.109c-5.332-4.146-7.998-8.887-7.998-14.219
		c0-2.725,0.666-5.332,2-7.82c1.332-2.488,3.287-4.533,5.865-6.133c2.576-1.6,5.643-2.398,9.197-2.398
		c3.791,0,6.813,0.904,9.064,2.709c2.251,1.809,3.377,4.43,3.377,7.865c0,2.727-0.682,5.348-2.044,7.865
		c-1.363,2.52-3.243,4.682-5.644,6.486c-2.398,1.809-5.08,3.008-8.042,3.6c1.422,1.422,3.702,2.666,6.843,3.732
		c3.14,1.066,6.576,1.6,10.309,1.6c6.398,0,12.382-1.6,17.951-4.799c5.568-3.199,10.042-7.834,13.418-13.908
		c3.377-6.07,5.066-13.195,5.066-21.371c0-7.762-1.527-13.998-4.576-18.707c-3.053-4.71-7.244-7.332-12.576-7.865
		c-3.852,2.666-6.813,3.999-8.887,3.999c-2.074,0-3.11-0.858-3.11-2.577c0-2.429,2.636-3.644,7.909-3.644
		c1.303,0,2.191,0.03,2.666,0.089c4.857-2.133,9.287-5.079,13.287-8.842c3.998-3.762,7.182-8.132,9.553-13.108
		c2.369-4.977,3.555-10.278,3.555-15.907c0-11.078-4.682-16.618-14.041-16.618c-4.918,0-9.984,1.363-15.197,4.088
		c-5.214,2.726-9.539,6.265-12.975,10.62c-3.437,4.354-5.154,8.813-5.154,13.374c0,6.043,3.524,9.064,10.575,9.064
		c3.673,0,7.123-0.77,10.354-2.311c3.228-1.54,6.561-3.939,9.997-7.198l2.223,2.577
		C129.818,100.125,125.894,102.792,121.716,104.509z"/>
</g>
</svg>
