<?xml version="1.0" encoding="utf-8"?>
<!-- Generator: Adobe Illustrator 16.0.3, SVG Export Plug-In . SVG Version: 6.00 Build 0)  -->
<!DOCTYPE svg PUBLIC "-//W3C//DTD SVG 1.1//EN" "http://www.w3.org/Graphics/SVG/1.1/DTD/svg11.dtd">
<svg version="1.1" id="Layer_1" xmlns="http://www.w3.org/2000/svg" xmlns:xlink="http://www.w3.org/1999/xlink" x="0px" y="0px"
	 width="256.003px" height="256px" viewBox="0 0 256.003 256" enable-background="new 0 0 256.003 256" xml:space="preserve">
<g>
	<path fill="#6D6E71" d="M128.072,256H128c-8.372,0-16.746-0.814-24.89-2.419l0.948-4.813c7.833,1.544,15.888,2.327,23.942,2.327
		L128.072,256z M153.036,253.553l-0.954-4.811c7.892-1.566,15.657-3.923,23.081-7.004l1.881,4.528
		C169.321,249.473,161.244,251.924,153.036,253.553z M79.093,246.322c-7.717-3.192-15.161-7.172-22.126-11.827l2.725-4.077
		c6.698,4.477,13.856,8.303,21.277,11.373L79.093,246.322z M199.155,234.416l-2.73-4.074c6.681-4.477,12.952-9.631,18.641-15.324
		l3.469,3.468C212.62,224.403,206.101,229.763,199.155,234.416z M37.568,218.586c-5.925-5.916-11.289-12.432-15.942-19.37
		l4.073-2.732c4.476,6.674,9.635,12.941,15.334,18.632L37.568,218.586z M234.456,199.096l-4.077-2.729
		c4.48-6.693,8.311-13.849,11.386-21.27l4.531,1.877C243.097,184.692,239.113,192.135,234.456,199.096z M9.761,177.11
		c-3.211-7.723-5.667-15.798-7.299-24.004l4.811-0.956c1.569,7.888,3.93,15.652,7.018,23.076L9.761,177.11z M253.565,152.964
		l-4.81-0.952c1.553-7.854,2.34-15.934,2.34-24.012v-0.291H256V128C256,136.397,255.181,144.796,253.565,152.964z M4.904,128.143H0
		l0-0.168c0-8.322,0.809-16.672,2.405-24.794l4.813,0.945C5.683,111.938,4.904,119.97,4.904,128L4.904,128.143z M248.7,103.708
		c-1.579-7.889-3.948-15.651-7.044-23.07l4.526-1.888c3.22,7.717,5.684,15.79,7.326,23.996L248.7,103.708z M14.181,81.032
		l-4.532-1.873c3.189-7.721,7.164-15.167,11.814-22.134l4.08,2.722C21.07,66.447,17.248,73.608,14.181,81.032z M230.224,59.395
		c-4.483-6.668-9.649-12.931-15.355-18.613l3.462-3.475c5.932,5.908,11.302,12.419,15.963,19.352L230.224,59.395z M40.833,41.081
		l-3.472-3.462c5.91-5.927,12.424-11.294,19.361-15.953l2.734,4.071C52.784,30.218,46.519,35.38,40.833,41.081z M196.193,25.5
		c-6.703-4.467-13.866-8.285-21.291-11.348l1.869-4.533c7.723,3.184,15.172,7.154,22.143,11.801L196.193,25.5z M80.706,14.316
		L78.82,9.789c7.72-3.215,15.795-5.675,23.999-7.313l0.96,4.81C95.891,8.859,88.128,11.225,80.706,14.316z M151.804,7.204
		C144.017,5.678,136.008,4.904,128,4.904l-0.216,0V0l0.232,0c8.308,0,16.633,0.804,24.73,2.391L151.804,7.204z"/>
</g>
<g>
	<path fill="#6D6E71" d="M168.594,143.256l-5.064,19.906h-20.262l-7.377,27.637h-22.216l7.376-27.637H69.418l-0.355-3.822
		l97.22-99.975h4.711L148.6,143.256H168.594z M140.156,91.357l-50.387,51.899h36.613L140.156,91.357z"/>
</g>
</svg>
