<?xml version="1.0" encoding="utf-8"?>
<!-- Generator: Adobe Illustrator 16.0.3, SVG Export Plug-In . SVG Version: 6.00 Build 0)  -->
<!DOCTYPE svg PUBLIC "-//W3C//DTD SVG 1.1//EN" "http://www.w3.org/Graphics/SVG/1.1/DTD/svg11.dtd">
<svg version="1.1" id="Layer_1" xmlns="http://www.w3.org/2000/svg" xmlns:xlink="http://www.w3.org/1999/xlink" x="0px" y="0px"
	 width="256px" height="256px" viewBox="0 0 256 256" enable-background="new 0 0 256 256" xml:space="preserve">
<g>
	<path d="M128.003,256C57.42,256,0,198.578,0,128C0,57.421,57.42,0,128.003,0C198.573,0,256,57.421,256,128
		C256,198.578,198.573,256,128.003,256z M128.003,10.671C63.305,10.671,10.678,63.3,10.678,128
		c0,64.696,52.627,117.328,117.325,117.328c64.684,0,117.318-52.632,117.318-117.328C245.321,63.3,192.688,10.671,128.003,10.671z"
		/>
</g>
<g>
	<path d="M99.89,93.218c0.564,1.339,1.167,1.614,2.425,0.96c1.314-0.689,7.479-5.614,8.021-9.799
		c0.068-0.536,0.125-1.179-0.039-1.708c-0.854-2.757-1.739-5.507-2.675-8.242c-2.761-8.064-5.511-16.136-8.375-24.165
		c-0.325-0.911-1.161-1.857-2.018-2.307c-1.622-0.847-8.446-3.122-12.936-1.89c-0.786,0.218-0.9,0.589-0.65,1.318
		C85.508,52.829,99.004,91.107,99.89,93.218z"/>
	<path d="M208.583,177.871c-8.846-3.117-43.898-15.508-46.892-16.646c-0.774-0.289-1.268-0.189-1.821,0.368
		c-13.214,13.218-36.999-12.275-44.391-19.664c-7.389-7.393-32.878-31.179-19.667-44.393c0.557-0.557,0.657-1.05,0.372-1.821
		c-1.143-2.993-13.528-38.043-16.646-46.893c-0.293-0.836-0.711-1.104-1.55-0.679c-3.618,1.857-7.442,3.386-10.803,5.61
		c-4.125,2.718-7.686,6.146-10.589,10.275c-3.15,4.45-5.257,9.364-5.089,14.7c0.65,20.893,19.167,62.25,42.042,85.128
		c22.878,22.879,64.238,41.397,85.129,42.051c5.336,0.164,10.246-1.942,14.696-5.094c4.129-2.903,7.561-6.464,10.278-10.593
		c2.225-3.356,3.757-7.186,5.61-10.803C209.684,178.586,209.419,178.164,208.583,177.871z"/>
	<path d="M209.451,160.178c-0.453-0.856-1.396-1.692-2.311-2.014c-8.032-2.864-16.1-5.621-24.16-8.379
		c-2.735-0.936-5.489-1.821-8.25-2.675c-0.528-0.16-1.171-0.106-1.703-0.039c-4.183,0.543-9.11,6.703-9.796,8.021
		c-0.654,1.257-0.386,1.856,0.957,2.421c2.11,0.89,40.388,14.387,45.831,16.243c0.725,0.25,1.096,0.144,1.317-0.646
		C212.572,168.625,210.294,161.792,209.451,160.178z"/>
</g>
</svg>
