<?xml version="1.0" encoding="utf-8"?>
<!-- Generator: Adobe Illustrator 16.0.3, SVG Export Plug-In . SVG Version: 6.00 Build 0)  -->
<!DOCTYPE svg PUBLIC "-//W3C//DTD SVG 1.1//EN" "http://www.w3.org/Graphics/SVG/1.1/DTD/svg11.dtd">
<svg version="1.1" id="Layer_1" xmlns="http://www.w3.org/2000/svg" xmlns:xlink="http://www.w3.org/1999/xlink" x="0px" y="0px"
	 width="256px" height="256.002px" viewBox="0 0 256 256.002" enable-background="new 0 0 256 256.002" xml:space="preserve">
<g>
	<path d="M127.999,0C57.309,0,0,57.309,0,128.001s57.309,128.001,127.999,128.001c70.692,0,128.001-57.309,128.001-128.001
		S198.691,0,127.999,0z M127.999,236.311c-59.724,0-108.307-48.59-108.307-108.31c0-59.719,48.583-108.309,108.307-108.309
		c59.726,0,108.31,48.59,108.31,108.309C236.309,187.721,187.725,236.311,127.999,236.311z"/>
	<path d="M177.232,149.008c0-7.02-1.816-13.174-5.383-18.279c-3.551-5.129-8.075-8.821-13.467-10.948
		c-5.742-2.273-15.551-4.96-29.15-7.977c-8.742-1.929-11.309-3.561-12.592-4.771c-1.983-1.902-2.992-4.354-2.992-7.061
		c0-4.046,1.958-10.867,15.042-10.867c6.717,0,12.175,1.906,16.242,5.675c1.342,1.261,2.524,2.777,3.524,4.427l0.042,0.048
		l0.208,0.375c0.476,0.825,1.334,1.34,2.309,1.34h20.959c1.483,0,2.675-1.188,2.675-2.667c0-0.448-0.375-1.798-0.775-2.86
		c-5.575-14.598-16.559-23.021-33.483-25.821V57.515c0-2.254-1.85-4.096-4.116-4.096h-16.417c-2.242,0-4.083,1.844-4.083,4.096
		v12.567c-10.092,2.06-17.775,6.123-22.842,12.104c-5.684,6.819-8.467,14.375-8.467,23.119c0,7.846,2.508,14.573,7.658,20.635
		c5.133,6.038,17.925,11.15,38.092,15.286c5.8,1.16,9.825,2.596,12.333,4.327c2.959,2.024,4.55,5.083,4.55,8.75
		c0,4.894-2.925,10.679-16.791,10.679c-4.7,0-8.717-0.7-12.175-2.215c-4.867-2.063-8.575-5.594-10.967-10.541l-0.142-0.25
		l-0.059-0.178c-0.441-0.868-1.35-1.439-2.35-1.439H81.44c-1.458,0-2.675,1.213-2.675,2.577c0.033,0.398,0.217,1.231,0.208,1.257
		c5.542,18.081,17.6,28.408,36.8,31.59v12.706c0,2.256,1.842,4.096,4.075,4.096h16.425c2.267,0,4.108-1.844,4.108-4.096v-12.686
		c10.991-1.783,19.833-5.75,26.25-11.882C173.766,167.181,177.232,159.014,177.232,149.008z"/>
</g>
</svg>
