<?xml version="1.0" encoding="utf-8"?>
<!-- Generator: Adobe Illustrator 16.0.3, SVG Export Plug-In . SVG Version: 6.00 Build 0)  -->
<!DOCTYPE svg PUBLIC "-//W3C//DTD SVG 1.1//EN" "http://www.w3.org/Graphics/SVG/1.1/DTD/svg11.dtd">
<svg version="1.1" id="Layer_1" xmlns="http://www.w3.org/2000/svg" xmlns:xlink="http://www.w3.org/1999/xlink" x="0px" y="0px"
	 width="256px" height="256.002px" viewBox="0 0 256 256.002" enable-background="new 0 0 256 256.002" xml:space="preserve">
<g>
	<path d="M0,116.375v23.281h23.263v23.25h23.284v23.281v23.281h23.264h23.284v23.26h23.263V256h23.284v-23.271h23.264v-23.26h23.264
		h23.283v-23.281v-23.281h23.284v-23.25H256v-23.281h-23.264V93.094h-23.284V69.823v-23.26h-23.283h-23.264V23.281h-23.264V0
		h-23.284v23.281H93.095v23.281H69.811H46.547V23.281H23.263v23.281h23.284v23.26v23.271H23.263v23.281H0z M69.811,69.823h23.284
		v23.271h23.263v23.281h23.284V93.094h23.264V69.823h23.264v23.271h-23.264v23.281h-23.264v23.281h23.264v23.25h23.264v23.281
		h-23.264v-23.281h-23.264v-23.25h-23.284v23.25H93.095v23.281H69.811v-23.281h23.284v-23.25h23.263v-23.281H93.095V93.094H69.811
		V69.823L69.811,69.823z"/>
	<rect x="209.452" y="23.281" width="23.284" height="23.281"/>
	<rect x="209.452" y="209.469" width="23.284" height="23.26"/>
	<rect x="23.263" y="209.469" width="23.284" height="23.26"/>
</g>
</svg>
