<?xml version="1.0" encoding="utf-8"?>
<!-- Generator: Adobe Illustrator 16.0.3, SVG Export Plug-In . SVG Version: 6.00 Build 0)  -->
<!DOCTYPE svg PUBLIC "-//W3C//DTD SVG 1.1//EN" "http://www.w3.org/Graphics/SVG/1.1/DTD/svg11.dtd">
<svg version="1.1" id="Layer_1" xmlns="http://www.w3.org/2000/svg" xmlns:xlink="http://www.w3.org/1999/xlink" x="0px" y="0px"
	 width="256px" height="256px" viewBox="0 0 256 256" enable-background="new 0 0 256 256" xml:space="preserve">
<path d="M123.257,147.418l-90.402,90.394c-1.921,1.924-3.092,4.589-3.092,7.522c0,5.863,4.746,10.665,10.667,10.665
	c1.546,0,2.983-0.323,4.316-0.906c0,0,150.617-65.279,152.326-66.083c3.516-1.593,6.236-4.687,7.305-8.529l24.379-87.839
	l4.904,4.854c5.113,5.121,13.387,5.121,18.496,0c5.125-5.119,5.125-13.39,0-18.504L177.014,3.839
	c-5.117-5.119-13.389-5.119-18.502,0c-5.125,5.118-5.125,13.392,0,18.506l4.852,4.852L75.366,51.676
	c-3.842,1.127-6.936,3.898-8.539,7.521L0.854,211.418C0.321,212.693,0,214.085,0,215.574c0,5.921,4.8,10.667,10.667,10.667
	c3.042,0,5.762-1.229,7.679-3.25l90.244-90.239c-1.225-3.153-1.925-6.513-1.925-10.084c0-14.719,11.95-26.666,26.676-26.666
	c14.713,0,26.658,11.947,26.658,26.666c0,14.718-11.945,26.668-26.658,26.668C129.766,149.336,126.408,148.643,123.257,147.418z"/>
</svg>
