<?xml version="1.0" encoding="utf-8"?>
<!-- Generator: Adobe Illustrator 16.0.3, SVG Export Plug-In . SVG Version: 6.00 Build 0)  -->
<!DOCTYPE svg PUBLIC "-//W3C//DTD SVG 1.1//EN" "http://www.w3.org/Graphics/SVG/1.1/DTD/svg11.dtd">
<svg version="1.1" id="Layer_1" xmlns="http://www.w3.org/2000/svg" xmlns:xlink="http://www.w3.org/1999/xlink" x="0px" y="0px"
	 width="256px" height="245.286px" viewBox="0 0 256 245.286" enable-background="new 0 0 256 245.286" xml:space="preserve">
<g>
	<path d="M211.892,140.218c-0.619,1.485-1.621,2.821-2.915,3.829l-16.605,12.728l-8.274,21.245c-1.438,3.637-4.972,5.98-8.949,5.98
		h-4.161l35.307,61.286l10.104-39.857L256,216.646L211.892,140.218z"/>
	<path d="M71.136,179.547L57.65,157.825l-17.607-10.552L0,216.662l39.607-11.191l10.1,39.81L85.014,184h-5.743
		C75.973,184,72.862,182.371,71.136,179.547z"/>
	<path d="M124.202,38.249c-30.347,0-55.026,24.68-55.026,55.019s24.68,55.021,55.026,55.021c30.331,0,55.019-24.682,55.019-55.021
		S154.533,38.249,124.202,38.249z"/>
	<path d="M175.147,176l1.015-3.307c0.063-0.107,0.144-0.548,0.195-0.668l8.314-21.506l17.09-12.879
		c1.109-0.857,2.238-2.26,2.238-3.661v-23.015l11.764-19.936c0.799-1.396-0.413-3.113-1.22-4.509L204,66.585V43.57
		c0-1.693-1.424-3.257-2.934-4.029l-16.56-8.386l-8.206-16.581c-0.755-1.548-2.439-2.574-4.164-2.574h-23.027L129.162,0.521
		c-0.695-0.405-1.474-0.564-2.252-0.564s-1.557,0.185-2.252,0.588L104.71,12H81.683c-1.401,0-2.731,0.69-3.586,1.793L64.975,30.79
		L43.63,39.383C41.909,40.066,41,41.724,41,43.57v23.015L29.25,86.521c-0.811,1.396-0.646,3.113,0.152,4.509L41,110.965v23.015
		c0,1.588,0.618,3.077,1.983,3.892l21.704,13.015l13.217,21.527c0.083,0.136,0.167,0.942,0.267,1.067l1.099,2.52h2.412h8.878h14.149
		l19.947,10.746c0.695,0.406,1.474,0.193,2.252,0.193s1.558,0.384,2.252-0.02L149.109,176h16.33h6.697H175.147z M124.202,153.074
		c-32.982,0-59.807-26.83-59.807-59.807c0-32.974,26.824-59.803,59.807-59.803c32.967,0,59.799,26.829,59.799,59.803
		C184.001,126.244,157.169,153.074,124.202,153.074z"/>
</g>
</svg>
