<?xml version="1.0" encoding="utf-8"?>
<!-- Generator: Adobe Illustrator 16.0.3, SVG Export Plug-In . SVG Version: 6.00 Build 0)  -->
<!DOCTYPE svg PUBLIC "-//W3C//DTD SVG 1.1//EN" "http://www.w3.org/Graphics/SVG/1.1/DTD/svg11.dtd">
<svg version="1.1" id="Layer_1" xmlns="http://www.w3.org/2000/svg" xmlns:xlink="http://www.w3.org/1999/xlink" x="0px" y="0px"
	 width="237.885px" height="256px" viewBox="-7.132 5.992 237.885 256" enable-background="new -7.132 5.992 237.885 256"
	 xml:space="preserve">
<path fill="#fff" d="M230.743,157.236c-0.246-3.969-7.05-7.944-7.693-11.9c-0.836-5.136,4.349-10.239,2.838-15.252
	c-1.285-4.268-7.058-4.232-8.838-8.333c-1.881-4.335,0.199-12.797-2.237-16.864c-2.571-4.291-12.871-0.99-16.064-4.884
	c-3.969-4.839-1-16.752-5.938-20.807c-3.78-3.105-14.206,0.407-18.561-2.141c-3.038-1.779,0.141-9.77-3.182-11.241
	c-1.196-0.53-2.411-1.039-3.645-1.526c-5.339-2.11-12.66,2.473-18.085,6.412c-0.528,0.384-0.286,29.268-12.296,42.692
	c-8.023,8.966-44.956,41.685-60.057,14.837c-4.748-8.44,7.772-70.654-8.427-87.012c-1.532-1.546-2.5-3.562-3.868-5.48
	c4.98-4.397,6.74-9.654,3.317-15.812c-2.798-5.002-7.673-6.57-15.272-5.203c-2.057-5.703-6.042-9.083-12.273-8.702
	c-5.999,0.372-9.506,4.059-11.033,9.92c-3.497-1.282-7.047-1.77-10.206,0.222c-1.907,1.209-3.73,2.979-4.833,4.918
	c-2.756,4.864-1.209,10.046,4.059,14.826c-3.053,3.911-5.363,8.32-5.618,13.312c-0.392,1.313-0.688,2.66-0.879,4.048
	c-0.731,1.749-1.875,3.244-3.328,4.738c-3.804,3.91-6.062,8.149-6.242,8.149c2.331,1.537,8.955,6.423,13.301,6.793
	c0.021,0.011,0.053,0.022,0.075,0.032c3.062,5.277,7.662,9.559,13.183,12.22c3.317,16.978-46.206,31.181-34.189,89.722
	c4.266,20.783,36.187,41.004,55.03,45.423c4.706,1.103,3.652,29.851,3.652,36.044c0,5.378,17.941,5.61,24.222,5.604
	c5.99-0.008,23.354,0,23.354-4.281c0-6.775,5.268-38.155,11.796-38.113c21.811,0.158,24.942-5.876,60.622,38.988
	c6.252,7.86,6.483-1.718,16.958-15.1c3.202-1.719,6.22-3.681,9.047-5.859c4.507-3.47,3.237-12.784,6.787-17.244
	c3.139-3.943,11.201-2.935,13.586-7.497c1.832-3.503-1.859-10.346-0.475-14.139c1.688-4.627,8.341-6.265,9.357-11.21
	c0.973-4.73-6.844-11.698-6.491-16.613C222.571,165.708,231.072,162.538,230.743,157.236z M39.508,52.282
	c2.205,0.01,3.954,1.78,3.943,3.975c-0.022,2.204-1.77,3.911-3.996,3.899c-2.236-0.021-3.996-1.77-3.975-3.953
	C35.502,54.02,37.303,52.271,39.508,52.282z M12.538,150.541l-7.622-9.742l7.622-9.742l7.623,9.742L12.538,150.541z M29.495,171.737
	l-7.623-9.742l7.623-9.742l7.623,9.742L29.495,171.737z M29.495,129.345l-7.623-9.742l7.623-9.742l7.623,9.742L29.495,129.345z
	 M46.453,192.934l-7.623-9.742l7.623-9.742l7.622,9.742L46.453,192.934z M46.453,150.541l-7.623-9.742l7.623-9.742l7.622,9.742
	L46.453,150.541z M46.453,108.149l-7.623-9.742l7.623-9.742l7.622,9.742L46.453,108.149z M63.41,109.861l7.623,9.742l-7.623,9.742
	l-7.623-9.742L63.41,109.861z M63.41,152.253l7.623,9.742l-7.623,9.742l-7.623-9.742L63.41,152.253z M71.277,239.706l-1.713,4.734
	l-1.713-4.734l-5.353,4.734l7.065-25.052l7.066,25.052L71.277,239.706z M72.744,183.191l7.623-9.742l7.623,9.742l-7.623,9.742
	L72.744,183.191z M89.294,239.706l-1.713,4.734l-1.713-4.734l-5.353,4.734l7.065-25.052l7.066,25.052L89.294,239.706z
	 M97.324,171.737l-7.623-9.742l7.623-9.742l7.623,9.742L97.324,171.737z M140.06,168.931c17.594,11.859,15.462,16.638,15.462,16.638
	s-4.146,5.764-32.904-10.84c-1.033-3.858-7.48-12.476-7.48-12.476s6.447-8.617,7.48-12.478
	c28.759-16.603,32.904-10.838,32.904-10.838s2.132,4.778-15.464,16.638c21.169,1.473,21.711,6.678,21.711,6.678
	S161.227,167.458,140.06,168.931z M167.31,129.683c4.718-2.724,5.879-0.946,5.879-0.946s0.958,1.895-3.759,4.618
	c-4.72,2.724-5.879,0.946-5.879,0.946S162.591,132.407,167.31,129.683z M176.606,160.132c5.449,0,5.565,2.121,5.565,2.121
	s-0.118,2.119-5.567,2.119c-5.447,0-5.563-2.12-5.563-2.12S171.157,160.133,176.606,160.132z M163.551,190.204
	c0,0,1.159-1.778,5.881,0.945c4.718,2.725,3.757,4.619,3.757,4.619s-1.161,1.777-5.879-0.946
	C162.591,192.098,163.551,190.204,163.551,190.204z M194.366,184.434c0.242,1.41,0.359,2.851,0.359,4.314
	c0,14.634-11.858,26.495-26.496,26.495c-0.583,0-1.154-0.023-1.728-0.064c8.882-7.208,15.941-16.597,20.34-27.364
	c1.716-4.165,3.02-8.532,3.89-13.067c0.805-4.219,1.227-8.574,1.227-13.024c0-4.167-0.37-8.257-1.069-12.221
	c-0.795-4.386-1.991-8.625-3.571-12.685c-4.175-10.757-10.959-20.2-19.597-27.544c0.17-0.01,0.34-0.01,0.509-0.01
	c14.638,0,26.496,11.858,26.496,26.495c0,1.461-0.117,2.902-0.359,4.312c7.238,4.718,12.018,12.888,12.018,22.184
	C206.383,171.547,201.604,179.717,194.366,184.434z"/>
</svg>
