<?xml version="1.0" encoding="utf-8"?>
<!-- Generator: Adobe Illustrator 16.0.3, SVG Export Plug-In . SVG Version: 6.00 Build 0)  -->
<!DOCTYPE svg PUBLIC "-//W3C//DTD SVG 1.1//EN" "http://www.w3.org/Graphics/SVG/1.1/DTD/svg11.dtd">
<svg version="1.1" id="Layer_1" xmlns="http://www.w3.org/2000/svg" xmlns:xlink="http://www.w3.org/1999/xlink" x="0px" y="0px"
	 width="256px" height="76.43px" viewBox="0 0 256 76.43" enable-background="new 0 0 256 76.43" xml:space="preserve">
<g>
	<g>
		<polygon fill="#DD7272" points="4,0 4,62.072 4,67.878 4,73.36 10.734,66 10.854,66 16.286,71.481 21.726,66 22.042,66 
			27.476,71.481 32.914,66 33.23,66 38.662,71.481 44.101,66 44.419,66 49.853,71.481 55.287,66 55.605,66 61.039,71.481 66.478,66 
			66.796,66 72.226,71.481 77.664,66 77.981,66 83.416,71.481 88.85,66 89.168,66 94.603,71.481 100.04,66 100.358,66 
			105.788,71.481 111.227,66 111.545,66 116.979,71.481 122.415,66 122.896,66 128.335,71.481 133.769,66 133.926,66 
			139.354,71.481 144.792,66 145.108,66 150.542,71.481 155.979,66 156.296,66 161.73,71.481 167.162,66 167.484,66 172.919,71.481 
			178.354,66 178.673,66 184.107,71.481 189.543,66 189.861,66 195.296,71.481 200.729,66 201.048,66 206.484,71.481 211.916,66 
			212.234,66 217.672,71.481 223.103,66 223.425,66 228.856,71.481 234.293,66 234.549,66 240.014,71.481 245.215,66 245.517,66 
			252,73.36 252,67.878 252,62.072 252,0 		"/>
		<path fill="#DD7272" d="M7.252,72.957l3.442,3.473l3.442-3.473l-3.442-3.476L7.252,72.957z M10.694,74.261l-1.293-1.304
			l1.293-1.302l1.292,1.302L10.694,74.261z"/>
		<path fill="#DD7272" d="M18.44,72.957l3.444,3.473l3.437-3.473l-3.437-3.476L18.44,72.957z M21.885,74.261l-1.295-1.304
			l1.295-1.302l1.285,1.302L21.885,74.261z"/>
		<path fill="#DD7272" d="M29.629,72.957l3.442,3.473l3.444-3.473l-3.444-3.476L29.629,72.957z M33.071,74.261l-1.293-1.304
			l1.293-1.302l1.285,1.302L33.071,74.261z"/>
		<path fill="#DD7272" d="M40.815,72.957l3.442,3.473l3.442-3.473l-3.442-3.476L40.815,72.957z M44.258,74.261l-1.292-1.304
			l1.292-1.302l1.293,1.302L44.258,74.261z"/>
		<path fill="#DD7272" d="M52.006,72.957l3.44,3.473l3.444-3.473l-3.444-3.476L52.006,72.957z M55.446,74.261l-1.292-1.304
			l1.292-1.302l1.287,1.302L55.446,74.261z"/>
		<path fill="#DD7272" d="M63.192,72.957l3.442,3.473l3.446-3.473l-3.446-3.476L63.192,72.957z M66.635,74.261l-1.292-1.304
			l1.292-1.302l1.287,1.302L66.635,74.261z"/>
		<path fill="#DD7272" d="M74.379,72.957l3.443,3.473l3.44-3.473l-3.44-3.476L74.379,72.957z M77.822,74.261l-1.291-1.304
			l1.291-1.302l1.292,1.302L77.822,74.261z"/>
		<path fill="#DD7272" d="M85.564,72.957l3.446,3.473l3.446-3.473l-3.446-3.476L85.564,72.957z M89.011,74.261l-1.295-1.304
			l1.295-1.302l1.288,1.302L89.011,74.261z"/>
		<path fill="#DD7272" d="M96.755,72.957l3.444,3.473l3.444-3.473l-3.444-3.476L96.755,72.957z M100.199,74.261l-1.291-1.304
			l1.291-1.302l1.292,1.302L100.199,74.261z"/>
		<path fill="#DD7272" d="M107.945,72.957l3.442,3.473l3.438-3.473l-3.438-3.476L107.945,72.957z M111.388,74.261l-1.293-1.304
			l1.293-1.302l1.287,1.302L111.388,74.261z"/>
		<path fill="#DD7272" d="M119.13,72.957l3.444,3.473l3.442-3.473l-3.442-3.476L119.13,72.957z M122.574,74.261l-1.289-1.304
			l1.289-1.302l1.289,1.302L122.574,74.261z"/>
		<path fill="#DD7272" d="M130.318,72.957l3.446,3.473l3.442-3.473l-3.442-3.476L130.318,72.957z M133.765,74.261l-1.293-1.304
			l1.293-1.302l1.289,1.302L133.765,74.261z"/>
		<path fill="#DD7272" d="M141.507,72.957l3.444,3.473l3.442-3.473l-3.442-3.476L141.507,72.957z M144.951,74.261l-1.294-1.304
			l1.294-1.302l1.289,1.302L144.951,74.261z"/>
		<path fill="#DD7272" d="M152.693,72.957l3.444,3.473l3.446-3.473l-3.446-3.476L152.693,72.957z M156.138,74.261l-1.29-1.304
			l1.29-1.302l1.289,1.302L156.138,74.261z"/>
		<path fill="#DD7272" d="M163.884,72.957l3.438,3.473l3.448-3.473l-3.448-3.476L163.884,72.957z M167.321,74.261l-1.287-1.304
			l1.287-1.302l1.296,1.302L167.321,74.261z"/>
		<path fill="#DD7272" d="M175.069,72.957l3.444,3.473l3.442-3.473l-3.442-3.476L175.069,72.957z M178.514,74.261l-1.293-1.304
			l1.293-1.302l1.29,1.302L178.514,74.261z"/>
		<path fill="#DD7272" d="M186.258,72.957l3.442,3.473l3.442-3.473l-3.442-3.476L186.258,72.957z M189.7,74.261l-1.289-1.304
			l1.289-1.302l1.287,1.302L189.7,74.261z"/>
		<path fill="#DD7272" d="M197.446,72.957l3.442,3.473l3.44-3.473l-3.44-3.476L197.446,72.957z M200.889,74.261l-1.291-1.304
			l1.291-1.302l1.291,1.302L200.889,74.261z"/>
		<path fill="#DD7272" d="M208.635,72.957l3.44,3.473l3.448-3.473l-3.448-3.476L208.635,72.957z M212.075,74.261l-1.292-1.304
			l1.292-1.302l1.291,1.302L212.075,74.261z"/>
		<path fill="#DD7272" d="M219.821,72.957l3.442,3.473l3.442-3.473l-3.442-3.476L219.821,72.957z M223.264,74.261l-1.287-1.304
			l1.287-1.302l1.293,1.302L223.264,74.261z"/>
		<path fill="#DD7272" d="M231.012,72.957l3.44,3.473l3.444-3.473l-3.444-3.476L231.012,72.957z M234.452,74.261l-1.292-1.304
			l1.292-1.302l1.291,1.302L234.452,74.261z"/>
		<path fill="#DD7272" d="M242.198,72.957l3.442,3.473l3.441-3.473l-3.441-3.476L242.198,72.957z M245.641,74.261l-1.288-1.304
			l1.288-1.302l1.289,1.302L245.641,74.261z"/>
	</g>
	<polyline fill="#B55D5D" points="4.238,0 4.238,13.252 0,13.252 	"/>
	<polygon fill="#B55D5D" points="251.763,0 251.763,13.252 256,13.252 	"/>
	<g>
		<path fill="#FFFFFF" d="M27.354,41.649c0,0.84,0.085,1.453,0.256,1.838s0.483,0.642,0.938,0.769s1.169,0.19,2.146,0.19v0.688
			c-2.695-0.059-4.756-0.088-6.182-0.088c-0.332,0-2.124,0.029-5.376,0.088v-0.601c0.645-0.029,1.111-0.107,1.399-0.234
			s0.483-0.361,0.586-0.703s0.154-0.889,0.154-1.641V27.074c0-0.752-0.054-1.299-0.161-1.641s-0.305-0.576-0.593-0.703
			s-0.75-0.205-1.384-0.234v-0.601c1.143,0.059,2.866,0.088,5.171,0.088c0.82,0,1.733-0.01,2.739-0.029s1.699-0.029,2.08-0.029
			c1.982,0,3.65,0.247,5.002,0.74s2.363,1.184,3.033,2.073c0.668,0.889,1.003,1.924,1.003,3.105c0,1.104-0.298,2.161-0.894,3.171
			s-1.616,1.853-3.062,2.527s-3.359,1.011-5.742,1.011h-1.113V41.649z M31.074,34.391c0.527-1.04,0.791-2.449,0.791-4.226
			c0-1.943-0.222-3.374-0.667-4.292s-1.184-1.377-2.219-1.377c-0.459,0-0.803,0.071-1.033,0.212s-0.386,0.393-0.469,0.754
			s-0.125,0.898-0.125,1.611v8.877h0.82C29.58,35.951,30.547,35.431,31.074,34.391z"/>
		<path fill="#FFFFFF" d="M58.427,24.76c1.699,0.859,3.018,2.107,3.955,3.743s1.406,3.582,1.406,5.837
			c0,2.207-0.481,4.16-1.442,5.859c-0.963,1.699-2.303,3.018-4.021,3.955s-3.677,1.406-5.874,1.406c-2.266,0-4.248-0.43-5.947-1.289
			s-3.018-2.107-3.955-3.743s-1.406-3.582-1.406-5.837c0-2.207,0.48-4.16,1.442-5.859s2.301-3.018,4.014-3.955
			c1.715-0.938,3.675-1.406,5.882-1.406C54.745,23.471,56.728,23.9,58.427,24.76z M49.77,25.353
			c-0.742,0.894-1.316,2.139-1.721,3.735c-0.406,1.597-0.608,3.425-0.608,5.486c0,2.07,0.229,3.899,0.688,5.486
			s1.079,2.81,1.86,3.669s1.641,1.289,2.578,1.289c0.986,0,1.851-0.447,2.593-1.34s1.315-2.139,1.721-3.735s0.608-3.425,0.608-5.486
			c0-2.07-0.229-3.899-0.688-5.486s-1.079-2.81-1.86-3.669s-1.641-1.289-2.578-1.289C51.376,24.013,50.512,24.459,49.77,25.353z"/>
		<path fill="#FFFFFF" d="M68.971,25.272c0.112,0.283,0.286,0.425,0.521,0.425c0.137,0,0.327-0.093,0.571-0.278
			c0.625-0.449,1.174-0.803,1.648-1.062c0.473-0.259,1.055-0.471,1.742-0.637c0.689-0.166,1.517-0.249,2.483-0.249
			c1.445,0,2.729,0.183,3.853,0.549s1.997,0.891,2.622,1.575s0.938,1.489,0.938,2.417c0,1.035-0.386,1.956-1.157,2.761
			s-1.733,1.465-2.886,1.978s-2.334,0.891-3.545,1.135c1.445,0.02,2.835,0.237,4.167,0.652c1.334,0.415,2.427,1.038,3.281,1.868
			s1.282,1.841,1.282,3.032c0,1.26-0.486,2.354-1.458,3.281s-2.236,1.633-3.793,2.117c-1.559,0.483-3.191,0.725-4.9,0.725
			c-2.578,0-4.595-0.552-6.05-1.655c-0.508-0.381-0.936-0.842-1.282-1.384s-0.52-1.13-0.52-1.765c0-0.625,0.144-1.167,0.432-1.626
			s0.674-0.808,1.158-1.047c0.482-0.239,1.013-0.359,1.589-0.359c0.908,0,1.611,0.247,2.109,0.74s0.747,1.218,0.747,2.175
			c0,0.742-0.264,1.396-0.791,1.963s-1.255,0.972-2.183,1.216c1.025,0.654,2.334,0.981,3.926,0.981c1.65,0,2.954-0.449,3.911-1.348
			s1.436-2.266,1.436-4.102c0-0.898-0.122-1.731-0.366-2.498s-0.63-1.399-1.157-1.897s-1.201-0.767-2.021-0.806
			c-0.479,0.264-0.898,0.396-1.26,0.396c-0.439,0-0.659-0.171-0.659-0.513c0-0.322,0.239-0.483,0.718-0.483
			c0.205,0,0.615,0.063,1.23,0.19c0.869-0.41,1.477-1.077,1.824-2c0.346-0.923,0.52-1.926,0.52-3.01
			c0-1.494-0.291-2.568-0.871-3.223c-0.582-0.654-1.404-0.981-2.469-0.981c-1.709,0-3.018,0.63-3.926,1.89s-1.426,2.92-1.553,4.98
			h-0.688c0-3.408-0.044-5.908-0.132-7.5H68.7C68.769,24.53,68.858,24.989,68.971,25.272z"/>
		<path fill="#FFFFFF" d="M108.33,24.73c-0.283,0.127-0.479,0.361-0.586,0.703s-0.161,0.889-0.161,1.641v14.883
			c0,0.752,0.054,1.299,0.161,1.641s0.303,0.576,0.586,0.703s0.742,0.205,1.377,0.234v0.601c-1.123-0.059-2.9-0.088-5.332-0.088
			c-2.168,0-3.838,0.029-5.01,0.088v-0.601c0.635-0.029,1.096-0.107,1.384-0.234s0.484-0.361,0.586-0.703
			c0.104-0.342,0.154-0.889,0.154-1.641V27.074c0-0.752-0.062-1.306-0.184-1.663s-0.349-0.598-0.681-0.725s-0.854-0.19-1.567-0.19
			h-1.89c-0.703,0-1.224,0.063-1.56,0.19c-0.338,0.127-0.567,0.369-0.689,0.725s-0.183,0.911-0.183,1.663v14.883
			c0,0.752,0.054,1.299,0.161,1.641s0.305,0.576,0.594,0.703c0.287,0.127,0.749,0.205,1.384,0.234v0.601
			c-1.172-0.059-2.842-0.088-5.01-0.088c-2.422,0-4.204,0.029-5.347,0.088v-0.601c0.635-0.029,1.096-0.107,1.385-0.234
			c0.287-0.127,0.485-0.361,0.593-0.703s0.161-0.889,0.161-1.641V27.074c0-0.752-0.054-1.299-0.161-1.641s-0.306-0.576-0.593-0.703
			c-0.289-0.127-0.75-0.205-1.385-0.234v-0.601c1.143,0.059,2.925,0.088,5.347,0.088c0.879,0,2.046-0.015,3.501-0.044
			s2.388-0.044,2.798-0.044s1.328,0.015,2.754,0.044s2.578,0.044,3.457,0.044c2.432,0,4.209-0.029,5.332-0.088v0.601
			C109.072,24.525,108.613,24.604,108.33,24.73z"/>
		<path fill="#FFFFFF" d="M121.189,41.649c0,0.84,0.085,1.453,0.257,1.838c0.17,0.386,0.482,0.642,0.938,0.769
			c0.453,0.127,1.169,0.19,2.146,0.19v0.688c-2.695-0.059-4.756-0.088-6.182-0.088c-0.332,0-2.124,0.029-5.376,0.088v-0.601
			c0.645-0.029,1.11-0.107,1.398-0.234s0.484-0.361,0.586-0.703c0.104-0.342,0.154-0.889,0.154-1.641V27.074
			c0-0.752-0.054-1.299-0.161-1.641s-0.306-0.576-0.593-0.703c-0.289-0.127-0.75-0.205-1.385-0.234v-0.601
			c1.143,0.059,2.866,0.088,5.171,0.088c0.82,0,1.733-0.01,2.739-0.029s1.699-0.029,2.08-0.029c1.982,0,3.649,0.247,5.002,0.74
			s2.363,1.184,3.033,2.073c0.668,0.889,1.003,1.924,1.003,3.105c0,1.104-0.298,2.161-0.894,3.171s-1.616,1.853-3.062,2.527
			s-3.359,1.011-5.742,1.011h-1.113V41.649z M124.91,34.391c0.527-1.04,0.791-2.449,0.791-4.226c0-1.943-0.223-3.374-0.667-4.292
			s-1.184-1.377-2.219-1.377c-0.459,0-0.804,0.071-1.033,0.212s-0.386,0.393-0.469,0.754s-0.124,0.898-0.124,1.611v8.877h0.82
			C123.416,35.951,124.383,35.431,124.91,34.391z"/>
		<path fill="#FFFFFF" d="M152.263,24.76c1.699,0.859,3.018,2.107,3.955,3.743s1.406,3.582,1.406,5.837
			c0,2.207-0.481,4.16-1.442,5.859c-0.963,1.699-2.303,3.018-4.021,3.955s-3.677,1.406-5.874,1.406c-2.266,0-4.248-0.43-5.947-1.289
			s-3.018-2.107-3.955-3.743s-1.406-3.582-1.406-5.837c0-2.207,0.48-4.16,1.442-5.859s2.301-3.018,4.014-3.955
			c1.715-0.938,3.675-1.406,5.882-1.406C148.581,23.471,150.563,23.9,152.263,24.76z M143.605,25.353
			c-0.742,0.894-1.316,2.139-1.721,3.735c-0.406,1.597-0.608,3.425-0.608,5.486c0,2.07,0.229,3.899,0.688,5.486
			s1.079,2.81,1.86,3.669s1.641,1.289,2.578,1.289c0.986,0,1.851-0.447,2.593-1.34s1.315-2.139,1.721-3.735s0.608-3.425,0.608-5.486
			c0-2.07-0.229-3.899-0.688-5.486s-1.079-2.81-1.86-3.669s-1.641-1.289-2.578-1.289C145.212,24.013,144.348,24.459,143.605,25.353z
			"/>
		<path fill="#FFFFFF" d="M177.794,48.681c0,0.83,0.029,1.499,0.088,2.007h-0.688c-0.361-1.982-1.063-3.403-2.102-4.263
			c-1.041-0.859-2.278-1.289-3.714-1.289h-6.416c-1.436,0-2.673,0.43-3.714,1.289c-1.039,0.859-1.745,2.28-2.116,4.263h-0.688
			c0.059-0.508,0.088-1.177,0.088-2.007c0-1.221-0.068-2.603-0.205-4.146h0.542c1.426,0,2.515-0.833,3.267-2.498
			s1.265-3.611,1.538-5.837s0.532-5.269,0.776-9.126c0.02-0.313,0.029-0.532,0.029-0.659c0-0.518-0.073-0.906-0.22-1.165
			s-0.391-0.442-0.732-0.549s-0.845-0.176-1.509-0.205v-0.601c0.84,0.059,1.87,0.088,3.091,0.088c0.303,0,0.747-0.015,1.333-0.044
			s1.021-0.044,1.304-0.044c0.498,0,1.191,0.015,2.08,0.044s1.626,0.044,2.212,0.044c2.383,0,4.175-0.029,5.376-0.088v0.601
			c-0.723,0.029-1.248,0.107-1.575,0.234s-0.552,0.361-0.674,0.703s-0.183,0.889-0.183,1.641v14.883c0,0.762,0.054,1.318,0.161,1.67
			s0.305,0.591,0.594,0.718c0.287,0.127,0.744,0.19,1.369,0.19h0.908C177.867,46.039,177.794,47.421,177.794,48.681z
			 M168.683,25.448c-0.137-0.371-0.335-0.623-0.593-0.754c-0.26-0.132-0.604-0.198-1.033-0.198h-0.396
			c-0.42,0-0.765,0.186-1.032,0.557c-0.27,0.371-0.433,1.045-0.491,2.021c-0.059,0.625-0.198,2.488-0.417,5.588
			c-0.221,3.101-0.631,5.674-1.23,7.72c-0.602,2.046-1.468,3.43-2.601,4.153h5.566c0.703,0,1.224-0.063,1.56-0.19
			c0.338-0.127,0.566-0.369,0.689-0.725c0.121-0.356,0.183-0.911,0.183-1.663V27.074C168.888,26.361,168.819,25.819,168.683,25.448z
			"/>
		<path fill="#FFFFFF" d="M200.994,44.044c0.313,0.308,0.62,0.471,0.923,0.491v0.601c-1.445-0.059-3.267-0.088-5.464-0.088
			c-2.285,0-3.965,0.029-5.039,0.088v-0.601c0.752-0.029,1.291-0.122,1.618-0.278s0.491-0.43,0.491-0.82
			c0-0.303-0.122-0.776-0.366-1.421l-1.787-4.922h-6.05l-0.513,1.348c-0.645,1.68-0.967,2.983-0.967,3.911
			c0,0.82,0.227,1.382,0.682,1.685c0.453,0.303,1.13,0.469,2.028,0.498v0.601c-1.494-0.059-2.803-0.088-3.926-0.088
			c-0.947,0-1.719,0.029-2.314,0.088v-0.601c0.488-0.078,0.954-0.386,1.399-0.923c0.443-0.537,0.896-1.401,1.354-2.593l6.665-17.124
			c0.43,0.039,0.957,0.059,1.582,0.059s1.147-0.02,1.567-0.059l7.266,18.721C200.398,43.261,200.682,43.737,200.994,44.044z
			 M188.44,28.993l-2.886,7.5h5.61L188.44,28.993z"/>
		<path fill="#FFFFFF" d="M234.211,45.194c-0.723,0.244-1.563,0.366-2.52,0.366c-1.387,0-2.461-0.249-3.223-0.747
			s-1.226-1.333-1.392-2.505l-0.791-5.156c-0.107-0.684-0.276-1.223-0.505-1.619c-0.23-0.396-0.553-0.691-0.967-0.886
			c-0.416-0.195-0.965-0.317-1.648-0.366v7.676c0,0.752,0.054,1.299,0.161,1.641s0.305,0.576,0.593,0.703s0.75,0.205,1.385,0.234
			v0.601c-1.172-0.059-2.842-0.088-5.01-0.088c-2.422,0-4.204,0.029-5.347,0.088v-0.601c0.645-0.029,1.11-0.107,1.399-0.234
			c0.287-0.127,0.482-0.361,0.586-0.703c0.102-0.342,0.153-0.889,0.153-1.641v-7.676c-0.684,0.049-1.233,0.171-1.647,0.366
			c-0.416,0.195-0.738,0.491-0.967,0.886c-0.23,0.396-0.398,0.935-0.506,1.619l-0.791,5.156c-0.166,1.172-0.63,2.007-1.392,2.505
			s-1.836,0.747-3.223,0.747c-0.908,0-1.704-0.125-2.388-0.374s-1.299-0.667-1.846-1.252l0.396-0.396
			c0.254,0.264,0.552,0.396,0.894,0.396c0.361,0,0.645-0.142,0.85-0.425s0.381-0.791,0.527-1.523l0.938-4.175
			c0.195-0.928,0.591-1.675,1.187-2.241s1.403-0.986,2.425-1.26c1.02-0.273,2.302-0.439,3.845-0.498
			c-0.996-0.273-1.733-0.737-2.212-1.392c-0.293-0.42-0.486-0.92-0.578-1.501c-0.094-0.581-0.162-1.47-0.205-2.666
			c-0.045-1.196-0.184-2.048-0.418-2.556c-0.195-0.449-0.527-0.837-0.996-1.165s-1.016-0.491-1.641-0.491
			c-0.459,0-0.796,0.083-1.011,0.249c0.586,0.098,1.115,0.3,1.589,0.608s0.848,0.696,1.121,1.165s0.41,0.977,0.41,1.523
			c0,0.732-0.237,1.301-0.711,1.707s-1.11,0.608-1.911,0.608c-0.645,0-1.226-0.129-1.743-0.388s-0.926-0.627-1.223-1.106
			c-0.299-0.479-0.447-1.04-0.447-1.685c0-0.752,0.192-1.372,0.578-1.86s0.862-0.842,1.429-1.062s1.128-0.33,1.685-0.33
			c0.479,0,1.064,0.117,1.758,0.352s1.245,0.737,1.655,1.509c0.332,0.596,0.515,1.448,0.55,2.556
			c0.033,1.108,0.08,1.968,0.139,2.578s0.259,1.16,0.601,1.648c0.596,0.85,1.689,1.382,3.281,1.597v-6.636
			c0-0.752-0.054-1.299-0.161-1.641s-0.306-0.576-0.594-0.703s-0.749-0.205-1.384-0.234v-0.601c1.143,0.059,2.925,0.088,5.347,0.088
			c2.168,0,3.838-0.029,5.01-0.088v0.601c-0.645,0.029-1.111,0.107-1.398,0.234c-0.289,0.127-0.484,0.361-0.586,0.703
			c-0.104,0.342-0.154,0.889-0.154,1.641v6.636c1.592-0.215,2.686-0.747,3.281-1.597c0.273-0.4,0.451-0.867,0.535-1.399
			c0.082-0.532,0.146-1.414,0.189-2.644c0.045-1.23,0.232-2.144,0.564-2.739c0.41-0.771,0.962-1.274,1.655-1.509
			s1.279-0.352,1.758-0.352c0.547,0,1.104,0.11,1.67,0.33s1.045,0.574,1.436,1.062s0.586,1.108,0.586,1.86
			c0,0.645-0.149,1.206-0.446,1.685c-0.299,0.479-0.706,0.847-1.224,1.106s-1.099,0.388-1.743,0.388
			c-0.801,0-1.438-0.203-1.912-0.608s-0.71-0.974-0.71-1.707c0-0.547,0.137-1.055,0.41-1.523s0.646-0.857,1.12-1.165
			s1.004-0.51,1.59-0.608c-0.215-0.166-0.552-0.249-1.011-0.249c-0.625,0-1.175,0.161-1.647,0.483
			c-0.475,0.322-0.809,0.713-1.004,1.172c-0.234,0.508-0.371,1.311-0.41,2.41s-0.093,1.97-0.161,2.615s-0.273,1.211-0.615,1.699
			c-0.479,0.654-1.211,1.113-2.197,1.377c1.602,0.068,2.935,0.239,3.999,0.513s1.909,0.691,2.534,1.252s1.04,1.311,1.245,2.249
			l0.864,4.175c0.146,0.732,0.322,1.24,0.527,1.523s0.488,0.425,0.85,0.425c0.342,0,0.645-0.132,0.908-0.396l0.381,0.396
			C235.593,44.53,234.934,44.95,234.211,45.194z"/>
	</g>
</g>
</svg>
