<?xml version="1.0" encoding="utf-8"?>
<!-- Generator: Adobe Illustrator 16.0.3, SVG Export Plug-In . SVG Version: 6.00 Build 0)  -->
<!DOCTYPE svg PUBLIC "-//W3C//DTD SVG 1.1//EN" "http://www.w3.org/Graphics/SVG/1.1/DTD/svg11.dtd">
<svg version="1.1" id="Layer_1" xmlns="http://www.w3.org/2000/svg" xmlns:xlink="http://www.w3.org/1999/xlink" x="0px" y="0px"
	 width="161.143px" height="256px" viewBox="0 0 161.143 256" enable-background="new 0 0 161.143 256" xml:space="preserve">
<g>
	<polygon points="70.286,34.37 80.46,26.958 90.634,34.304 86.738,20.917 96.912,12 84.339,12 80.46,0.035 76.565,12 63.992,12 
		74.165,20.9 	"/>
	<path d="M105.64,87.12C91.57,56.295,80.575,32.496,80.575,32.496s-8.177,17.668-19.443,42.289
		C67.279,79.42,82.317,88.344,105.64,87.12z"/>
	<path d="M119.075,116.671c-3.188-7.043-6.352-14.003-9.409-20.717c-7.445,0.756-31.581,1.759-51.854-13.896
		c-7.198,15.77-15.367,33.734-23.354,51.451C49.061,136.517,90.289,142.047,119.075,116.671z"/>
	<path d="M145.874,176.587c-6.92-15.771-15.039-33.907-23.158-51.879c-9.82,8.752-38.755,28.063-90.313,13.37
		c-2.235,4.98-4.454,9.91-6.615,14.759C44.918,182.536,106.453,202.309,145.874,176.587z"/>
	<path d="M161.143,212.449c-2.613-6.558-6.427-15.564-10.979-26.051c-60.844,28.557-105.483,5.785-127.301-26.987
		C13.124,181.287,4.668,200.747,0,212.449c7.371,4.035,36.298,13.502,80.575,13.502
		C124.836,225.951,153.771,216.484,161.143,212.449z"/>
	<path d="M51,230.659C51,238.4,51,256,51,256h51c0,0,0-17.6,0-25.341c-9,1.052-17.199,1.258-25.5,1.258S59,231.711,51,230.659z"/>
</g>
</svg>
