<?xml version="1.0" encoding="utf-8"?>
<!-- Generator: Adobe Illustrator 16.0.3, SVG Export Plug-In . SVG Version: 6.00 Build 0)  -->
<!DOCTYPE svg PUBLIC "-//W3C//DTD SVG 1.1//EN" "http://www.w3.org/Graphics/SVG/1.1/DTD/svg11.dtd">
<svg version="1.1" id="Layer_1" xmlns="http://www.w3.org/2000/svg" xmlns:xlink="http://www.w3.org/1999/xlink" x="0px" y="0px"
	 width="256px" height="208.036px" viewBox="0 0 256 208.036" enable-background="new 0 0 256 208.036" xml:space="preserve">
<path d="M256,24.618c-9.407,4.178-19.557,6.996-30.156,8.277c10.838-6.501,19.168-16.801,23.081-29.052
	c-10.149,5.998-21.394,10.379-33.327,12.729C205.987,6.351,192.331,0,177.244,0c-29.008,0-52.521,23.514-52.521,52.521
	c0,4.099,0.459,8.126,1.36,11.96C82.421,62.309,43.706,41.374,17.808,9.61c-4.505,7.755-7.102,16.783-7.102,26.411
	c0,18.213,9.275,34.281,23.373,43.706c-8.612-0.282-16.712-2.632-23.805-6.581c0,0.23,0,0.459,0,0.689
	c0,25.439,18.117,46.656,42.143,51.497c-4.399,1.21-9.045,1.819-13.833,1.819c-3.41,0-6.687-0.309-9.893-0.918
	c6.695,20.854,26.084,36.048,49.067,36.454c-17.984,14.089-40.632,22.498-65.232,22.498c-4.249,0-8.427-0.257-12.525-0.751
	c23.24,14.919,50.826,23.602,80.504,23.602c96.608,0,149.438-80.01,149.438-149.438c0-2.261-0.053-4.54-0.124-6.792
	C240.065,44.395,248.951,35.156,256,24.618z"/>
</svg>
