<?xml version="1.0" encoding="utf-8"?>
<!-- Generator: Adobe Illustrator 16.0.3, SVG Export Plug-In . SVG Version: 6.00 Build 0)  -->
<!DOCTYPE svg PUBLIC "-//W3C//DTD SVG 1.1//EN" "http://www.w3.org/Graphics/SVG/1.1/DTD/svg11.dtd">
<svg version="1.1" id="Layer_1" xmlns="http://www.w3.org/2000/svg" xmlns:xlink="http://www.w3.org/1999/xlink" x="0px" y="0px"
	 width="256.003px" height="172.767px" viewBox="0 0 256.003 172.767" enable-background="new 0 0 256.003 172.767"
	 xml:space="preserve">
<g>
	<path fill="#ffffff" d="M243.757,116.646c-8.666-3.763-19.61-2.154-26.017,3.83c-5.365,5.011-6.872,12.311-4.133,20.021
		c0.967,2.722,3.953,4.139,6.67,3.172c2.71-0.962,4.133-3.948,3.172-6.665c-1.361-3.824-0.9-6.737,1.417-8.896
		c3.396-3.172,9.864-3.999,14.729-1.884c4.033,1.749,6.074,5.028,6.074,9.747c0,17.896-20.898,24.267-40.453,24.267
		c-30.695,0-77.261-15.173-104.492-43.895C129.816,111.753,155.945,92,166.917,86h78.752c2.885,0,5.219-2.621,5.219-5.5
		s-2.334-5.5-5.219-5.5h-78.392c-12.418-12-45.729-36.105-80.456-36.105c-36.162,0-70.783,22.935-81.884,34.531
		c-1.935,2.014-5.858,4.702-3.929,6.721C7.936,87.378,23,98.914,40,106.95v60.598c0,2.88,3.115,5.219,6,5.219
		c2.879,0,6-2.339,6-5.219v-56.897c11,2.778,21.91,4.527,31.679,4.527c0.32,0,2.218-0.005,2.544-0.011
		c12.632,15.371,32.468,29.418,54.739,39.739c21.63,10.021,45.155,15.775,63.86,15.775c14.149,0,26.511-2.846,35.419-8.229
		c10.247-6.191,15.762-15.353,15.762-26.482C256.003,127.101,251.603,120.054,243.757,116.646z M109.154,101.563
		c7.103-6.22,11.591-15.348,11.591-25.533s-4.488-19.313-11.591-25.527c20.573,5.596,38.766,17.395,48.174,25.527
		C147.92,84.162,129.727,95.961,109.154,101.563z M64.494,50.503c-7.108,6.214-11.596,15.342-11.596,25.527
		s4.488,19.313,11.596,25.533c-20.578-5.602-38.771-17.4-48.18-25.533C25.723,67.897,43.917,56.099,64.494,50.503z"/>
	<path fill="#ffffff" d="M7.727,30.33c25.87-14.127,49.794-19.892,82.57-19.892c24.723,0,45.036,9.279,64.681,18.25
		c17.068,7.795,33.187,15.157,50.238,15.157c13.425,0,24.987-0.197,41.235-2.671c2.851-0.433,4.808-3.093,4.375-5.945
		c-0.428-2.846-3.088-4.803-5.944-4.375c-15.562,2.368-26.253,2.553-39.666,2.553c-14.779,0-29.896-6.906-45.902-14.217
		C139.619,10.196,117.292,0,90.297,0C56.086,0,29.896,6.333,2.721,21.168c-2.531,1.383-3.464,4.55-2.081,7.081
		C2.024,30.78,5.196,31.713,7.727,30.33z"/>
</g>
</svg>
