<?xml version="1.0" encoding="utf-8"?>
<!-- Generator: Adobe Illustrator 16.0.3, SVG Export Plug-In . SVG Version: 6.00 Build 0)  -->
<!DOCTYPE svg PUBLIC "-//W3C//DTD SVG 1.1//EN" "http://www.w3.org/Graphics/SVG/1.1/DTD/svg11.dtd">
<svg version="1.1" id="Layer_1" xmlns="http://www.w3.org/2000/svg" xmlns:xlink="http://www.w3.org/1999/xlink" x="0px" y="0px"
	 width="256.003px" height="208.862px" viewBox="0 0 256.003 208.862" enable-background="new 0 0 256.003 208.862"
	 xml:space="preserve">
<g>
	<path fill="#ffffff" d="M164.736,26.342c-15.572,0-30.252,3.917-43.094,10.837c7.29,3.514,14.036,7.994,20.071,13.278
		c7.216-2.495,14.968-3.836,23.022-3.836c39.144,0,70.984,31.841,70.984,70.978c0,39.144-31.841,70.984-70.984,70.984
		c-7.887,0-15.478-1.294-22.573-3.682c-11.621-3.902-21.909-10.743-29.969-19.636c-11.448-12.607-18.436-29.332-18.436-47.667
		c0-18.153,6.854-34.744,18.113-47.305c-6.035-3.702-12.829-6.284-20.091-7.458C80.292,78.1,73.479,97.064,73.479,117.599
		c0,20.763,6.961,39.922,18.677,55.266c8.021,10.509,18.268,19.233,30.03,25.449c12.715,6.733,27.193,10.549,42.551,10.549
		c50.322,0,91.264-40.94,91.264-91.264C256,67.276,215.059,26.342,164.736,26.342z"/>
	<path fill="#ffffff" d="M89.259,180.073c-2.119,0.215-4.272,0.335-6.445,0.335c-34.476,0-62.535-28.059-62.535-62.528
		c0-34.483,28.059-62.535,62.535-62.535c2.025,0,4.044,0.094,6.022,0.289c12.628,1.214,24.163,6.189,33.477,13.801
		c14.042,11.467,23.029,28.923,23.029,48.445c0,19.354-8.845,36.689-22.707,48.164c5.298,4.62,11.367,8.383,17.979,11.071
		c15.424-15.048,25.007-36.045,25.007-59.235c0-23.404-9.744-44.556-25.402-59.631c-9.321-8.979-20.749-15.8-33.444-19.649
		c-4.781-1.449-9.75-2.468-14.854-3.031l20.326-21.419L99.667,0H68.249L55.661,14.15l20.118,20.507C33.396,38.238,0,74.23,0,117.525
		c0,45.656,37.152,82.982,82.814,82.982c8.523,0,16.752-1.207,24.498-3.608C100.605,192.044,94.543,186.438,89.259,180.073z"/>
</g>
</svg>
