<?xml version="1.0" encoding="utf-8"?>
<!-- Generator: Adobe Illustrator 16.0.3, SVG Export Plug-In . SVG Version: 6.00 Build 0)  -->
<!DOCTYPE svg PUBLIC "-//W3C//DTD SVG 1.1//EN" "http://www.w3.org/Graphics/SVG/1.1/DTD/svg11.dtd">
<svg version="1.1" id="Layer_1" xmlns="http://www.w3.org/2000/svg" xmlns:xlink="http://www.w3.org/1999/xlink" x="0px" y="0px"
	 width="256.003px" height="255.052px" viewBox="0 0 256.003 255.052" enable-background="new 0 0 256.003 255.052"
	 xml:space="preserve">
<path fill="#ffffff" d="M208.153,165.99c-10.729-3.884-37.183-9.706-64.045-15.294c-0.009-0.025-0.019-0.051-0.028-0.076l-16.875-3.521
	c0.021,0.042,0.041,0.083,0.061,0.126c-3.203-0.655-6.365-1.302-9.457-1.933c-19.629-4.007-36.582-7.467-42.456-9.119
	c-6.939-1.952-67.795-20.354-67.795-64.897c0-13.902,11.973-40.667,40.818-42.59c8.01-0.534,15.273-0.623,21.928-0.367
	c9.542,20.281,30.776,64.628,52.756,110.195l17.837,3.722c-15.974-42.084-32.149-84.368-42.168-110.262
	c12.082,2.765,21.784,6.65,30.894,10.306c12.94,5.194,25.162,10.1,40.958,10.1c16.494,0,26.872-9.064,32.674-16.668
	c7.677-10.062,10.412-21.286,10.412-28.434c0-2.087-1.691-3.78-3.779-3.78s-3.779,1.692-3.779,3.78
	c0,13.474-11.872,37.543-35.527,37.543c-14.335,0-25.368-4.428-38.143-9.556c-10.659-4.278-22.093-8.859-36.985-11.738
	c-3.546-9.117-5.887-15.031-6.551-16.51c-3.929-8.762-11.535-7.558-16.219-5.667c0-0.001-0.001-0.004-0.002-0.005
	c-0.076,0.033-0.154,0.068-0.23,0.102c-0.078,0.032-0.156,0.064-0.232,0.097c0,0.002,0.001,0.082,0.002,0.084
	C67.874,3.615,62.176,8,64.689,16h6.553l-0.011-0.105c-1.471-3.418-0.117-7.325,3.302-8.795l0.052-0.042l0.463-0.209l0.053-0.028
	c3.418-1.471,7.157,0.202,8.628,3.621l10.209,23.726c1.471,3.418,0.116,7.285-3.302,8.755l-0.516,0.222l-0.053,0.022
	c-3.418,1.471-7.157-0.205-8.628-3.624l-4.672-10.859c3.62,0.275,7.051,0.654,10.313,1.122l-3.184-8.058
	c-10.254-1.179-22.054-1.536-36.021-0.604c-18.435,1.229-29.876,11.082-36.228,19.13C4.463,49.378,0,61.258,0,71.276
	c0,50.11,65.804,70.063,73.308,72.174c6.139,1.727,23.216,5.213,42.99,9.249c4.898,1,9.971,2.035,15.105,3.09
	c18.745,38.789,37.025,76.358,48.059,98.552c0.115,0.232,1.317,0.952,2.07,0.629c0.753-0.324,1.057-1.692,0.968-1.937
	c-7.912-21.589-21.146-56.81-35.214-93.952c24.913,5.218,48.588,10.503,58.293,14.017c16.317,5.908,26.401,15.379,31.986,22.283
	c6.911,8.543,10.876,18.045,10.876,26.069c0,2.087,1.691,3.779,3.779,3.779c2.087,0,3.779-1.692,3.779-3.779
	C256,202.963,239.23,177.243,208.153,165.99z"/>
</svg>
