<?xml version="1.0" encoding="utf-8"?>
<!-- Generator: Adobe Illustrator 16.0.3, SVG Export Plug-In . SVG Version: 6.00 Build 0)  -->
<!DOCTYPE svg PUBLIC "-//W3C//DTD SVG 1.1//EN" "http://www.w3.org/Graphics/SVG/1.1/DTD/svg11.dtd">
<svg version="1.1" id="Layer_1" xmlns="http://www.w3.org/2000/svg" xmlns:xlink="http://www.w3.org/1999/xlink" x="0px" y="0px"
	 width="256.003px" height="250px" viewBox="0 0 256.003 250" enable-background="new 0 0 256.003 250" xml:space="preserve">
<g>
	<path fill="#ffffff" d="M141.741,250c-0.11,0-0.216,0-0.323,0h-0.63c-0.105,0-0.214,0-0.323,0c-15.825,0-62.681-0.07-109.722-48.776
		c-2.745-2.843-2.667-7.245,0.176-9.991s7.373-2.702,10.12,0.14C84.182,236.043,125.313,236,140.786,236h0.635
		c0.11,0,0.223,0,0.336,0c15.732,0,56.575-0.211,99.41-44.564c2.745-2.842,7.276-2.871,10.12-0.125
		c2.843,2.746,2.922,7.046,0.176,9.889C204.425,249.902,157.569,250,141.741,250z"/>
</g>
<g>
	<path fill="#ffffff" d="M189.776,100.071c-15.744-16.46-46.384-28.671-85.402-18.07c20.187-38.2,1.989-110.751-93.038-69.897
		c3.816,8.528,5.076,11.391,8.11,18.131C-0.235,38.28-3.226,55.112,2.748,65.063c6.211,10.347,15.88,20.336,48.188,2.863
		c-31.312,26.24-17.535,111.047,15.565,137.528c1.972,1.576,8.201,2.535,10.08-2.505c5.665-45.207,40.057-51.54,60.176-51.528
		c46.936,0.027,50.461,33.322,53.943,48.188c3.549,15.148,18.622,8.569,18.622-0.477c0-24.903,3.176-69.54-15.26-89.697
		c6.448-9.723,30.245-15.806,40.559,8.11c8.83-9.96,15.125-17.146,21.378-23.398C237.19,78.058,202.659,65.719,189.776,100.071z
		 M41.871,47.41c-4.217,0-7.634-3.417-7.634-7.634c0-4.216,3.417-7.634,7.634-7.634c4.216,0,7.634,3.418,7.634,7.634
		C49.504,43.992,46.087,47.41,41.871,47.41z"/>
</g>
</svg>
