<?xml version="1.0" encoding="utf-8"?>
<!-- Generator: Adobe Illustrator 16.0.3, SVG Export Plug-In . SVG Version: 6.00 Build 0)  -->
<!DOCTYPE svg PUBLIC "-//W3C//DTD SVG 1.1//EN" "http://www.w3.org/Graphics/SVG/1.1/DTD/svg11.dtd">
<svg version="1.1" id="Layer_1" xmlns="http://www.w3.org/2000/svg" xmlns:xlink="http://www.w3.org/1999/xlink" x="0px" y="0px"
	 width="256.003px" height="256px" viewBox="0 0 256.003 256" enable-background="new 0 0 256.003 256" xml:space="preserve">
<g>
	<path d="M249.146,219.604l-15.767-15.774l21.675-21.666c2.175-2.175,0.208-3.732-1.975-5.908l-19.7-19.699l21.675-21.666
		c2.175-2.166,0.208-3.733-1.975-5.908l-19.7-19.7l21.675-21.666c2.175-2.175,0.208-3.733-1.975-5.908l-19.7-19.7l17.733-17.733
		c2.166-2.175,0.208-3.725-1.967-5.908L217.63,6.853c-2.175-2.175-3.733-4.141-5.917-1.966L193.98,22.62L174.281,2.912
		c-2.167-2.167-3.733-4.142-5.9-1.966L146.715,22.62L127.016,2.912c-2.184-2.175-3.733-4.142-5.917-1.966L99.434,22.62l-19.7-19.708
		c-2.167-2.175-3.716-4.142-5.908-1.966L52.168,22.62L36.402,6.853c-2.175-2.167-3.733-4.141-5.9-1.966L6.853,28.527
		c-2.175,2.175-4.133,7.667-1.958,9.842l15.749,15.758L2.92,71.859c-2.183,2.175-4.15,7.675-1.975,9.85L20.644,101.4L2.92,119.133
		c-2.183,2.175-4.15,7.674-1.975,9.85l19.699,19.699L2.92,166.406c-2.183,2.184-4.15,7.675-1.975,9.85l19.699,19.7L6.853,209.738
		c-2.175,2.191-4.133,7.691-1.958,9.866l31.507,31.508c2.183,2.184,7.683,0.208,9.85-1.975l13.783-13.783l19.699,19.691
		c2.184,2.183,7.667,0.208,9.858-1.967l17.724-17.725l19.7,19.691c2.183,2.183,7.667,0.208,9.849-1.967l17.733-17.725l19.683,19.691
		c2.184,2.183,7.683,0.208,9.85-1.967l17.741-17.725l15.758,15.758c2.166,2.184,7.666,0.208,9.85-1.975l23.633-23.625
		C253.278,223.33,251.32,221.78,249.146,219.604z M221.571,239.288l-15.774-15.759c-2.167-2.175-3.717-4.149-5.9-1.966
		l-21.665,21.666l-19.708-19.7c-2.175-2.175-3.725-4.149-5.908-1.966l-21.666,21.666l-19.699-19.7
		c-2.167-2.175-3.733-4.149-5.9-1.966l-21.666,21.666l-19.7-19.7c-2.183-2.175-3.741-4.149-5.917-1.966l-17.724,17.725
		l-23.641-23.633l17.733-17.725c2.183-2.184,0.208-3.741-1.967-5.908L12.77,172.331l21.666-21.683
		c2.183-2.166,0.208-3.725-1.967-5.908L12.77,125.041l21.666-21.666c2.183-2.175,0.208-3.733-1.967-5.908l-19.699-19.7
		l21.666-21.666c2.183-2.175,0.208-3.733-1.967-5.908l-15.75-15.758l15.75-15.758l15.75,15.758c2.184,2.175,7.683,0.208,9.85-1.975
		l17.733-17.725l19.7,19.699c2.183,2.175,7.674,0.208,9.85-1.975l17.732-17.725l19.691,19.699c2.175,2.175,7.675,0.208,9.842-1.975
		l17.732-17.725l19.699,19.699c2.167,2.175,7.667,0.208,9.85-1.975l13.783-13.783l23.649,23.633l-13.8,13.791
		c-2.166,2.175-4.133,7.675-1.967,9.841l19.7,19.708l-17.733,17.724c-2.166,2.175-4.133,7.675-1.958,9.858l19.691,19.699
		l-17.733,17.716c-2.166,2.184-4.133,7.684-1.958,9.85l19.691,19.7l-17.733,17.732c-2.166,2.175-4.133,7.675-1.967,9.85
		l15.767,15.749L221.571,239.288z"/>
	<path d="M144.665,146.641c2.175-2.184,2.175-5.708,0-7.883l-9.766-9.775l11.732-11.742c2.184-2.175,2.184-5.7,0-7.883
		c-2.175-2.167-5.699-2.175-7.875,0l-11.741,11.75L115.2,109.283c-2.183-2.175-5.7-2.175-7.883,0c-2.183,2.184-2.183,5.708,0,7.883
		l11.816,11.816l-9.85,9.849c-2.167,2.176-2.167,5.7,0,7.875c2.183,2.175,5.7,2.175,7.883,0l9.85-9.85l9.775,9.783
		C138.966,148.815,142.49,148.815,144.665,146.641z"/>
	<path d="M205.797,144.74l-11.816-11.808l11.75-11.75c1.083-1.092,1.083-2.85,0-3.942c-1.092-1.091-2.851-1.091-3.941,0
		l-11.733,11.742l-11.824-11.816c-1.101-1.092-2.851-1.092-3.95,0c-1.083,1.092-1.083,2.858,0,3.941l11.816,11.825l-11.883,11.892
		c-1.092,1.083-1.092,2.85,0,3.933c1.083,1.092,2.85,1.092,3.933,0l11.899-11.899l11.825,11.824c1.083,1.084,2.842,1.084,3.925,0
		C206.896,147.591,206.896,145.832,205.797,144.74z"/>
	<path d="M48.235,144.74l11.816-11.808l-11.741-11.75c-1.083-1.092-1.083-2.85,0-3.942c1.092-1.091,2.85-1.091,3.941,0
		l11.733,11.742l11.825-11.816c1.092-1.092,2.85-1.092,3.942,0c1.083,1.092,1.083,2.858,0,3.941l-11.816,11.825l11.891,11.892
		c1.092,1.083,1.092,2.85,0,3.933c-1.083,1.092-2.85,1.092-3.933,0l-11.9-11.899l-11.824,11.824c-1.083,1.084-2.85,1.084-3.934,0
		C47.144,147.591,47.144,145.832,48.235,144.74z"/>
	<path d="M144.665,201.789l-9.766-9.767l9.683-9.7c1.092-1.091,1.092-2.85,0-3.933c-1.083-1.092-2.85-1.092-3.934,0l-9.699,9.691
		l-9.767-9.774c-1.091-1.092-2.85-1.084-3.941,0c-1.092,1.091-1.092,2.85,0,3.941l9.775,9.774l-9.85,9.842
		c-1.083,1.083-1.083,2.857,0,3.949c1.083,1.075,2.85,1.075,3.934,0l9.85-9.857l9.774,9.774c1.092,1.083,2.858,1.092,3.941,0
		C145.757,204.639,145.757,202.881,144.665,201.789z"/>
	<path d="M144.665,56.185l-9.766,9.766l9.683,9.7c1.092,1.092,1.092,2.85,0,3.934c-1.083,1.091-2.85,1.091-3.934,0l-9.699-9.691
		l-9.767,9.774c-1.091,1.092-2.85,1.083-3.941,0c-1.092-1.091-1.092-2.85,0-3.941l9.775-9.775l-9.85-9.841
		c-1.083-1.083-1.083-2.858,0-3.95c1.083-1.075,2.85-1.075,3.934,0l9.85,9.858l9.774-9.774c1.092-1.083,2.858-1.092,3.941,0
		C145.757,53.335,145.757,55.093,144.665,56.185z"/>
</g>
</svg>
