<?xml version="1.0" encoding="utf-8"?>
<!-- Generator: Adobe Illustrator 16.0.3, SVG Export Plug-In . SVG Version: 6.00 Build 0)  -->
<!DOCTYPE svg PUBLIC "-//W3C//DTD SVG 1.1//EN" "http://www.w3.org/Graphics/SVG/1.1/DTD/svg11.dtd">
<svg version="1.1" id="Layer_1" xmlns="http://www.w3.org/2000/svg" xmlns:xlink="http://www.w3.org/1999/xlink" x="0px" y="0px"
	 width="256px" height="256px" viewBox="0 0 256 256" enable-background="new 0 0 256 256" xml:space="preserve">
<g>
	<path d="M128.003,256C57.419,256,0,198.578,0,128C0,57.421,57.419,0,128.003,0C198.572,0,256,57.421,256,128
		C256,198.578,198.572,256,128.003,256z M128.003,10.671C63.305,10.671,10.678,63.3,10.678,128
		c0,64.696,52.627,117.328,117.325,117.328c64.684,0,117.318-52.632,117.318-117.328C245.321,63.3,192.687,10.671,128.003,10.671z"
		/>
</g>
<g>
	<path d="M173.059,55.543H82.94c-15.657,0-28.392,12.736-28.392,28.386v29.985v60.144c0,15.656,12.735,28.386,28.392,28.386h90.119
		c15.657,0,28.393-12.729,28.393-28.386v-60.144V83.929C201.451,68.279,188.716,55.543,173.059,55.543z M181.201,72.471l3.25-0.011
		v3.236v21.661l-24.82,0.085l-0.079-24.899L181.201,72.471z M107.032,113.914c4.704-6.511,12.339-10.778,20.967-10.778
		s16.26,4.268,20.967,10.778c3.057,4.25,4.889,9.45,4.889,15.079c0,14.257-11.603,25.853-25.856,25.853
		c-14.26,0-25.853-11.596-25.853-25.853C102.146,123.364,103.975,118.164,107.032,113.914z M187.137,174.058
		c0,7.764-6.313,14.07-14.078,14.07H82.94c-7.764,0-14.078-6.307-14.078-14.07v-60.144H90.79c-1.893,4.661-2.957,9.75-2.957,15.079
		c0,22.143,18.014,40.171,40.167,40.171s40.167-18.028,40.167-40.171c0-5.329-1.071-10.418-2.964-15.079h21.935V174.058z"/>
</g>
</svg>
