<?xml version="1.0" encoding="utf-8"?>
<!-- Generator: Adobe Illustrator 16.0.3, SVG Export Plug-In . SVG Version: 6.00 Build 0)  -->
<!DOCTYPE svg PUBLIC "-//W3C//DTD SVG 1.1//EN" "http://www.w3.org/Graphics/SVG/1.1/DTD/svg11.dtd">
<svg version="1.1" id="Layer_1" xmlns="http://www.w3.org/2000/svg" xmlns:xlink="http://www.w3.org/1999/xlink" x="0px" y="0px"
	 width="256px" height="229.96px" viewBox="0 0 256 229.96" enable-background="new 0 0 256 229.96" xml:space="preserve">
<g>
	<path d="M250.659,93.372h-38.597V54.775c0-2.939-2.393-5.341-5.331-5.341h-10.984c-2.969,0-5.351,2.402-5.351,5.341v38.597H151.79
		c-2.939,0-5.331,2.402-5.331,5.351v10.984c0,2.958,2.392,5.341,5.331,5.341h38.606v38.606c0,2.959,2.382,5.341,5.351,5.341h10.984
		c2.938,0,5.331-2.382,5.331-5.341v-38.606h38.597c2.938,0,5.341-2.392,5.341-5.341V98.713
		C256,95.765,253.598,93.372,250.659,93.372z"/>
	<path d="M120.946,127.214c-8.114-5.751-15.496-14.187-15.632-16.774c0-4.716,0.43-6.971,11.004-15.212
		c13.68-10.711,21.217-24.791,21.217-39.661c0-13.494-4.12-25.474-11.14-33.891h5.448c1.123,0,2.227-0.352,3.125-1.005
		l15.183-11.004c1.895-1.357,2.676-3.759,1.953-5.966C151.38,1.503,149.349,0,147.025,0H79.127c-7.431,0-14.988,1.309-22.398,3.857
		c-24.742,8.534-42.053,29.624-42.053,51.27c0,30.668,23.765,53.926,55.527,54.649c-0.625,2.431-0.938,4.823-0.938,7.176
		c0,4.726,1.201,9.208,3.662,13.533c-0.283,0-0.557,0-0.869,0c-30.278,0-57.607,14.851-67.976,36.956
		C1.377,173.192,0,179.002,0,184.743c0,5.575,1.425,10.955,4.247,15.993c6.513,11.668,20.514,20.719,39.446,25.493
		c9.764,2.471,20.26,3.73,31.157,3.73c9.803,0,19.137-1.26,27.769-3.76c26.919-7.82,44.329-27.632,44.329-50.509
		C146.938,153.752,139.878,140.61,120.946,127.214z M35.179,177.449c0-15.964,20.28-29.965,43.401-29.965h0.625
		c5.019,0.058,9.93,0.8,14.558,2.226c1.592,1.094,3.115,2.129,4.589,3.135c10.711,7.293,17.78,12.106,19.752,19.84
		c0.468,1.943,0.693,3.896,0.693,5.78c0,19.879-14.831,29.956-44.084,29.956C52.549,208.421,35.179,194.829,35.179,177.449z
		 M56.211,26.606c3.612-4.13,8.348-6.307,13.66-6.307h0.605c15.007,0.449,29.37,17.175,32.006,37.298
		c1.484,11.258-1.015,21.852-6.678,28.306c-3.632,4.13-8.299,6.308-13.816,6.308c0,0,0,0-0.01,0h-0.254
		c-14.695-0.449-29.37-17.81-31.987-37.904C48.253,43.079,50.616,32.982,56.211,26.606z"/>
</g>
</svg>
