<?xml version="1.0" encoding="utf-8"?>
<!-- Generator: Adobe Illustrator 16.0.3, SVG Export Plug-In . SVG Version: 6.00 Build 0)  -->
<!DOCTYPE svg PUBLIC "-//W3C//DTD SVG 1.1//EN" "http://www.w3.org/Graphics/SVG/1.1/DTD/svg11.dtd">
<svg version="1.1" id="Layer_1" xmlns="http://www.w3.org/2000/svg" xmlns:xlink="http://www.w3.org/1999/xlink" x="0px" y="0px"
	 width="256px" height="256px" viewBox="0 0 256 256" enable-background="new 0 0 256 256" xml:space="preserve">
<g>
	<g>
		<g>
			<path d="M98.985,220.664v-95.867H82.457V96.322h16.528v-4.836c0-15.004,4.575-31.528,15.514-41.7
				c9.914-9.154,23.136-12.461,34.581-12.461c8.383,0,14.997,1.275,20.343,2.546l-1.532,29.746
				c-3.296-1.018-7.367-1.778-12.453-1.778c-12.714,0-18.057,9.911-18.057,22.125v6.357h24.914v28.475h-24.66v95.867H98.985z"/>
		</g>
	</g>
	<g>
		<path d="M128.002,256C57.421,256,0,198.579,0,128C0,57.421,57.421,0,128.002,0C198.572,0,256,57.421,256,128
			C256,198.579,198.572,256,128.002,256z M128.002,10.671C63.307,10.671,10.679,63.3,10.679,128
			c0,64.696,52.628,117.329,117.324,117.329c64.685,0,117.32-52.633,117.32-117.329C245.322,63.3,192.688,10.671,128.002,10.671z"/>
	</g>
</g>
</svg>
