<?xml version="1.0" encoding="utf-8"?>
<!-- Generator: Adobe Illustrator 16.0.3, SVG Export Plug-In . SVG Version: 6.00 Build 0)  -->
<!DOCTYPE svg PUBLIC "-//W3C//DTD SVG 1.1//EN" "http://www.w3.org/Graphics/SVG/1.1/DTD/svg11.dtd">
<svg version="1.1" id="Layer_1" xmlns="http://www.w3.org/2000/svg" xmlns:xlink="http://www.w3.org/1999/xlink" x="0px" y="0px"
	 width="256px" height="256px" viewBox="0 0 256 256" enable-background="new 0 0 256 256" xml:space="preserve">
<g>
	<path d="M128.002,256C57.421,256,0,198.578,0,128C0,57.421,57.421,0,128.002,0C198.572,0,256,57.421,256,128
		C256,198.578,198.572,256,128.002,256z M128.002,10.671C63.307,10.671,10.679,63.3,10.679,128
		c0,64.696,52.628,117.328,117.324,117.328c64.685,0,117.32-52.632,117.32-117.328C245.322,63.3,192.688,10.671,128.002,10.671z"/>
</g>
<path d="M211.269,76.346c-6.124,2.718-12.71,4.554-19.621,5.382c7.05-4.229,12.468-10.925,15.025-18.903
	c-6.604,3.911-13.918,6.761-21.696,8.289c-6.235-6.643-15.118-10.786-24.939-10.786c-18.874,0-34.17,15.296-34.17,34.164
	c0,2.679,0.303,5.286,0.882,7.786c-28.392-1.422-53.574-15.025-70.424-35.7c-2.939,5.05-4.625,10.914-4.625,17.179
	c0,11.857,6.032,22.314,15.196,28.443c-5.596-0.182-10.868-1.718-15.475-4.279c0,0.146,0,0.286,0,0.436
	c0,16.55,11.778,30.357,27.41,33.5c-2.868,0.782-5.886,1.196-9.003,1.196c-2.204,0-4.343-0.215-6.432-0.614
	c4.35,13.578,16.971,23.453,31.917,23.732c-11.689,9.164-26.421,14.625-42.435,14.625c-2.753,0-5.472-0.161-8.146-0.476
	c15.121,9.693,33.078,15.351,52.375,15.351c62.849,0,97.217-52.064,97.217-97.218c0-1.479-0.032-2.954-0.097-4.421
	C200.895,89.221,206.69,83.2,211.269,76.346z"/>
</svg>
