<?xml version="1.0" encoding="utf-8"?>
<!-- Generator: Adobe Illustrator 16.0.3, SVG Export Plug-In . SVG Version: 6.00 Build 0)  -->
<!DOCTYPE svg PUBLIC "-//W3C//DTD SVG 1.1//EN" "http://www.w3.org/Graphics/SVG/1.1/DTD/svg11.dtd">
<svg version="1.1" id="Layer_1" xmlns="http://www.w3.org/2000/svg" xmlns:xlink="http://www.w3.org/1999/xlink" x="0px" y="0px"
	 width="256px" height="150.041px" viewBox="0 0 256 150.041" enable-background="new 0 0 256 150.041" xml:space="preserve">
<g>
	<g>
		<path fill="#020202" d="M223.5,7.343v12.847c8,0,19.477,5.581,19.477,18.047c0,13.312-8.285,28.545-34.71,32.406
			C217.739,50.472,223.5,29.563,223.5,6.731v-6.69H9.5v6.69c0,45.124,17.357,83.46,56.289,122.696l1.871,2.613h95.928l2.035-2.613
			c14.774-14.892,26.458-29.91,35.279-44.834c44.229-2.389,54.918-29.784,54.918-46.179C255.82,20.514,242.5,7.343,223.5,7.343z
			 M158.22,117.041H73.027c-33.185-34-48.984-64-50.563-102h186.319C207.204,53.041,191.408,83.041,158.22,117.041z"/>
		<path fill="#020202" d="M9.174,150.041h211.061c0,0,9.171-7,9.171-15c-21.714,0-217.476,0-229.406,0
			C0,143.041,9.174,150.041,9.174,150.041z"/>
		<path fill="#020202" d="M73.039,49.041c1.337,11,5.379,39.924,14.443,45.883c10.979,7.224-20.59-4.883-32.123-45.883
			c-7.389,0-12.349,0-13.605,0c0,22,31.047,53,35.94,53c6.797,0,69.063,0,75.86,0c4.894,0,35.944-31,35.944-53
			C184.27,49.041,114.946,49.041,73.039,49.041z"/>
	</g>
</g>
</svg>
