<?xml version="1.0" encoding="utf-8"?>
<!-- Generator: Adobe Illustrator 16.0.3, SVG Export Plug-In . SVG Version: 6.00 Build 0)  -->
<!DOCTYPE svg PUBLIC "-//W3C//DTD SVG 1.1//EN" "http://www.w3.org/Graphics/SVG/1.1/DTD/svg11.dtd">
<svg version="1.1" id="Layer_1" xmlns="http://www.w3.org/2000/svg" xmlns:xlink="http://www.w3.org/1999/xlink" x="0px" y="0px"
	 width="256px" height="119.041px" viewBox="0 0 256 119.041" enable-background="new 0 0 256 119.041" xml:space="preserve">
<path d="M235.417,19.97c-7.886,0-19.15,6.247-19.15,12.802c0,2.246-4.492,1.55-8.504,0.34c8.452-13.025,12.251-15.225,12.167-19.479
	C219.747,4.165,163.778,0,109.964,0C56.153,0,0.184,4.165,0.001,13.633c-0.13,6.666,7.741,8.283,29.655,54.417
	C35.645,80.657,54.5,89.401,63.5,89.401c0,4.136,0,7.681,0,9.937c-3,0-10.155,3.848-10.155,8.035
	c0,4.584,17.707,11.668,32.657,11.668c6.12,0,23.962,0,23.962,0s17.845,0,23.964,0c14.951,0,30.686-7.084,30.686-11.668
	c0-4.188-9.114-8.035-12.114-8.035c0-2.256,0-5.801,0-9.937c6,0,20.753-6.36,29.236-15.36c2.97,0,6.581,0,10.156,0
	c37.89,0,64.107-14.283,64.107-34.972C256,26.574,243.506,19.97,235.417,19.97z M109.964,93.959
	c-27.854,0-38.504-4.919-38.504-4.919h38.504h38.506C148.471,89.041,137.821,93.959,109.964,93.959z M109.964,24.041
	c-8.733,0-38.368,0-49.359,0c-39.324,0-54.072-7.656-54.072-10.588c0-3.435,34.02-9.346,103.432-9.487
	c69.415,0.141,103.434,5.987,103.434,9.421c0,2.932-14.748,10.653-54.072,10.653C148.334,24.041,118.7,24.041,109.964,24.041z
	 M187.801,69.816c0.342-0.58,10.227-20.361,13.938-26.815c24.153,0,23.472-15.043,32.856-15.043c8.295,0,13.211,4.199,13.211,13.212
	C247.807,58.148,232.316,69.268,187.801,69.816z"/>
</svg>
