<?xml version="1.0" encoding="utf-8"?>
<!-- Generator: Adobe Illustrator 16.0.3, SVG Export Plug-In . SVG Version: 6.00 Build 0)  -->
<!DOCTYPE svg PUBLIC "-//W3C//DTD SVG 1.1//EN" "http://www.w3.org/Graphics/SVG/1.1/DTD/svg11.dtd">
<svg version="1.1" id="Layer_1" xmlns="http://www.w3.org/2000/svg" xmlns:xlink="http://www.w3.org/1999/xlink" x="0px" y="0px"
	 width="256px" height="198.041px" viewBox="0 0 256 198.041" enable-background="new 0 0 256 198.041" xml:space="preserve">
<g>
	<g>
		<circle cx="122.564" cy="15.038" r="15.038"/>
		<path d="M122.815,32.473c-19.94,0-39.034,10.567-53.614,26.567h107.227C161.851,43.041,142.754,32.473,122.815,32.473z"/>
		<path d="M234.101,69.041c-3.885,0-7.145,15.002-7.709,17.135c-2.667,10.076-13.124,19.174-24.363,20.952
			c-2.471-12.909-8.505-24.087-16.964-38.087H60.569c-2.672,4-5.104,10-7.258,14H32.082c-7.226,0-15.073,2.123-20.991,7.281
			C3.94,96.554,0,104.851,0,114.56c0,12.396,7.032,25.203,19.295,35.554c9.611,8.117,21.25,13.353,32.939,15.195
			c7.026,11.363,16.882,16.679,26.469,21.201c0,3.509,1.628,11.53,8.02,11.53c9.023,0,29.713,0,36.093,0c6.38,0,27.072,0,36.091,0
			c6.392,0,8.021-8.077,8.021-11.589c11.983-5.653,24.386-12.856,31.154-31.241c54.232-9.957,41.572-79.17,57.918-86.17
			C250.33,69.041,239.989,69.041,234.101,69.041z M44.594,144.95c-4.95-2.017-9.716-4.877-13.981-8.479
			c-8.06-6.804-13.068-15.202-13.068-22.198c0-10.895,9.468-15.232,14.537-15.232h13.755c-2.25,7-3.479,14.305-3.479,21.244
			C42.358,130.013,43.164,138.01,44.594,144.95z"/>
	</g>
</g>
</svg>
